<?xml version="1.0" standalone="no"?>
<!DOCTYPE svg PUBLIC "-//W3C//DTD SVG 1.1//EN" "http://www.w3.org/Graphics/SVG/1.1/DTD/svg11.dtd" >
<svg xmlns="http://www.w3.org/2000/svg" xmlns:xlink="http://www.w3.org/1999/xlink" version="1.1">
<metadata>
Created by FontForge 20201107 at Tue Sep 27 12:21:10 2022
 By Jimmy Wärting
Copyright 2022 Black Foundry
</metadata>
<defs>
<font id="BluuSuuperstar-Regular" horiz-adv-x="564" >
  <font-face 
    font-family="Bluu Suuperstar"
    font-weight="400"
    font-stretch="normal"
    units-per-em="1000"
    panose-1="0 0 0 0 0 0 0 0 0 0"
    ascent="800"
    descent="-200"
    x-height="490"
    cap-height="685"
    bbox="-155 -244 1214 936"
    underline-thickness="50"
    underline-position="-125"
    unicode-range="U+0020-F6C3"
  />
<missing-glyph horiz-adv-x="770" 
d="M106 685h558v-685h-558v685zM605 49v584h-444v-584h444zM205 459l73 79l73 -79l-73 -79zM415 459l73 79l73 -79l-73 -79zM383 301q54 0 91.5 -24.5t58 -66t23.5 -92.5h-16q-13 53 -55.5 83.5t-101.5 30.5q-58 0 -101 -30.5t-56 -83.5h-16q3 51 23.5 92.5t58 66t91.5 24.5
z" />
    <glyph glyph-name="fi" unicode="fi" horiz-adv-x="627" 
d="M113 58v472q0 54 16 94.5t54 63t104 22.5h156v0l-30 -157h-10q-26 64 -70.5 91.5t-83.5 27.5q-32 0 -53 -17.5t-21 -55.5q0 -28 9.5 -57t18.5 -52v-427l110 -55v-8h-275v8zM426 58v387h-408v8l23 37h499v-6l-24 -70v-356l75 -50v-8h-240v8z" />
    <glyph glyph-name="fl" unicode="fl" horiz-adv-x="617" 
d="M113 58v472q0 57 16 99.5t50.5 66.5t90.5 24q51 0 99 -19t79 -47l-12 -108h-10q-13 47 -41.5 77t-62 44.5t-63.5 14.5q-36 0 -60 -20.5t-24 -65.5q0 -28 9 -55.5t19 -50.5v-427l110 -55v-8h-275v8zM426 445h-408v8l23 37h385v119l-58 60l41 7l107 44v-662l75 -50v-8h-240
v8l75 50v387z" />
    <glyph glyph-name="fj" unicode="fj" horiz-adv-x="614" 
d="M113 58v472q0 54 16 94.5t54 63t104 22.5h156v0l-30 -157h-10q-26 64 -70.5 91.5t-83.5 27.5q-32 0 -53 -17.5t-21 -55.5q0 -28 9.5 -57t18.5 -52v-427l110 -55v-8h-275v8zM426 -57v502h-408v8l23 37h499v-6l-24 -70v-434q0 -47 -13 -81t-39.5 -63t-67.5 -61l-9 9
q21 35 30 71t9 88z" />
    <glyph glyph-name="f_f" unicode="ff" horiz-adv-x="683" 
d="M113 58v472q0 54 14.5 94.5t48.5 63t92 22.5h102v-157h-10q-25 62 -61 90.5t-68 28.5q-25 0 -40.5 -17.5t-15.5 -55.5q0 -28 9.5 -57t18.5 -52v-427l110 -55v-8h-275v8zM425 58v472q0 54 15 94.5t51 63t98 22.5h116v-157h-10q-26 63 -66.5 91t-76.5 28q-28 0 -46.5 -17.5
t-18.5 -55.5q0 -28 9.5 -57t18.5 -52v-427l110 -55v-8h-275v8zM18 453l23 37h642v-8l-23 -37h-642v8z" />
    <glyph glyph-name="f_b" unicode="fb" horiz-adv-x="904" 
d="M113 58v472q0 57 16 99.5t50.5 66.5t90.5 24q51 0 99 -19t79 -47l-12 -108h-10q-13 47 -41.5 77t-62 44.5t-63.5 14.5q-36 0 -60 -20.5t-24 -65.5q0 -28 9 -55.5t19 -50.5v-427l110 -55v-8h-275v8zM18 453l23 37h385v119l-58 60l41 7l107 44v-230v-59h4q32 33 66 51
t75 18q57 0 98.5 -32t64 -87t22.5 -126q0 -78 -29.5 -138t-81.5 -93.5t-121 -33.5q-32 0 -64 6.5t-57 16.5l-55 -23h-12v455h-408v8zM516 390v-301q28 -34 58.5 -48.5t60.5 -14.5q57 0 86.5 47t29.5 126q0 81 -20.5 133.5t-52.5 78t-69 25.5q-28 0 -52 -13t-41 -33z" />
    <glyph glyph-name="f_h" unicode="fh" horiz-adv-x="922" 
d="M113 58v472q0 57 16 99.5t50.5 66.5t90.5 24q51 0 99 -19t79 -47l-12 -108h-10q-13 47 -41.5 77t-62 44.5t-63.5 14.5q-36 0 -60 -20.5t-24 -65.5q0 -28 9 -55.5t19 -50.5v-427l110 -55v-8h-275v8zM18 453l23 37h385v119l-58 60l41 7l107 44v-230v-75h5q46 44 87.5 64.5
t84.5 20.5q65 0 99.5 -41.5t34.5 -118.5v-282l75 -50v-8h-240v8l75 50v260q0 59 -21.5 86.5t-67.5 27.5q-34 0 -67.5 -15t-64.5 -44v-315l75 -50v-8h-240v8l75 50v387h-408v8z" />
    <glyph glyph-name="f_k" unicode="fk" horiz-adv-x="875" 
d="M113 58v472q0 57 16 99.5t50.5 66.5t90.5 24q51 0 99 -19t79 -47l-12 -108h-10q-13 47 -41.5 77t-62 44.5t-63.5 14.5q-36 0 -60 -20.5t-24 -65.5q0 -28 9 -55.5t19 -50.5v-427l110 -55v-8h-275v8zM574 271l62 60l151 -257l88 -66v-8h-161l-17 48zM711 433l-71 49v8h215
v-8l-96 -55l-261 -255l1 53zM18 453l23 37h385v119l-58 60l41 7l107 44v-662l75 -50v-8h-240v8l75 50v387h-408v8z" />
    <glyph glyph-name="f_f_b" unicode="ffb" horiz-adv-x="1216" 
d="M113 58v472q0 54 14.5 94.5t48.5 63t92 22.5h102v-157h-10q-25 62 -61 90.5t-68 28.5q-25 0 -40.5 -17.5t-15.5 -55.5q0 -28 9.5 -57t18.5 -52v-427l110 -55v-8h-275v8zM425 58v472q0 57 16 99.5t50.5 66.5t90.5 24q51 0 99 -19t79 -47l-12 -108h-10q-13 47 -41.5 77
t-62 44.5t-63.5 14.5q-36 0 -60 -20.5t-24 -65.5q0 -28 9 -55.5t19 -50.5v-427l110 -55v-8h-275v8zM828 390v-301q28 -34 58.5 -48.5t60.5 -14.5q57 0 86.5 47t29.5 126q0 81 -20.5 133.5t-52.5 78t-69 25.5q-28 0 -52 -13t-41 -33zM18 453l23 37h697v119l-58 60l41 7
l107 44v-230v-59h4q32 33 66 51t75 18q57 0 98.5 -32t64 -87t22.5 -126q0 -78 -29 -138t-81.5 -93.5t-121.5 -33.5q-32 0 -64 6.5t-57 16.5l-55 -23h-12v455h-720v8z" />
    <glyph glyph-name="f_f_f" unicode="fff" horiz-adv-x="995" 
d="M113 58v472q0 54 14.5 94.5t48.5 63t92 22.5h102v-157h-10q-25 62 -61 90.5t-68 28.5q-25 0 -40.5 -17.5t-15.5 -55.5q0 -28 9.5 -57t18.5 -52v-427l110 -55v-8h-275v8zM425 58v472q0 54 14.5 94.5t48.5 63t92 22.5h102v-157h-10q-25 62 -61 90.5t-68 28.5
q-25 0 -40.5 -17.5t-15.5 -55.5q0 -28 9.5 -57t18.5 -52v-427l110 -55v-8h-275v8zM737 58v472q0 54 15 94.5t51 63t98 22.5h116v-157h-10q-26 63 -66.5 91t-76.5 28q-28 0 -46.5 -17.5t-18.5 -55.5q0 -28 9.5 -57t18.5 -52v-427l110 -55v-8h-275v8zM18 453l23 37h954v-8
l-23 -37h-954v8z" />
    <glyph glyph-name="f_f_i" unicode="ffi" horiz-adv-x="939" 
d="M113 58v472q0 54 14.5 94.5t48.5 63t92 22.5h102v-157h-10q-25 62 -61 90.5t-68 28.5q-25 0 -40.5 -17.5t-15.5 -55.5q0 -28 9.5 -57t18.5 -52v-427l110 -55v-8h-275v8zM425 58v472q0 54 16 94.5t54 63t104 22.5h156v0l-30 -157h-10q-26 64 -70.5 91.5t-83.5 27.5
q-32 0 -53 -17.5t-21 -55.5q0 -28 9.5 -57t18.5 -52v-427l110 -55v-8h-275v8zM18 453l23 37h811v-6l-24 -70v-356l75 -50v-8h-240v8l75 50v387h-720v8z" />
    <glyph glyph-name="f_f_h" unicode="ffh" horiz-adv-x="1234" 
d="M113 58v472q0 54 14.5 94.5t48.5 63t92 22.5h102v-157h-10q-25 62 -61 90.5t-68 28.5q-25 0 -40.5 -17.5t-15.5 -55.5q0 -28 9.5 -57t18.5 -52v-427l110 -55v-8h-275v8zM425 58v472q0 57 16 99.5t50.5 66.5t90.5 24q51 0 99 -19t79 -47l-12 -108h-10q-13 47 -41.5 77
t-62 44.5t-63.5 14.5q-36 0 -60 -20.5t-24 -65.5q0 -28 9 -55.5t19 -50.5v-427l110 -55v-8h-275v8zM18 453l23 37h697v119l-58 60l41 7l107 44v-230v-75h5q46 44 87.5 64.5t84.5 20.5q65 0 99.5 -41.5t34.5 -118.5v-282l75 -50v-8h-240v8l75 50v260q0 59 -21.5 86.5
t-67.5 27.5q-34 0 -67.5 -15t-64.5 -44v-315l75 -50v-8h-240v8l75 50v387h-720v8z" />
    <glyph glyph-name="f_f_k" unicode="ffk" horiz-adv-x="1187" 
d="M113 58v472q0 54 14.5 94.5t48.5 63t92 22.5h102v-157h-10q-25 62 -61 90.5t-68 28.5q-25 0 -40.5 -17.5t-15.5 -55.5q0 -28 9.5 -57t18.5 -52v-427l110 -55v-8h-275v8zM425 58v472q0 57 16 99.5t50.5 66.5t90.5 24q51 0 99 -19t79 -47l-12 -108h-10q-13 47 -41.5 77
t-62 44.5t-63.5 14.5q-36 0 -60 -20.5t-24 -65.5q0 -28 9 -55.5t19 -50.5v-427l110 -55v-8h-275v8zM886 271l62 60l151 -257l88 -66v-8h-161l-17 48zM1023 433l-71 49v8h215v-8l-96 -55l-261 -255l1 53zM18 453l23 37h697v119l-58 60l41 7l107 44v-662l75 -50v-8h-240v8
l75 50v387h-720v8z" />
    <glyph glyph-name="f_f_j" unicode="ffj" horiz-adv-x="926" 
d="M113 58v472q0 54 14.5 94.5t48.5 63t92 22.5h102v-157h-10q-25 62 -61 90.5t-68 28.5q-25 0 -40.5 -17.5t-15.5 -55.5q0 -28 9.5 -57t18.5 -52v-427l110 -55v-8h-275v8zM425 58v472q0 54 16 94.5t54 63t104 22.5h156v0l-30 -157h-10q-26 64 -70.5 91.5t-83.5 27.5
q-32 0 -53 -17.5t-21 -55.5q0 -28 9.5 -57t18.5 -52v-427l110 -55v-8h-275v8zM18 453l23 37h811v-6l-24 -70v-434q0 -47 -13 -81t-39.5 -63t-67.5 -61l-9 9q21 35 30 71t9 88v502h-720v8z" />
    <glyph glyph-name="f_f_l" unicode="ffl" horiz-adv-x="929" 
d="M113 58v472q0 54 14.5 94.5t48.5 63t92 22.5h102v-157h-10q-25 62 -61 90.5t-68 28.5q-25 0 -40.5 -17.5t-15.5 -55.5q0 -28 9.5 -57t18.5 -52v-427l110 -55v-8h-275v8zM425 58v472q0 57 16 99.5t50.5 66.5t90.5 24q51 0 99 -19t79 -47l-12 -108h-10q-13 47 -41.5 77
t-62 44.5t-63.5 14.5q-36 0 -60 -20.5t-24 -65.5q0 -28 9 -55.5t19 -50.5v-427l110 -55v-8h-275v8zM18 453l23 37h697v119l-58 60l41 7l107 44v-662l75 -50v-8h-240v8l75 50v387h-720v8z" />
    <glyph glyph-name=".notdef" horiz-adv-x="770" 
d="M106 685h558v-685h-558v685zM605 49v584h-444v-584h444zM205 459l73 79l73 -79l-73 -79zM415 459l73 79l73 -79l-73 -79zM383 301q54 0 91.5 -24.5t58 -66t23.5 -92.5h-16q-13 53 -55.5 83.5t-101.5 30.5q-58 0 -101 -30.5t-56 -83.5h-16q3 51 23.5 92.5t58 66t91.5 24.5
z" />
    <glyph glyph-name="space" unicode=" " horiz-adv-x="220" 
 />
    <glyph glyph-name="uni00A0" unicode="&#xa0;" horiz-adv-x="220" 
 />
    <glyph glyph-name="A" unicode="A" horiz-adv-x="678" 
d="M161 244h331v-37h-331v37zM509 29l-213 538l14 -1l-203 -537l-14 56l104 -77v-8h-195v8l74 55l247 632h23l256 -632l74 -55v-8h-257v8l104 70z" />
    <glyph glyph-name="B" unicode="B" horiz-adv-x="620" 
d="M352 354l-8 13q45 31 65 68t20 83q0 70 -43 100t-120 30h-51v-270h79q100 0 162.5 -23t92.5 -62.5t30 -90.5q0 -45 -22 -82t-63 -64t-98.5 -41.5t-128.5 -14.5h-233v8l81 57v555l-81 57v8h234q76 0 135.5 -16.5t94 -50t34.5 -85.5q0 -36 -19 -68t-59 -59.5t-102 -51.5z
M285 341h-70v-296q17 -4 35.5 -6t39.5 -2q83 0 134 35t51 113q0 74 -48.5 115t-141.5 41z" />
    <glyph glyph-name="C" unicode="C" horiz-adv-x="620" 
d="M382 685h163v-195h-12q-33 77 -86 112t-112 35q-85 0 -135.5 -66.5t-50.5 -189.5q0 -94 29.5 -165.5t80 -111t113.5 -39.5q67 0 117 43.5t86 108.5l14 -7q-22 -67 -60.5 -116.5t-89.5 -76.5t-113 -27q-81 0 -142 45t-95 121t-34 170q0 102 40.5 183t114.5 128.5t172 47.5
z" />
    <glyph glyph-name="D" unicode="D" horiz-adv-x="709" 
d="M261 648h-46v-601q17 -4 37 -7t44 -3q115 0 184.5 70t69.5 219q0 101 -34 173t-98.5 110.5t-156.5 38.5zM34 0v8l81 57v555l-81 57v8h251q115 0 198.5 -36.5t129 -108.5t45.5 -180t-45.5 -189t-128 -126t-194.5 -45h-256z" />
    <glyph glyph-name="E" unicode="E" horiz-adv-x="611" 
d="M34 0v8l81 57v555l-81 57v8h489v-195h-10l-117 183l46 -25h-227v-276h268v-37h-268v-298h239l-48 -24l138 182h10l-23 -195h-497z" />
    <glyph glyph-name="F" unicode="F" horiz-adv-x="555" 
d="M215 70l116 -62v-8h-297v8l81 57v555l-81 57v8h475v-195h-10l-117 183l46 -25h-213v-286h254v-37h-254v-255z" />
    <glyph glyph-name="G" unicode="G" horiz-adv-x="694" 
d="M383 685h163v-195h-12q-33 77 -86 112t-112 35q-85 0 -135.5 -66.5t-50.5 -189.5q0 -94 29.5 -165.5t80 -111t113.5 -39.5q45 0 81.5 22.5t67 60t54.5 80.5l8 -18q-34 -100 -100.5 -160t-158.5 -60q-79 0 -140 45t-95 121t-34 170q0 102 40.5 183t114.5 128.5t172 47.5z
M496 271l-116 62v8h297v-8l-81 -57v-276h-12l-88 97v174z" />
    <glyph glyph-name="H" unicode="H" horiz-adv-x="758" 
d="M148 371h438v-37h-438v37zM115 620l-81 57v8h262v-8l-81 -57v-555l81 -57v-8h-262v8l81 57v555zM543 620l-81 57v8h262v-8l-81 -57v-555l81 -57v-8h-262v8l81 57v555z" />
    <glyph glyph-name="I" unicode="I" horiz-adv-x="330" 
d="M115 620l-81 57v8h262v-8l-81 -57v-555l81 -57v-8h-262v8l81 57v555z" />
    <glyph glyph-name="J" unicode="J" horiz-adv-x="324" 
d="M112 -19v639l-81 57v8h262v-8l-81 -57v-608q0 -87 -40.5 -143t-104.5 -94l-7 8q23 32 37.5 78.5t14.5 119.5z" />
    <glyph glyph-name="K" unicode="K" horiz-adv-x="681" 
d="M209 255l-25 29l321 367l-8 -61l-84 87v8h228v-8l-143 -82l30 52l16 -15zM115 620l-81 57v8h262v-8l-81 -57v-555l81 -57v-8h-262v8l81 57v555zM681 0h-190l-22 63l-187 278l59 77l242 -344l98 -66v-8z" />
    <glyph glyph-name="L" unicode="L" horiz-adv-x="577" 
d="M215 620v-583h205l120 158h10l-23 -195h-493v8l81 57v555l-81 57v8h262v-8z" />
    <glyph glyph-name="M" unicode="M" horiz-adv-x="901" 
d="M670 589l-238 -582h-15l-255 588l-10 8l-97 74v8h175l230 -545h-18l223 545h176v-8l-96 -72zM150 65l81 -57v-8h-203v8l81 57l29 567l38 -14zM792 65l81 -57v-8h-259v8l81 57l-37 539l95 51z" />
    <glyph glyph-name="N" unicode="N" horiz-adv-x="725" 
d="M158 685l497 -677v-8h-115l-497 677v8h115zM161 65l81 -57v-8h-203v8l81 57v524l41 -57v-467zM564 620l-81 57v8h203v-8l-81 -57v-584l-41 57v527z" />
    <glyph glyph-name="O" unicode="O" horiz-adv-x="727" 
d="M159 392q0 -73 17 -138t48.5 -115t74.5 -78t95 -28q58 0 96.5 33.5t58 92.5t19.5 134q0 74 -17 138.5t-48.5 114.5t-74.5 78t-95 28q-58 0 -96.5 -33.5t-58 -92t-19.5 -134.5zM351 -10q-72 0 -127 27t-92.5 74t-56.5 108t-19 129q0 111 41.5 193.5t114 128t164.5 45.5
q72 0 127 -27t92.5 -74t56.5 -108.5t19 -129.5q0 -111 -41.5 -193t-114 -127.5t-164.5 -45.5z" />
    <glyph glyph-name="P" unicode="P" horiz-adv-x="596" 
d="M249 648h-34v-338q14 -1 21.5 -1.5t16.5 -0.5q100 0 148.5 43t48.5 121q0 62 -27 101t-72.5 57t-101.5 18zM215 70l116 -62v-8h-297v8l81 57v555l-81 57v8h237q87 0 151.5 -22.5t100.5 -66t36 -107.5q0 -57 -26 -98t-70.5 -68t-99.5 -40t-113 -13h-17.5h-17.5v-200z" />
    <glyph glyph-name="Q" unicode="Q" horiz-adv-x="727" 
d="M419 10l107 52l80 -202l-12 -8zM159 392q0 -73 17 -138t48.5 -115t74.5 -78t95 -28q58 0 96.5 33.5t58 92.5t19.5 134q0 74 -17 138.5t-48.5 114.5t-74.5 78t-95 28q-58 0 -96.5 -33.5t-58 -92t-19.5 -134.5zM351 -10q-72 0 -127 27t-92.5 74t-56.5 108t-19 129
q0 111 41.5 193.5t114 128t164.5 45.5q72 0 127 -27t92.5 -74t56.5 -108.5t19 -129.5q0 -111 -41.5 -193t-114 -127.5t-164.5 -45.5z" />
    <glyph glyph-name="R" unicode="R" horiz-adv-x="649" 
d="M299 305l93 26l166 -256l89 -67v-8h-177l-43 123l42 -97zM249 648h-34v-309q14 -1 22 -1.5t18 -0.5q99 0 147 40t48 110q0 57 -26.5 92.5t-71.5 52t-103 16.5zM215 70l116 -62v-8h-297v8l81 57v555l-81 57v8h237q87 0 151.5 -20.5t100.5 -61t36 -99.5q0 -51 -25 -89
t-67.5 -63t-94.5 -38l-8 -2q-27 -6 -55 -9t-57 -3h-18.5h-18.5v-230z" />
    <glyph glyph-name="S" unicode="S" horiz-adv-x="568" 
d="M298 685h174v-195h-12q-19 53 -48.5 87.5t-66 52t-78.5 17.5q-59 0 -87.5 -30.5t-28.5 -73.5q0 -40 21 -67t56.5 -46.5t76.5 -34.5l52 -19q43 -15 79 -40.5t58.5 -62.5t22.5 -89q0 -56 -27 -100t-77.5 -69t-120.5 -25q-43 0 -91.5 10.5t-101.5 35.5l106 -13l-128 -33h-12
v220h12q35 -86 93.5 -134t128.5 -48q53 0 91.5 29.5t38.5 87.5q0 59 -40 91.5t-99 53.5l-52 19q-43 16 -81 39.5t-61.5 59.5t-23.5 90q0 60 28.5 102t79.5 63.5t118 21.5z" />
    <glyph glyph-name="T" unicode="T" horiz-adv-x="616" 
d="M358 65l81 -57v-8h-262v8l81 57v583h-151l46 25l-117 -183h-10v195h564v-195h-10l-117 183l46 -25h-151v-583z" />
    <glyph glyph-name="U" unicode="U" horiz-adv-x="708" 
d="M100 287v333l-81 57v8h262v-8l-81 -57v-350q0 -115 47.5 -170.5t132.5 -55.5q87 0 137 55.5t50 170.5v350l-81 57v8h203v-8l-81 -57v-350q0 -93 -29.5 -155t-86.5 -93.5t-138 -31.5q-121 0 -187.5 74t-66.5 223z" />
    <glyph glyph-name="V" unicode="V" horiz-adv-x="666" 
d="M180 628l196 -510l-17 1l200 537l14 -51l-104 72v8h195v-8l-74 -55l-241 -632h-23l-250 632l-74 55v8h257v-8z" />
    <glyph glyph-name="W" unicode="W" horiz-adv-x="996" 
d="M181 628l156 -510l-17 1l203 509l-35 49v8h97v-8l-34 -97l-15 -26l-226 -564h-23l-210 632l-74 55v8h257v-8zM535 685l210 -567l-25 1l167 538l16 -52l-104 72v8h194v-8l-74 -55l-201 -632h-23l-261 687v8h101z" />
    <glyph glyph-name="X" unicode="X" horiz-adv-x="665" 
d="M565 622l-206 -276l-23 31l182 249l-74 51v8h195v-8zM80 63l217 291l23 -31l-193 -264l74 -51v-8h-195v8zM477 57l-378 565l-74 55v8h261v-8l-79 -49l378 -565l74 -55v-8h-261v8z" />
    <glyph glyph-name="Y" unicode="Y" horiz-adv-x="615" 
d="M352 318v-253l81 -57v-8h-262v8l81 57v244l-176 313l-74 55v8h259v-8l-79 -49l158 -290h-17l188 318l8 -51l-104 72v8h198v-8l-74 -55z" />
    <glyph glyph-name="Z" unicode="Z" horiz-adv-x="615" 
d="M477 37h-343l10 -26l411 650v24h-378l-106 20l-5 -229h10l124 197l-48 -25h308l-9 26l-411 -650v-24h518v215h-10l-116 -204z" />
    <glyph glyph-name="AE" unicode="&#xc6;" horiz-adv-x="971" 
d="M394 0v8l81 57v142h-254l-90 -142l70 -57v-8h-199v8l78 53l359 561l-84 55v8h528v-195h-10l-101 158h-197v-276h268v-37h-268v-298h209l120 158h10l-23 -195h-497zM244 244h231v365z" />
    <glyph glyph-name="OE" unicode="&#x152;" horiz-adv-x="1062" 
d="M158 392q0 -73 17 -138t48 -115t74 -78t95 -28q58 0 96.5 33.5t58 92.5t19.5 134q0 74 -17 138.5t-48 114.5t-74 78t-95 28q-58 0 -96.5 -33.5t-58 -92t-19.5 -134.5zM351 -10q-72 0 -127 27t-92.5 74t-56.5 108t-19 129q0 83 24 150.5t67 116t101.5 74.5t127.5 26
t122.5 -27t89.5 -74t54.5 -108.5t18.5 -129.5q0 -111 -40.5 -193t-110.5 -127.5t-159 -45.5zM566 0v685h408v-195h-10l-117 183l46 -25h-227v-276h268v-37h-268v-298h239l-48 -24l138 182h10l-23 -195h-416z" />
    <glyph glyph-name="Lslash" unicode="&#x141;" horiz-adv-x="577" 
d="M215 620v-583h235l-48 -24l138 182h10l-23 -195h-493v8l81 57v555l-81 57v8h262v-8zM34 315l333 122v-39l-333 -122v39z" />
    <glyph glyph-name="Oslash" unicode="&#xd8;" horiz-adv-x="727" 
d="M618 685h51l-560 -685h-51zM158 392q0 -73 17 -138t48 -115t74 -78t95 -28q58 0 96.5 33.5t58 92.5t19.5 134q0 74 -17 138.5t-48 114.5t-74 78t-95 28q-58 0 -96.5 -33.5t-58 -92t-19.5 -134.5zM351 -10q-72 0 -127 27t-92.5 74t-56.5 108t-19 129q0 111 41.5 193.5
t114 128t164.5 45.5q72 0 127 -27t92.5 -74t56.5 -108.5t19 -129.5q0 -111 -41.5 -193t-114 -127.5t-164.5 -45.5z" />
    <glyph glyph-name="Eth" unicode="&#xd0;" horiz-adv-x="714" 
d="M39 372h357v-37h-357v37zM266 648h-46v-601q17 -4 37 -7t44 -3q115 0 184.5 70t69.5 219q0 101 -34 173t-98.5 110.5t-156.5 38.5zM39 0v8l81 57v555l-81 57v8h251q115 0 198.5 -36.5t129 -108.5t45.5 -180t-45.5 -189t-128 -126t-194.5 -45h-256z" />
    <glyph glyph-name="Thorn" unicode="&#xde;" horiz-adv-x="596" 
d="M215 138v-68l116 -62v-8h-297v8l81 57v555l-81 57v8h297v-8l-116 -62v-62h56q87 0 151.5 -22.5t100.5 -66t36 -107.5q0 -57 -26 -98t-70.5 -68t-99.5 -40t-113 -13h-17.5h-17.5zM249 516h-34v-338q14 -1 21.5 -1.5t16.5 -0.5q100 0 148.5 43t48.5 121q0 62 -27 101
t-72.5 57t-101.5 18z" />
    <glyph glyph-name="uni0191" unicode="&#x191;" horiz-adv-x="555" 
d="M215 12q0 -87 -40.5 -143t-104.5 -94l-7 8q23 32 37.5 78.5t14.5 119.5v639l-81 57v8h475v-195h-10l-117 183l46 -25h-213v-286h254v-37h-254v-313z" />
    <glyph glyph-name="uni1E9E" unicode="&#x1e9e;" horiz-adv-x="692" 
d="M100 65v416q0 97 62.5 150.5t163.5 53.5h234v-6l-181 -300l-26 8q29 14 55 19.5t48 5.5q52 0 96 -23t71.5 -66.5t27.5 -106.5q0 -64 -27.5 -113t-75 -76t-107.5 -27h-157v210h12q17 -51 41.5 -90.5t55 -62t65.5 -22.5q41 0 67 33.5t26 97.5q0 37 -9 73.5t-27.5 67
t-45.5 48.5t-63 18q-19 0 -35.5 -5.5t-28.5 -13.5l-13 13l161 269l-22 -73q-36 52 -78.5 71t-77.5 19q-52 0 -82 -37.5t-30 -120.5v-495h-181v8z" />
    <glyph glyph-name="a" unicode="a" horiz-adv-x="520" 
d="M330 113v152q-69 -18 -109 -36t-56.5 -39.5t-16.5 -52.5q0 -35 17.5 -56.5t50.5 -21.5q25 0 52.5 13t61.5 41zM331 78q-54 -49 -91.5 -68.5t-73.5 -19.5q-49 0 -81 33t-32 87q0 37 16.5 64t50.5 47.5t86.5 38.5t123.5 37v61q0 53 -19 77.5t-55 24.5q-39 0 -83 -31
t-82 -96h-10v157h361v-6l-24 -70v-356l75 -50v-8h-158v78h-4z" />
    <glyph glyph-name="b" unicode="b" horiz-adv-x="576" 
d="M98 609l-58 60v8l148 43v-230v-59h4q32 33 66 51t75 18q57 0 98.5 -32t64 -87t22.5 -126q0 -78 -29 -138t-81.5 -93.5t-121.5 -33.5q-32 0 -64 6.5t-57 16.5l-55 -23h-12v619zM188 390v-301q28 -34 58.5 -48.5t60.5 -14.5q57 0 86.5 47t29.5 126q0 81 -20.5 133.5
t-52.5 78t-69 25.5q-28 0 -52 -13t-41 -33z" />
    <glyph glyph-name="c" unicode="c" horiz-adv-x="480" 
d="M289 490h119v-157h-10q-18 43 -40.5 69t-48 38.5t-52.5 12.5q-53 0 -84 -45.5t-31 -129.5q0 -74 22 -121.5t56.5 -70t73.5 -22.5q43 0 77.5 24t60.5 73l13 -6q-26 -80 -82.5 -122.5t-118.5 -42.5q-58 0 -101.5 31.5t-67 86t-23.5 122.5q0 78 30.5 136.5t84 91t122.5 32.5
z" />
    <glyph glyph-name="d" unicode="d" horiz-adv-x="579" 
d="M388 100v301q-28 34 -58.5 48.5t-60.5 14.5q-57 0 -86.5 -47t-29.5 -126q0 -80 20.5 -133t53 -78.5t68.5 -25.5q28 0 52 13.5t41 32.5zM388 431v178l-58 60v8l148 43v-662l75 -50v-8h-161v63h-4q-32 -34 -67 -53.5t-78 -19.5q-57 0 -98.5 32t-64 87.5t-22.5 125.5
q0 79 29.5 138.5t81.5 93t121 33.5q32 0 64 -6t57 -17z" />
    <glyph glyph-name="e" unicode="e" horiz-adv-x="504" 
d="M305 63q47 0 83 23.5t62 74.5l13 -6q-17 -53 -48.5 -90t-71.5 -56t-86 -19q-58 0 -104.5 30t-73.5 85.5t-27 131.5q0 78 28 137t76.5 92.5t111.5 33.5q85 0 134.5 -60t49.5 -159h-367v37h263q-5 77 -34.5 110t-70.5 33q-49 0 -75.5 -43.5t-26.5 -126.5q0 -78 22.5 -128.5
t60 -75t81.5 -24.5z" />
    <glyph glyph-name="f" unicode="f" horiz-adv-x="371" 
d="M18 453l23 37h330v-8l-23 -37h-330v8zM113 58v472q0 54 15 94.5t51 63t98 22.5h116v-157h-10q-26 63 -66.5 91t-76.5 28q-28 0 -46.5 -17.5t-18.5 -55.5q0 -28 9.5 -57t18.5 -52v-427l110 -55v-8h-275v8z" />
    <glyph glyph-name="g" unicode="g" horiz-adv-x="526" 
d="M206 -225q-73 0 -117.5 27t-44.5 76q0 35 25 67t80 69l2 -28q-36 11 -53.5 26t-23 31.5t-5.5 31.5q0 24 9.5 45t27.5 39t42 32l33 -11q-18 -12 -29.5 -28.5t-11.5 -34.5q0 -16 11.5 -26.5t35.5 -10.5h285q11 -21 16 -40t5 -39q0 -40 -20.5 -80.5t-58.5 -73t-90.5 -52.5
t-117.5 -20zM121 -88q0 -38 29 -62t92 -24q38 0 71.5 8.5t60 24t41.5 38t15 50.5q0 22 -12 43h-261q-20 -18 -28 -39t-8 -39zM309 445v8l-49 37h248v-8l-23 -37h-176zM347 310q0 41 -13 74t-36.5 52.5t-55.5 19.5q-34 0 -57.5 -26.5t-23.5 -82.5q0 -41 13 -74t37 -52.5
t55 -19.5q35 0 58 26.5t23 82.5zM248 169q-61 0 -100.5 21.5t-59 56.5t-19.5 76q0 43 20.5 81t63 62t107.5 24q62 0 101.5 -21.5t58.5 -56.5t19 -76q0 -42 -20 -80.5t-62.5 -62.5t-108.5 -24zM370 427v27h28v-27h-28z" />
    <glyph glyph-name="h" unicode="h" horiz-adv-x="597" 
d="M191 58l75 -50v-8h-240v8l75 50v551l-58 60v8l148 43v-230v-75h5q46 44 87.5 64.5t84.5 20.5q65 0 99.5 -41.5t34.5 -118.5v-282l75 -50v-8h-240v8l75 50v260q0 59 -21.5 86.5t-67.5 27.5q-34 0 -67.5 -15t-64.5 -44v-315z" />
    <glyph glyph-name="i" unicode="i" horiz-adv-x="296" 
d="M195 500v-442l75 -50v-8h-240v8l75 50v331l-58 60v8zM77 639l73 79l73 -79l-73 -79z" />
    <glyph glyph-name="j" unicode="j" horiz-adv-x="294" 
d="M106 -57v446l-58 60v8l148 43v-520q0 -47 -13 -81t-39.5 -63t-67.5 -61l-9 9q21 35 30 71t9 88zM78 639l73 79l73 -79l-73 -79z" />
    <glyph glyph-name="k" unicode="k" horiz-adv-x="550" 
d="M249 271l62 60l151 -257l88 -66v-8h-161l-17 48zM191 720v-662l75 -50v-8h-240v8l75 50v551l-58 60v8zM386 433l-71 49v8h215v-8l-96 -55l-261 -255l1 53z" />
    <glyph glyph-name="l" unicode="l" horiz-adv-x="296" 
d="M195 720v-662l75 -50v-8h-240v8l75 50v551l-58 60v8zM105 493l60 -40l-60 -51l-58 47v8z" />
    <glyph glyph-name="m" unicode="m" horiz-adv-x="884" 
d="M195 58l75 -50v-8h-240v8l75 50v331l-58 60v8l144 43v-90h4q47 47 87.5 68.5t82.5 21.5q62 0 94.5 -41.5t32.5 -118.5v-282l75 -50v-8h-240v8l75 50v260q0 59 -20 86.5t-62 27.5q-32 0 -63.5 -15.5t-61.5 -43.5v-315zM488 370l-12 38h12q49 50 91 71t83 21
q62 0 94.5 -41.5t32.5 -118.5v-282l75 -50v-8h-240v8l75 50v260q0 59 -20 86.5t-62 27.5q-32 0 -64 -15.5t-65 -46.5z" />
    <glyph glyph-name="n" unicode="n" horiz-adv-x="601" 
d="M195 58l75 -50v-8h-240v8l75 50v331l-58 60v8l144 43v-90h4q47 47 90 68.5t87 21.5q65 0 99.5 -41.5t34.5 -118.5v-282l75 -50v-8h-240v8l75 50v260q0 59 -21.5 86.5t-67.5 27.5q-34 0 -67.5 -15t-64.5 -44v-315z" />
    <glyph glyph-name="o" unicode="o" horiz-adv-x="547" 
d="M400 193q0 54 -10.5 102t-30 85.5t-47 59t-62.5 21.5q-42 0 -72.5 -37t-30.5 -127q0 -54 10.5 -102t30 -85.5t47 -59t62.5 -21.5q42 0 72.5 37t30.5 127zM495 255q0 -80 -30 -139.5t-82 -92.5t-119 -33q-69 0 -116 33.5t-71.5 89.5t-24.5 122q0 80 30 139.5t82.5 92.5
t118.5 33q69 0 116.5 -33.5t71.5 -89.5t24 -122z" />
    <glyph glyph-name="p" unicode="p" horiz-adv-x="583" 
d="M195 390v-301q28 -34 58.5 -48.5t60.5 -14.5q57 0 86.5 47t29.5 126q0 81 -20.5 133.5t-52.5 78t-69 25.5q-28 0 -52 -13t-41 -33zM105 -157v546l-58 60v8l144 43v-73h4q32 35 67 54t78 19q57 0 98.5 -32t64 -87t22.5 -126q0 -78 -29 -138t-81.5 -93.5t-121.5 -33.5
q-32 0 -64 6.5t-57 16.5l23 46v-211l110 -55v-8h-275v8z" />
    <glyph glyph-name="q" unicode="q" horiz-adv-x="576" 
d="M388 100v301q-28 34 -58.5 48.5t-60.5 14.5q-57 0 -86.5 -47t-29.5 -126q0 -80 20.5 -133t53 -78.5t68.5 -25.5q28 0 52 13.5t41 32.5zM388 -152v152v59h-4q-31 -33 -65.5 -51t-75.5 -18q-57 0 -98.5 32t-64 87.5t-22.5 125.5q0 79 29.5 138.5t81.5 93t121 33.5
q32 0 64 -6t57 -17l55 23h12v-657l75 -50v-8h-275v8z" />
    <glyph glyph-name="r" unicode="r" horiz-adv-x="400" 
d="M192 379q34 50 84 85.5t108 35.5l-5 -97q-71 0 -111 -12.5t-73 -43.5v-284l110 -55v-8h-275v8l75 50v331l-58 60v8l141 43v-121h4z" />
    <glyph glyph-name="s" unicode="s" horiz-adv-x="463" 
d="M79 23l76 -11l-82 -22v178h10q15 -39 42.5 -71.5t62 -52t69.5 -19.5q34 0 58.5 18.5t24.5 52.5q0 35 -24 60.5t-75 40.5l-50 15q-30 9 -57 26t-44 45t-17 70q0 60 41 98.5t125 38.5h141v-157h-10q-38 71 -76.5 97.5t-75.5 26.5q-34 0 -55 -19t-21 -51q0 -31 23 -53
t67 -36l50 -15q33 -10 62.5 -25.5t48.5 -43.5t19 -75q0 -50 -23.5 -83t-63 -49.5t-87.5 -16.5q-40 0 -81.5 10t-77.5 23z" />
    <glyph glyph-name="t" unicode="t" horiz-adv-x="402" 
d="M196 661v-501q0 -53 18 -79t55 -26q28 0 53 16t48 50l14 -8q-28 -61 -72.5 -92t-92.5 -31q-50 0 -81.5 34.5t-31.5 103.5v479l80 54h10zM11 445v8l23 37h330v-8l-23 -37h-330z" />
    <glyph glyph-name="u" unicode="u" horiz-adv-x="585" 
d="M484 500v-442l75 -50v-8h-161v80h-4q-46 -46 -87 -68t-83 -22q-61 0 -94 42t-33 118v239l-58 60v8l148 43v-328q0 -59 20 -86.5t62 -27.5q32 0 63.5 15.5t61.5 43.5v272l-78 60v8z" />
    <glyph glyph-name="v" unicode="v" horiz-adv-x="519" 
d="M451 427l-174 -437h-24l-185 437l-66 55v8h231v-8l-71 -49l143 -346h-28l134 346l-71 49v8h177v-8z" />
    <glyph glyph-name="w" unicode="w" horiz-adv-x="769" 
d="M252 85l151 346l-26 51v8h91v-8l-36 -82l-5 -11l-178 -399h-24l-155 437l-66 55v8h232v-8l-71 -49l113 -346zM699 427l-134 -437h-24l-215 492v8h121v-8l-3 -49v0l146 -346h-33l102 346l-71 49v8h177v-8z" />
    <glyph glyph-name="x" unicode="x" horiz-adv-x="530" 
d="M454 63l66 -55v-8h-228v8l61 49l-268 370l-66 55v8h231v-8l-61 -49zM296 249l-31 18l147 190l5 -43l-84 68v8h172v-8l-89 -74l42 42zM228 252l22 -29l-147 -190l-5 43l84 -68v-8h-172v8l89 74l-42 -42z" />
    <glyph glyph-name="y" unicode="y" horiz-adv-x="519" 
d="M254 56l-1 -66l-185 437l-66 55v8h231v-8l-71 -49l143 -346h-28l134 346l-71 49v8h177v-8l-66 -55l-235 -589l-20 38l104 -83v-8h-217v8l111 79l-36 -45z" />
    <glyph glyph-name="z" unicode="z" horiz-adv-x="492" 
d="M60 333l11 175l85 -18h277v-24l-291 -462l-14 31h249l-49 -26l98 172h10v-181h-386v24l291 462l12 -31h-224l56 31l-115 -153h-10z" />
    <glyph glyph-name="ae" unicode="&#xe6;" horiz-adv-x="767" 
d="M330 113v152q-69 -18 -109 -36t-56.5 -39.5t-16.5 -52.5q0 -35 17.5 -56.5t50.5 -21.5q25 0 52.5 13t61.5 41zM364 103q-61 -58 -107.5 -85.5t-90.5 -27.5q-49 0 -81 33t-32 87q0 37 16.5 64t50.5 47.5t86.5 38.5t123.5 37v61q0 53 -19 77.5t-55 24.5q-39 0 -83 -31
t-82 -96h-10v157h401v-6l-78 -70v-287l-36 -17zM568 63q47 0 83 23.5t62 74.5l13 -6q-17 -53 -48.5 -90t-71.5 -56t-86 -19q-53 0 -96 30t-68 85.5t-25 131.5q0 78 25.5 137t71 92.5t103.5 33.5q85 0 134.5 -60t49.5 -159h-367v37h263q-5 77 -34.5 110t-70.5 33
q-49 0 -75.5 -43.5t-26.5 -126.5q0 -78 22.5 -128.5t60 -75t81.5 -24.5z" />
    <glyph glyph-name="oe" unicode="&#x153;" horiz-adv-x="848" 
d="M400 193q0 54 -10.5 102t-30 85.5t-47 59t-62.5 21.5q-42 0 -72.5 -37t-30.5 -127q0 -54 10.5 -102t30 -85.5t47 -59t62.5 -21.5q42 0 72.5 37t30.5 127zM485 255q0 -80 -29 -139.5t-78.5 -92.5t-113.5 -33q-69 0 -116 33.5t-71.5 89.5t-24.5 122q0 80 30 139.5
t82.5 92.5t118.5 33t111 -33.5t68 -89.5t23 -122zM649 63q47 0 83 23.5t62 74.5l13 -6q-17 -53 -48.5 -90t-71.5 -56t-86 -19q-55 0 -99 30t-70 85.5t-26 131.5q0 78 26.5 137t73 92.5t106.5 33.5q85 0 134.5 -60t49.5 -159h-367v37h263q-5 77 -34.5 110t-70.5 33
q-49 0 -75.5 -43.5t-26.5 -126.5q0 -78 22.5 -128.5t60 -75t81.5 -24.5z" />
    <glyph glyph-name="lslash" unicode="&#x142;" horiz-adv-x="300" 
d="M285 397l-259 -109v38l259 109v-38zM199 720v-662l75 -50v-8h-240v8l75 50v551l-58 60v8z" />
    <glyph glyph-name="oslash" unicode="&#xf8;" horiz-adv-x="547" 
d="M447 490h48l-395 -490h-48zM400 193q0 54 -10.5 102t-30 85.5t-47 59t-62.5 21.5q-42 0 -72.5 -37t-30.5 -127q0 -54 10.5 -102t30 -85.5t47 -59t62.5 -21.5q42 0 72.5 37t30.5 127zM495 255q0 -80 -30 -139.5t-82 -92.5t-119 -33q-69 0 -116 33.5t-71.5 89.5t-24.5 122
q0 80 30 139.5t82.5 92.5t118.5 33q69 0 116.5 -33.5t71.5 -89.5t24 -122z" />
    <glyph glyph-name="eth" unicode="&#xf0;" horiz-adv-x="547" 
d="M99 565l315 145l13 -33l-315 -145zM400 193q0 54 -10.5 102t-30 85.5t-47 59t-62.5 21.5q-42 0 -72.5 -37t-30.5 -127q0 -54 10.5 -102t30 -85.5t47 -59t62.5 -21.5q42 0 72.5 37t30.5 127zM368 483l-20 -36q-23 57 -49.5 99.5t-65.5 78.5t-98 73l13 22
q105 -48 183 -117.5t121 -156.5t43 -191q0 -80 -30 -139.5t-82 -92.5t-119 -33q-69 0 -116 33.5t-71.5 89.5t-24.5 122q0 80 30 139.5t82.5 92.5t118.5 33q46 0 85 -17z" />
    <glyph glyph-name="thorn" unicode="&#xfe;" horiz-adv-x="576" 
d="M188 490v-59h4q32 33 66 51t75 18q57 0 98.5 -32t64 -87t22.5 -126q0 -78 -29 -138t-81.5 -93.5t-121.5 -33.5q-25 0 -50.5 4t-47.5 11v-157l110 -55v-8h-275v8l75 50v766l-58 60v8l148 43v-230zM188 390v-301q28 -34 58.5 -48.5t60.5 -14.5q57 0 86.5 47t29.5 126
q0 81 -20.5 133.5t-52.5 78t-69 25.5q-28 0 -52 -13t-41 -33z" />
    <glyph glyph-name="uni0192" unicode="&#x192;" horiz-adv-x="371" 
d="M41 490h330v-8l-23 -37h-330v8zM203 -20q0 -47 -13 -81t-39.5 -63t-67.5 -61l-9 9q21 35 30 71t9 88v587q0 54 15 94.5t51 63t98 22.5h116v-157h-10q-26 63 -66.5 91t-76.5 28q-28 0 -46.5 -17.5t-18.5 -55.5q0 -28 9.5 -57t18.5 -52v-510z" />
    <glyph glyph-name="germandbls" unicode="&#xdf;" horiz-adv-x="605" 
d="M113 500q0 61 22 111t64.5 79.5t103.5 29.5q48 0 83.5 -20t55.5 -53.5t20 -76.5q0 -47 -27.5 -91t-91.5 -91q-4 9 -0.5 17t10.5 22q81 -43 129.5 -87t70.5 -88t22 -87q0 -45 -21.5 -82.5t-63 -60t-103.5 -22.5h-101v168h10q9 -30 27 -61t44 -51.5t59 -20.5
q32 0 50.5 21.5t18.5 59.5q0 48 -28 94.5t-75 85t-105 61.5v5q45 41 68.5 82.5t23.5 92.5q0 45 -16.5 77t-42.5 49t-55 17q-35 0 -57.5 -24.5t-22.5 -65.5q0 -17 4 -40.5t14 -58.5v-491h-165v8l75 50v442zM18 445v8l23 37h153v-8l-23 -37h-153z" />
    <glyph glyph-name="dotlessi" unicode="&#x131;" horiz-adv-x="296" 
d="M195 500v-442l75 -50v-8h-240v8l75 50v331l-58 60v8z" />
    <glyph glyph-name="dotlessj" unicode="&#x237;" horiz-adv-x="294" 
d="M106 -57v446l-58 60v8l148 43v-520q0 -47 -13 -81t-39.5 -63t-67.5 -61l-9 9q21 35 30 71t9 88z" />
    <glyph glyph-name="st" horiz-adv-x="865" 
d="M639 586l-54 22q-61 25 -110 35t-86 10q-62 0 -96.5 -23.5t-47.5 -58.5t-13 -70q0 -6 0.5 -11.5t1.5 -10.5l-31 -4q-4 17 -4 40q0 59 25 105t74.5 73t122.5 27q43 0 88 -8.5t94 -28.5l56 -22zM659 661v-501q0 -53 18 -79t55 -26q28 0 53 16t48 50l14 -8
q-28 -61 -72.5 -92t-92.5 -31q-50 0 -81.5 34.5t-31.5 103.5v489l80 44h10zM474 445v8l23 37h330v-8l-23 -37h-330zM79 23l76 -11l-82 -22v178h10q15 -39 42.5 -71.5t62 -52t69.5 -19.5q34 0 58.5 18.5t24.5 52.5q0 35 -24 60.5t-75 40.5l-50 15q-30 9 -57 26t-44 45t-17 70
q0 60 41 98.5t125 38.5h141v-157h-10q-38 71 -76.5 97.5t-75.5 26.5q-34 0 -55 -19t-21 -51q0 -31 23 -53t67 -36l50 -15q33 -10 62.5 -25.5t48.5 -43.5t19 -75q0 -50 -23.5 -83t-63 -49.5t-87.5 -16.5q-40 0 -81.5 10t-77.5 23z" />
    <glyph glyph-name="ct" horiz-adv-x="882" 
d="M656 586l-54 22q-61 25 -110 35t-86 10q-62 0 -96.5 -23.5t-47.5 -58.5t-13 -70q0 -6 0.5 -11.5t1.5 -10.5l-31 -4q-4 17 -4 40q0 59 25 105t74.5 73t122.5 27q43 0 88 -8.5t94 -28.5l56 -22zM676 661v-501q0 -53 18 -79t55 -26q28 0 53 16t48 50l14 -8
q-28 -61 -72.5 -92t-92.5 -31q-50 0 -81.5 34.5t-31.5 103.5v489l80 44h10zM491 445v8l23 37h330v-8l-23 -37h-330zM289 490h119v-157h-10q-18 43 -40.5 69t-48 38.5t-52.5 12.5q-53 0 -84 -45.5t-31 -129.5q0 -74 22 -121.5t56.5 -70t73.5 -22.5q43 0 77.5 24t60.5 73
l13 -6q-26 -80 -82.5 -122.5t-118.5 -42.5q-58 0 -101.5 31.5t-67 86t-23.5 122.5q0 78 30.5 136.5t84 91t122.5 32.5z" />
    <glyph glyph-name="Aacute" unicode="&#xc1;" horiz-adv-x="678" 
d="M161 244h331v-37h-331v37zM509 29l-213 538l14 -1l-203 -537l-14 56l104 -77v-8h-195v8l74 55l247 632h23l256 -632l74 -55v-8h-257v8l104 70zM385 905h126l-164 -158h-15z" />
    <glyph glyph-name="Acircumflex" unicode="&#xc2;" horiz-adv-x="678" 
d="M161 244h331v-37h-331v37zM509 29l-213 538l14 -1l-203 -537l-14 56l104 -77v-8h-195v8l74 55l247 632h23l256 -632l74 -55v-8h-257v8l104 70zM276 905h126l73 -158h-15l-144 131h44l-142 -131h-15z" />
    <glyph glyph-name="Adieresis" unicode="&#xc4;" horiz-adv-x="678" 
d="M161 244h331v-37h-331v37zM509 29l-213 538l14 -1l-203 -537l-14 56l104 -77v-8h-195v8l74 55l247 632h23l256 -632l74 -55v-8h-257v8l104 70zM180 834l69 75l69 -75l-69 -75zM360 834l69 75l69 -75l-69 -75z" />
    <glyph glyph-name="Agrave" unicode="&#xc0;" horiz-adv-x="678" 
d="M161 244h331v-37h-331v37zM509 29l-213 538l14 -1l-203 -537l-14 56l104 -77v-8h-195v8l74 55l247 632h23l256 -632l74 -55v-8h-257v8l104 70zM288 905l53 -158h-15l-164 158h126z" />
    <glyph glyph-name="Aring" unicode="&#xc5;" horiz-adv-x="678" 
d="M161 244h331v-37h-331v37zM509 29l-213 538l14 -1l-203 -537l-14 56l104 -77v-8h-195v8l74 55l247 632h23l256 -632l74 -55v-8h-257v8l104 70zM339 936q43 0 70.5 -28t27.5 -69t-27.5 -69t-70.5 -28t-70.5 28t-27.5 69t27.5 69t70.5 28zM339 902q-25 0 -42.5 -18
t-17.5 -45t17.5 -45t42.5 -18q26 0 43 18t17 45t-17 45t-43 18z" />
    <glyph glyph-name="Atilde" unicode="&#xc3;" horiz-adv-x="678" 
d="M161 244h331v-37h-331v37zM509 29l-213 538l14 -1l-203 -537l-14 56l104 -77v-8h-195v8l74 55l247 632h23l256 -632l74 -55v-8h-257v8l104 70zM201 769q5 60 26.5 88t52.5 28q24 0 48 -12t47 -24t43 -12q17 0 27.5 11t18.5 35h13q-5 -60 -26.5 -88t-52.5 -28
q-23 0 -47.5 12t-47.5 24t-43 12q-17 0 -27.5 -11t-18.5 -35h-13z" />
    <glyph glyph-name="Abreve" unicode="&#x102;" horiz-adv-x="678" 
d="M161 244h331v-37h-331v37zM509 29l-213 538l14 -1l-203 -537l-14 56l104 -77v-8h-195v8l74 55l247 632h23l256 -632l74 -55v-8h-257v8l104 70zM339 742q-62 0 -95.5 47.5t-37.5 115.5h16q11 -43 42.5 -68.5t74.5 -25.5q44 0 75.5 25.5t41.5 68.5h16q-4 -68 -37.5 -115.5
t-95.5 -47.5z" />
    <glyph glyph-name="Amacron" unicode="&#x100;" horiz-adv-x="678" 
d="M161 244h331v-37h-331v37zM509 29l-213 538l14 -1l-203 -537l-14 56l104 -77v-8h-195v8l74 55l247 632h23l256 -632l74 -55v-8h-257v8l104 70zM198 840h282v-50h-282v50z" />
    <glyph glyph-name="Aogonek" unicode="&#x104;" horiz-adv-x="678" 
d="M161 244h331v-37h-331v37zM509 29l-213 538l14 -1l-203 -537l-14 56l104 -77v-8h-195v8l74 55l247 632h23l256 -632l74 -55v-8h-257v8l104 70zM676 0q-73 -10 -108 -44t-35 -71q0 -25 14 -39t37 -14q26 0 46.5 16t34.5 41l11 -5q-9 -27 -28 -52t-45 -41t-59 -16
q-38 0 -63 23t-25 59q0 33 23 65.5t67 56.5t107 33l14 2z" />
    <glyph glyph-name="Ccedilla" unicode="&#xc7;" horiz-adv-x="620" 
d="M382 685h163v-195h-12q-33 77 -86 112t-112 35q-85 0 -135.5 -66.5t-50.5 -189.5q0 -94 29.5 -165.5t80 -111t113.5 -39.5q67 0 117 43.5t86 108.5l14 -7q-22 -67 -60.5 -116.5t-89.5 -76.5t-113 -27q-81 0 -142 45t-95 121t-34 170q0 102 40.5 183t114.5 128.5t172 47.5
zM283 -79l14 40q50 -9 81 -36.5t31 -62.5t-34.5 -56t-98.5 -21h-34l-30 88l8 5q26 -33 51 -49.5t47 -16.5q30 0 30 25q0 18 -20.5 38t-73.5 30l-4 8l43 87h30z" />
    <glyph glyph-name="Cacute" unicode="&#x106;" horiz-adv-x="620" 
d="M382 685h163v-195h-12q-33 77 -86 112t-112 35q-85 0 -135.5 -66.5t-50.5 -189.5q0 -94 29.5 -165.5t80 -111t113.5 -39.5q67 0 117 43.5t86 108.5l14 -7q-22 -67 -60.5 -116.5t-89.5 -76.5t-113 -27q-81 0 -142 45t-95 121t-34 170q0 102 40.5 183t114.5 128.5t172 47.5
zM398 905h126l-164 -158h-15z" />
    <glyph glyph-name="Ccaron" unicode="&#x10c;" horiz-adv-x="620" 
d="M382 685h163v-195h-12q-33 77 -86 112t-112 35q-85 0 -135.5 -66.5t-50.5 -189.5q0 -94 29.5 -165.5t80 -111t113.5 -39.5q67 0 117 43.5t86 108.5l14 -7q-22 -67 -60.5 -116.5t-89.5 -76.5t-113 -27q-81 0 -142 45t-95 121t-34 170q0 102 40.5 183t114.5 128.5t172 47.5
zM415 747h-126l-73 158h15l144 -131h-44l142 131h15z" />
    <glyph glyph-name="Ccircumflex" unicode="&#x108;" horiz-adv-x="620" 
d="M382 685h163v-195h-12q-33 77 -86 112t-112 35q-85 0 -135.5 -66.5t-50.5 -189.5q0 -94 29.5 -165.5t80 -111t113.5 -39.5q67 0 117 43.5t86 108.5l14 -7q-22 -67 -60.5 -116.5t-89.5 -76.5t-113 -27q-81 0 -142 45t-95 121t-34 170q0 102 40.5 183t114.5 128.5t172 47.5
zM289 905h126l73 -158h-15l-144 131h44l-142 -131h-15z" />
    <glyph glyph-name="Cdotaccent" unicode="&#x10a;" horiz-adv-x="620" 
d="M382 685h163v-195h-12q-33 77 -86 112t-112 35q-85 0 -135.5 -66.5t-50.5 -189.5q0 -94 29.5 -165.5t80 -111t113.5 -39.5q67 0 117 43.5t86 108.5l14 -7q-22 -67 -60.5 -116.5t-89.5 -76.5t-113 -27q-81 0 -142 45t-95 121t-34 170q0 102 40.5 183t114.5 128.5t172 47.5
zM279 834l73 79l73 -79l-73 -79z" />
    <glyph glyph-name="Dcaron" unicode="&#x10e;" horiz-adv-x="709" 
d="M261 648h-46v-601q17 -4 37 -7t44 -3q115 0 184.5 70t69.5 219q0 101 -34 173t-98.5 110.5t-156.5 38.5zM34 0v8l81 57v555l-81 57v8h251q115 0 198.5 -36.5t129 -108.5t45.5 -180t-45.5 -189t-128 -126t-194.5 -45h-256zM406 747h-126l-73 158h15l144 -131h-44l142 131
h15z" />
    <glyph glyph-name="Dcroat" unicode="&#x110;" horiz-adv-x="714" 
d="M39 372h357v-37h-357v37zM266 648h-46v-601q17 -4 37 -7t44 -3q115 0 184.5 70t69.5 219q0 101 -34 173t-98.5 110.5t-156.5 38.5zM39 0v8l81 57v555l-81 57v8h251q115 0 198.5 -36.5t129 -108.5t45.5 -180t-45.5 -189t-128 -126t-194.5 -45h-256z" />
    <glyph glyph-name="Eacute" unicode="&#xc9;" horiz-adv-x="611" 
d="M34 0v8l81 57v555l-81 57v8h489v-195h-10l-117 183l46 -25h-227v-276h268v-37h-268v-298h239l-48 -24l138 182h10l-23 -195h-497zM362 905h126l-164 -158h-15z" />
    <glyph glyph-name="Ecircumflex" unicode="&#xca;" horiz-adv-x="611" 
d="M34 0v8l81 57v555l-81 57v8h489v-195h-10l-117 183l46 -25h-227v-276h268v-37h-268v-298h239l-48 -24l138 182h10l-23 -195h-497zM253 905h126l73 -158h-15l-144 131h44l-142 -131h-15z" />
    <glyph glyph-name="Edieresis" unicode="&#xcb;" horiz-adv-x="611" 
d="M34 0v8l81 57v555l-81 57v8h489v-195h-10l-117 183l46 -25h-227v-276h268v-37h-268v-298h239l-48 -24l138 182h10l-23 -195h-497zM157 834l69 75l69 -75l-69 -75zM337 834l69 75l69 -75l-69 -75z" />
    <glyph glyph-name="Egrave" unicode="&#xc8;" horiz-adv-x="611" 
d="M34 0v8l81 57v555l-81 57v8h489v-195h-10l-117 183l46 -25h-227v-276h268v-37h-268v-298h239l-48 -24l138 182h10l-23 -195h-497zM271 905l53 -158h-15l-164 158h126z" />
    <glyph glyph-name="Ebreve" unicode="&#x114;" horiz-adv-x="611" 
d="M34 0v8l81 57v555l-81 57v8h489v-195h-10l-117 183l46 -25h-227v-276h268v-37h-268v-298h239l-48 -24l138 182h10l-23 -195h-497zM316 742q-62 0 -95.5 47.5t-37.5 115.5h16q11 -43 42.5 -68.5t74.5 -25.5q44 0 75.5 25.5t41.5 68.5h16q-4 -68 -37.5 -115.5t-95.5 -47.5z
" />
    <glyph glyph-name="Ecaron" unicode="&#x11a;" horiz-adv-x="611" 
d="M34 0v8l81 57v555l-81 57v8h489v-195h-10l-117 183l46 -25h-227v-276h268v-37h-268v-298h239l-48 -24l138 182h10l-23 -195h-497zM379 747h-126l-73 158h15l144 -131h-44l142 131h15z" />
    <glyph glyph-name="Edotaccent" unicode="&#x116;" horiz-adv-x="611" 
d="M34 0v8l81 57v555l-81 57v8h489v-195h-10l-117 183l46 -25h-227v-276h268v-37h-268v-298h239l-48 -24l138 182h10l-23 -195h-497zM243 834l73 79l73 -79l-73 -79z" />
    <glyph glyph-name="Emacron" unicode="&#x112;" horiz-adv-x="611" 
d="M34 0v8l81 57v555l-81 57v8h489v-195h-10l-117 183l46 -25h-227v-276h268v-37h-268v-298h239l-48 -24l138 182h10l-23 -195h-497zM175 840h282v-50h-282v50z" />
    <glyph glyph-name="Eogonek" unicode="&#x118;" horiz-adv-x="611" 
d="M34 0v8l81 57v555l-81 57v8h489v-195h-10l-117 183l46 -25h-227v-276h268v-37h-268v-298h239l-48 -24l138 182h10l-23 -195h-497zM531 0q-73 -10 -108 -44t-35 -71q0 -25 14 -39t37 -14q26 0 46.5 16t34.5 41l11 -5q-9 -27 -28 -52t-45 -41t-59 -16q-38 0 -63 23t-25 59
q0 33 23 65.5t67 56.5t107 33l14 2z" />
    <glyph glyph-name="Schwa" unicode="&#x18f;" horiz-adv-x="692" 
d="M317 613q-62 0 -114 -31.5t-86 -96.5l-18 10q23 66 63 110.5t90.5 67t106.5 22.5q59 0 109 -22.5t88 -65.5t59 -104t21 -137q0 -83 -23 -152t-64.5 -119.5t-98.5 -78t-125 -27.5q-83 0 -143.5 37.5t-93 105.5t-32.5 159h532v-42h-406q5 -78 29.5 -125.5t63 -69.5
t83.5 -22q86 0 130 66t44 194q0 84 -15.5 145t-44.5 100t-68.5 57.5t-86.5 18.5z" />
    <glyph glyph-name="Gbreve" unicode="&#x11e;" horiz-adv-x="694" 
d="M383 685h163v-195h-12q-33 77 -86 112t-112 35q-85 0 -135.5 -66.5t-50.5 -189.5q0 -94 29.5 -165.5t80 -111t113.5 -39.5q45 0 81.5 22.5t67 60t54.5 80.5l8 -18q-34 -100 -100.5 -160t-158.5 -60q-79 0 -140 45t-95 121t-34 170q0 102 40.5 183t114.5 128.5t172 47.5z
M496 271l-116 62v8h297v-8l-81 -57v-276h-12l-88 97v174zM379 742q-62 0 -95.5 47.5t-37.5 115.5h16q11 -43 42.5 -68.5t74.5 -25.5q44 0 75.5 25.5t41.5 68.5h16q-4 -68 -37.5 -115.5t-95.5 -47.5z" />
    <glyph glyph-name="Gcircumflex" unicode="&#x11c;" horiz-adv-x="694" 
d="M383 685h163v-195h-12q-33 77 -86 112t-112 35q-85 0 -135.5 -66.5t-50.5 -189.5q0 -94 29.5 -165.5t80 -111t113.5 -39.5q45 0 81.5 22.5t67 60t54.5 80.5l8 -18q-34 -100 -100.5 -160t-158.5 -60q-79 0 -140 45t-95 121t-34 170q0 102 40.5 183t114.5 128.5t172 47.5z
M496 271l-116 62v8h297v-8l-81 -57v-276h-12l-88 97v174zM316 905h126l73 -158h-15l-144 131h44l-142 -131h-15z" />
    <glyph glyph-name="Gcommaaccent" unicode="&#x122;" horiz-adv-x="694" 
d="M383 685h163v-195h-12q-33 77 -86 112t-112 35q-85 0 -135.5 -66.5t-50.5 -189.5q0 -94 29.5 -165.5t80 -111t113.5 -39.5q45 0 81.5 22.5t67 60t54.5 80.5l8 -18q-34 -100 -100.5 -160t-158.5 -60q-79 0 -140 45t-95 121t-34 170q0 102 40.5 183t114.5 128.5t172 47.5z
M496 271l-116 62v8h297v-8l-81 -57v-276h-12l-88 97v174zM286 -117l45 71q38 -19 57 -42t19 -52q0 -15 -7.5 -33.5t-30 -36.5t-67.5 -34l-6 14q26 12 38 25.5t12 27.5q0 20 -30 40z" />
    <glyph glyph-name="Gdotaccent" unicode="&#x120;" horiz-adv-x="694" 
d="M383 685h163v-195h-12q-33 77 -86 112t-112 35q-85 0 -135.5 -66.5t-50.5 -189.5q0 -94 29.5 -165.5t80 -111t113.5 -39.5q45 0 81.5 22.5t67 60t54.5 80.5l8 -18q-34 -100 -100.5 -160t-158.5 -60q-79 0 -140 45t-95 121t-34 170q0 102 40.5 183t114.5 128.5t172 47.5z
M496 271l-116 62v8h297v-8l-81 -57v-276h-12l-88 97v174zM306 834l73 79l73 -79l-73 -79z" />
    <glyph glyph-name="Hbar" unicode="&#x126;" horiz-adv-x="758" 
d="M34 522h690v-37h-690v37zM148 371h438v-37h-438v37zM115 620l-81 57v8h262v-8l-81 -57v-555l81 -57v-8h-262v8l81 57v555zM543 620l-81 57v8h262v-8l-81 -57v-555l81 -57v-8h-262v8l81 57v555z" />
    <glyph glyph-name="Hcircumflex" unicode="&#x124;" horiz-adv-x="758" 
d="M148 371h438v-37h-438v37zM115 620l-81 57v8h262v-8l-81 -57v-555l81 -57v-8h-262v8l81 57v555zM543 620l-81 57v8h262v-8l-81 -57v-555l81 -57v-8h-262v8l81 57v555zM316 905h126l73 -158h-15l-144 131h44l-142 -131h-15z" />
    <glyph glyph-name="Iacute" unicode="&#xcd;" horiz-adv-x="330" 
d="M115 620l-81 57v8h262v-8l-81 -57v-555l81 -57v-8h-262v8l81 57v555zM211 905h126l-164 -158h-15z" />
    <glyph glyph-name="Icircumflex" unicode="&#xce;" horiz-adv-x="330" 
d="M115 620l-81 57v8h262v-8l-81 -57v-555l81 -57v-8h-262v8l81 57v555zM102 905h126l73 -158h-15l-144 131h44l-142 -131h-15z" />
    <glyph glyph-name="Idieresis" unicode="&#xcf;" horiz-adv-x="330" 
d="M115 620l-81 57v8h262v-8l-81 -57v-555l81 -57v-8h-262v8l81 57v555zM6 834l69 75l69 -75l-69 -75zM186 834l69 75l69 -75l-69 -75z" />
    <glyph glyph-name="Igrave" unicode="&#xcc;" horiz-adv-x="330" 
d="M115 620l-81 57v8h262v-8l-81 -57v-555l81 -57v-8h-262v8l81 57v555zM120 905l53 -158h-15l-164 158h126z" />
    <glyph glyph-name="Ibreve" unicode="&#x12c;" horiz-adv-x="330" 
d="M115 620l-81 57v8h262v-8l-81 -57v-555l81 -57v-8h-262v8l81 57v555zM165 742q-62 0 -95.5 47.5t-37.5 115.5h16q11 -43 42.5 -68.5t74.5 -25.5q44 0 75.5 25.5t41.5 68.5h16q-4 -68 -37.5 -115.5t-95.5 -47.5z" />
    <glyph glyph-name="Idotaccent" unicode="&#x130;" horiz-adv-x="330" 
d="M115 620l-81 57v8h262v-8l-81 -57v-555l81 -57v-8h-262v8l81 57v555zM92 834l73 79l73 -79l-73 -79z" />
    <glyph glyph-name="Imacron" unicode="&#x12a;" horiz-adv-x="330" 
d="M115 620l-81 57v8h262v-8l-81 -57v-555l81 -57v-8h-262v8l81 57v555zM24 840h282v-50h-282v50z" />
    <glyph glyph-name="Iogonek" unicode="&#x12e;" horiz-adv-x="330" 
d="M115 620l-81 57v8h262v-8l-81 -57v-555l81 -57v-8h-262v8l81 57v555zM275 0q-73 -10 -108 -44t-35 -71q0 -25 14 -39t37 -14q26 0 46.5 16t34.5 41l11 -5q-9 -27 -28 -52t-45 -41t-59 -16q-38 0 -63 23t-25 59q0 33 23 65.5t67 56.5t107 33l14 2z" />
    <glyph glyph-name="Itilde" unicode="&#x128;" horiz-adv-x="330" 
d="M115 620l-81 57v8h262v-8l-81 -57v-555l81 -57v-8h-262v8l81 57v555zM27 769q5 60 26.5 88t52.5 28q24 0 48 -12t47 -24t43 -12q17 0 27.5 11t18.5 35h13q-5 -60 -26.5 -88t-52.5 -28q-23 0 -47.5 12t-47.5 24t-43 12q-17 0 -27.5 -11t-18.5 -35h-13z" />
    <glyph glyph-name="Jcircumflex" unicode="&#x134;" horiz-adv-x="324" 
d="M112 -19v639l-81 57v8h262v-8l-81 -57v-608q0 -87 -40.5 -143t-104.5 -94l-7 8q23 32 37.5 78.5t14.5 119.5zM99 905h126l73 -158h-15l-144 131h44l-142 -131h-15z" />
    <glyph glyph-name="IJ" unicode="&#x132;" horiz-adv-x="654" 
d="M115 620l-81 57v8h262v-8l-81 -57v-555l81 -57v-8h-262v8l81 57v555zM442 -19v639l-81 57v8h262v-8l-81 -57v-608q0 -87 -40.5 -143t-104.5 -94l-7 8q23 32 37.5 78.5t14.5 119.5z" />
    <glyph glyph-name="Kcommaaccent" unicode="&#x136;" horiz-adv-x="681" 
d="M209 255l-25 29l321 367l-8 -61l-84 87v8h228v-8l-143 -82l30 52l16 -15zM115 620l-81 57v8h262v-8l-81 -57v-555l81 -57v-8h-262v8l81 57v555zM681 0h-190l-22 63l-187 278l59 77l242 -344l98 -66v-8zM304 -117l45 71q38 -19 57 -42t19 -52q0 -15 -7.5 -33.5t-30 -36.5
t-67.5 -34l-6 14q26 12 38 25.5t12 27.5q0 20 -30 40z" />
    <glyph glyph-name="Lacute" unicode="&#x139;" horiz-adv-x="577" 
d="M215 620v-583h205l120 158h10l-23 -195h-493v8l81 57v555l-81 57v8h262v-8zM211 905h126l-164 -158h-15z" />
    <glyph glyph-name="Lcaron" unicode="&#x13d;" horiz-adv-x="577" 
d="M215 620v-583h205l120 158h10l-23 -195h-493v8l81 57v555l-81 57v8h262v-8zM361 685h106l-91 -210h-15v210z" />
    <glyph glyph-name="Lcommaaccent" unicode="&#x13b;" horiz-adv-x="577" 
d="M215 620v-583h205l120 158h10l-23 -195h-493v8l81 57v555l-81 57v8h262v-8zM228 -117l45 71q38 -19 57 -42t19 -52q0 -15 -7.5 -33.5t-30 -36.5t-67.5 -34l-6 14q26 12 38 25.5t12 27.5q0 20 -30 40z" />
    <glyph glyph-name="Ldot" unicode="&#x13f;" horiz-adv-x="577" 
d="M215 620v-583h205l120 158h10l-23 -195h-493v8l81 57v555l-81 57v8h262v-8zM380 375l73 79l73 -79l-73 -79z" />
    <glyph glyph-name="Ntilde" unicode="&#xd1;" horiz-adv-x="725" 
d="M158 685l497 -677v-8h-115l-497 677v8h115zM161 65l81 -57v-8h-203v8l81 57v524l41 -57v-467zM564 620l-81 57v8h203v-8l-81 -57v-584l-41 57v527zM235 769q5 60 26.5 88t52.5 28q24 0 48 -12t47 -24t43 -12q17 0 27.5 11t18.5 35h13q-5 -60 -26.5 -88t-52.5 -28
q-23 0 -47.5 12t-47.5 24t-43 12q-17 0 -27.5 -11t-18.5 -35h-13z" />
    <glyph glyph-name="Nacute" unicode="&#x143;" horiz-adv-x="725" 
d="M158 685l497 -677v-8h-115l-497 677v8h115zM161 65l81 -57v-8h-203v8l81 57v524l41 -57v-467zM564 620l-81 57v8h203v-8l-81 -57v-584l-41 57v527zM419 905h126l-164 -158h-15z" />
    <glyph glyph-name="Ncaron" unicode="&#x147;" horiz-adv-x="725" 
d="M158 685l497 -677v-8h-115l-497 677v8h115zM161 65l81 -57v-8h-203v8l81 57v524l41 -57v-467zM564 620l-81 57v8h203v-8l-81 -57v-584l-41 57v527zM436 747h-126l-73 158h15l144 -131h-44l142 131h15z" />
    <glyph glyph-name="Ncommaaccent" unicode="&#x145;" horiz-adv-x="725" 
d="M158 685l497 -677v-8h-115l-497 677v8h115zM161 65l81 -57v-8h-203v8l81 57v524l41 -57v-467zM564 620l-81 57v8h203v-8l-81 -57v-584l-41 57v527zM300 -117l45 71q38 -19 57 -42t19 -52q0 -15 -7.5 -33.5t-30 -36.5t-67.5 -34l-6 14q26 12 38 25.5t12 27.5q0 20 -30 40z
" />
    <glyph glyph-name="Eng" unicode="&#x14a;" horiz-adv-x="717" 
d="M161 65l81 -57v-8h-203v8l81 57v507l-77 105v8h115l406 -554v489l-81 57v8h203v-8l-81 -57v-608q0 -87 -40.5 -143t-104.5 -94l-7 8q23 32 37.5 78.5t14.5 119.5v67l-344 468v-451z" />
    <glyph glyph-name="napostrophe.case" horiz-adv-x="835" 
d="M268 685l497 -677v-8h-115l-497 677v8h115zM271 65l81 -57v-8h-203v8l81 57v524l41 -57v-467zM674 620l-81 57v8h203v-8l-81 -57v-584l-41 57v527zM0 624l45 71q38 -19 57 -42t19 -52q0 -15 -7.5 -33.5t-30 -36.5t-67.5 -34l-6 14q26 12 38 25.5t12 27.5q0 20 -30 40z
" />
    <glyph glyph-name="Oacute" unicode="&#xd3;" horiz-adv-x="727" 
d="M159 392q0 -73 17 -138t48.5 -115t74.5 -78t95 -28q58 0 96.5 33.5t58 92.5t19.5 134q0 74 -17 138.5t-48.5 114.5t-74.5 78t-95 28q-58 0 -96.5 -33.5t-58 -92t-19.5 -134.5zM351 -10q-72 0 -127 27t-92.5 74t-56.5 108t-19 129q0 111 41.5 193.5t114 128t164.5 45.5
q72 0 127 -27t92.5 -74t56.5 -108.5t19 -129.5q0 -111 -41.5 -193t-114 -127.5t-164.5 -45.5zM410 905h126l-164 -158h-15z" />
    <glyph glyph-name="Ocircumflex" unicode="&#xd4;" horiz-adv-x="727" 
d="M159 392q0 -73 17 -138t48.5 -115t74.5 -78t95 -28q58 0 96.5 33.5t58 92.5t19.5 134q0 74 -17 138.5t-48.5 114.5t-74.5 78t-95 28q-58 0 -96.5 -33.5t-58 -92t-19.5 -134.5zM351 -10q-72 0 -127 27t-92.5 74t-56.5 108t-19 129q0 111 41.5 193.5t114 128t164.5 45.5
q72 0 127 -27t92.5 -74t56.5 -108.5t19 -129.5q0 -111 -41.5 -193t-114 -127.5t-164.5 -45.5zM301 905h126l73 -158h-15l-144 131h44l-142 -131h-15z" />
    <glyph glyph-name="Odieresis" unicode="&#xd6;" horiz-adv-x="727" 
d="M159 392q0 -73 17 -138t48.5 -115t74.5 -78t95 -28q58 0 96.5 33.5t58 92.5t19.5 134q0 74 -17 138.5t-48.5 114.5t-74.5 78t-95 28q-58 0 -96.5 -33.5t-58 -92t-19.5 -134.5zM351 -10q-72 0 -127 27t-92.5 74t-56.5 108t-19 129q0 111 41.5 193.5t114 128t164.5 45.5
q72 0 127 -27t92.5 -74t56.5 -108.5t19 -129.5q0 -111 -41.5 -193t-114 -127.5t-164.5 -45.5zM205 834l69 75l69 -75l-69 -75zM385 834l69 75l69 -75l-69 -75z" />
    <glyph glyph-name="Ograve" unicode="&#xd2;" horiz-adv-x="727" 
d="M159 392q0 -73 17 -138t48.5 -115t74.5 -78t95 -28q58 0 96.5 33.5t58 92.5t19.5 134q0 74 -17 138.5t-48.5 114.5t-74.5 78t-95 28q-58 0 -96.5 -33.5t-58 -92t-19.5 -134.5zM351 -10q-72 0 -127 27t-92.5 74t-56.5 108t-19 129q0 111 41.5 193.5t114 128t164.5 45.5
q72 0 127 -27t92.5 -74t56.5 -108.5t19 -129.5q0 -111 -41.5 -193t-114 -127.5t-164.5 -45.5zM319 905l53 -158h-15l-164 158h126z" />
    <glyph glyph-name="Otilde" unicode="&#xd5;" horiz-adv-x="727" 
d="M159 392q0 -73 17 -138t48.5 -115t74.5 -78t95 -28q58 0 96.5 33.5t58 92.5t19.5 134q0 74 -17 138.5t-48.5 114.5t-74.5 78t-95 28q-58 0 -96.5 -33.5t-58 -92t-19.5 -134.5zM351 -10q-72 0 -127 27t-92.5 74t-56.5 108t-19 129q0 111 41.5 193.5t114 128t164.5 45.5
q72 0 127 -27t92.5 -74t56.5 -108.5t19 -129.5q0 -111 -41.5 -193t-114 -127.5t-164.5 -45.5zM226 769q5 60 26.5 88t52.5 28q24 0 48 -12t47 -24t43 -12q17 0 27.5 11t18.5 35h13q-5 -60 -26.5 -88t-52.5 -28q-23 0 -47.5 12t-47.5 24t-43 12q-17 0 -27.5 -11t-18.5 -35
h-13z" />
    <glyph glyph-name="Obreve" unicode="&#x14e;" horiz-adv-x="727" 
d="M159 392q0 -73 17 -138t48.5 -115t74.5 -78t95 -28q58 0 96.5 33.5t58 92.5t19.5 134q0 74 -17 138.5t-48.5 114.5t-74.5 78t-95 28q-58 0 -96.5 -33.5t-58 -92t-19.5 -134.5zM351 -10q-72 0 -127 27t-92.5 74t-56.5 108t-19 129q0 111 41.5 193.5t114 128t164.5 45.5
q72 0 127 -27t92.5 -74t56.5 -108.5t19 -129.5q0 -111 -41.5 -193t-114 -127.5t-164.5 -45.5zM364 742q-62 0 -95.5 47.5t-37.5 115.5h16q11 -43 42.5 -68.5t74.5 -25.5q44 0 75.5 25.5t41.5 68.5h16q-4 -68 -37.5 -115.5t-95.5 -47.5z" />
    <glyph glyph-name="Ohungarumlaut" unicode="&#x150;" horiz-adv-x="727" 
d="M159 392q0 -73 17 -138t48.5 -115t74.5 -78t95 -28q58 0 96.5 33.5t58 92.5t19.5 134q0 74 -17 138.5t-48.5 114.5t-74.5 78t-95 28q-58 0 -96.5 -33.5t-58 -92t-19.5 -134.5zM351 -10q-72 0 -127 27t-92.5 74t-56.5 108t-19 129q0 111 41.5 193.5t114 128t164.5 45.5
q72 0 127 -27t92.5 -74t56.5 -108.5t19 -129.5q0 -111 -41.5 -193t-114 -127.5t-164.5 -45.5zM330 905h96l-134 -158h-15zM490 905h96l-134 -158h-15z" />
    <glyph glyph-name="Omacron" unicode="&#x14c;" horiz-adv-x="727" 
d="M159 392q0 -73 17 -138t48.5 -115t74.5 -78t95 -28q58 0 96.5 33.5t58 92.5t19.5 134q0 74 -17 138.5t-48.5 114.5t-74.5 78t-95 28q-58 0 -96.5 -33.5t-58 -92t-19.5 -134.5zM351 -10q-72 0 -127 27t-92.5 74t-56.5 108t-19 129q0 111 41.5 193.5t114 128t164.5 45.5
q72 0 127 -27t92.5 -74t56.5 -108.5t19 -129.5q0 -111 -41.5 -193t-114 -127.5t-164.5 -45.5zM223 840h282v-50h-282v50z" />
    <glyph glyph-name="Racute" unicode="&#x154;" horiz-adv-x="649" 
d="M299 305l93 26l166 -256l89 -67v-8h-177l-43 123l42 -97zM249 648h-34v-309q14 -1 22 -1.5t18 -0.5q99 0 147 40t48 110q0 57 -26.5 92.5t-71.5 52t-103 16.5zM215 70l116 -62v-8h-297v8l81 57v555l-81 57v8h237q87 0 151.5 -20.5t100.5 -61t36 -99.5q0 -51 -25 -89
t-67.5 -63t-94.5 -38l-8 -2q-27 -6 -55 -9t-57 -3h-18.5h-18.5v-230zM363 905h126l-164 -158h-15z" />
    <glyph glyph-name="Rcaron" unicode="&#x158;" horiz-adv-x="649" 
d="M299 305l93 26l166 -256l89 -67v-8h-177l-43 123l42 -97zM249 648h-34v-309q14 -1 22 -1.5t18 -0.5q99 0 147 40t48 110q0 57 -26.5 92.5t-71.5 52t-103 16.5zM215 70l116 -62v-8h-297v8l81 57v555l-81 57v8h237q87 0 151.5 -20.5t100.5 -61t36 -99.5q0 -51 -25 -89
t-67.5 -63t-94.5 -38l-8 -2q-27 -6 -55 -9t-57 -3h-18.5h-18.5v-230zM380 747h-126l-73 158h15l144 -131h-44l142 131h15z" />
    <glyph glyph-name="Rcommaaccent" unicode="&#x156;" horiz-adv-x="649" 
d="M299 305l93 26l166 -256l89 -67v-8h-177l-43 123l42 -97zM249 648h-34v-309q14 -1 22 -1.5t18 -0.5q99 0 147 40t48 110q0 57 -26.5 92.5t-71.5 52t-103 16.5zM215 70l116 -62v-8h-297v8l81 57v555l-81 57v8h237q87 0 151.5 -20.5t100.5 -61t36 -99.5q0 -51 -25 -89
t-67.5 -63t-94.5 -38l-8 -2q-27 -6 -55 -9t-57 -3h-18.5h-18.5v-230zM272 -117l45 71q38 -19 57 -42t19 -52q0 -15 -7.5 -33.5t-30 -36.5t-67.5 -34l-6 14q26 12 38 25.5t12 27.5q0 20 -30 40z" />
    <glyph glyph-name="Scaron" unicode="&#x160;" horiz-adv-x="568" 
d="M298 685h174v-195h-12q-19 53 -48.5 87.5t-66 52t-78.5 17.5q-59 0 -87.5 -30.5t-28.5 -73.5q0 -40 21 -67t56.5 -46.5t76.5 -34.5l52 -19q43 -15 79 -40.5t58.5 -62.5t22.5 -89q0 -56 -27 -100t-77.5 -69t-120.5 -25q-43 0 -91.5 10.5t-101.5 35.5l106 -13l-128 -33h-12
v220h12q35 -86 93.5 -134t128.5 -48q53 0 91.5 29.5t38.5 87.5q0 59 -40 91.5t-99 53.5l-52 19q-43 16 -81 39.5t-61.5 59.5t-23.5 90q0 60 28.5 102t79.5 63.5t118 21.5zM357 747h-126l-73 158h15l144 -131h-44l142 131h15z" />
    <glyph glyph-name="Sacute" unicode="&#x15a;" horiz-adv-x="568" 
d="M298 685h174v-195h-12q-19 53 -48.5 87.5t-66 52t-78.5 17.5q-59 0 -87.5 -30.5t-28.5 -73.5q0 -40 21 -67t56.5 -46.5t76.5 -34.5l52 -19q43 -15 79 -40.5t58.5 -62.5t22.5 -89q0 -56 -27 -100t-77.5 -69t-120.5 -25q-43 0 -91.5 10.5t-101.5 35.5l106 -13l-128 -33h-12
v220h12q35 -86 93.5 -134t128.5 -48q53 0 91.5 29.5t38.5 87.5q0 59 -40 91.5t-99 53.5l-52 19q-43 16 -81 39.5t-61.5 59.5t-23.5 90q0 60 28.5 102t79.5 63.5t118 21.5zM340 905h126l-164 -158h-15z" />
    <glyph glyph-name="Scedilla" unicode="&#x15e;" horiz-adv-x="568" 
d="M298 685h174v-195h-12q-19 53 -48.5 87.5t-66 52t-78.5 17.5q-59 0 -87.5 -30.5t-28.5 -73.5q0 -40 21 -67t56.5 -46.5t76.5 -34.5l52 -19q43 -15 79 -40.5t58.5 -62.5t22.5 -89q0 -56 -27 -100t-77.5 -69t-120.5 -25q-43 0 -91.5 10.5t-101.5 35.5l106 -13l-128 -33h-12
v220h12q35 -86 93.5 -134t128.5 -48q53 0 91.5 29.5t38.5 87.5q0 59 -40 91.5t-99 53.5l-52 19q-43 16 -81 39.5t-61.5 59.5t-23.5 90q0 60 28.5 102t79.5 63.5t118 21.5zM257 -79l14 40q50 -9 81 -36.5t31 -62.5t-34.5 -56t-98.5 -21h-34l-30 88l8 5q26 -33 51 -49.5
t47 -16.5q30 0 30 25q0 18 -20.5 38t-73.5 30l-4 8l43 87h30z" />
    <glyph glyph-name="Scircumflex" unicode="&#x15c;" horiz-adv-x="568" 
d="M298 685h174v-195h-12q-19 53 -48.5 87.5t-66 52t-78.5 17.5q-59 0 -87.5 -30.5t-28.5 -73.5q0 -40 21 -67t56.5 -46.5t76.5 -34.5l52 -19q43 -15 79 -40.5t58.5 -62.5t22.5 -89q0 -56 -27 -100t-77.5 -69t-120.5 -25q-43 0 -91.5 10.5t-101.5 35.5l106 -13l-128 -33h-12
v220h12q35 -86 93.5 -134t128.5 -48q53 0 91.5 29.5t38.5 87.5q0 59 -40 91.5t-99 53.5l-52 19q-43 16 -81 39.5t-61.5 59.5t-23.5 90q0 60 28.5 102t79.5 63.5t118 21.5zM231 905h126l73 -158h-15l-144 131h44l-142 -131h-15z" />
    <glyph glyph-name="uni0218" unicode="&#x218;" horiz-adv-x="568" 
d="M298 685h174v-195h-12q-19 53 -48.5 87.5t-66 52t-78.5 17.5q-59 0 -87.5 -30.5t-28.5 -73.5q0 -40 21 -67t56.5 -46.5t76.5 -34.5l52 -19q43 -15 79 -40.5t58.5 -62.5t22.5 -89q0 -56 -27 -100t-77.5 -69t-120.5 -25q-43 0 -91.5 10.5t-101.5 35.5l106 -13l-128 -33h-12
v220h12q35 -86 93.5 -134t128.5 -48q53 0 91.5 29.5t38.5 87.5q0 59 -40 91.5t-99 53.5l-52 19q-43 16 -81 39.5t-61.5 59.5t-23.5 90q0 60 28.5 102t79.5 63.5t118 21.5zM223 -117l45 71q38 -19 57 -42t19 -52q0 -15 -7.5 -33.5t-30 -36.5t-67.5 -34l-6 14q26 12 38 25.5
t12 27.5q0 20 -30 40z" />
    <glyph glyph-name="Tbar" unicode="&#x166;" horiz-adv-x="616" 
d="M104 372h408v-37h-408v37zM358 65l81 -57v-8h-262v8l81 57v583h-151l46 25l-117 -183h-10v195h564v-195h-10l-117 183l46 -25h-151v-583z" />
    <glyph glyph-name="Tcaron" unicode="&#x164;" horiz-adv-x="616" 
d="M358 65l81 -57v-8h-262v8l81 57v583h-151l46 25l-117 -183h-10v195h564v-195h-10l-117 183l46 -25h-151v-583zM371 747h-126l-73 158h15l144 -131h-44l142 131h15z" />
    <glyph glyph-name="uni0162" unicode="&#x162;" horiz-adv-x="616" 
d="M358 65l81 -57v-8h-262v8l81 57v583h-151l46 25l-117 -183h-10v195h564v-195h-10l-117 183l46 -25h-151v-583zM247 -117l45 71q38 -19 57 -42t19 -52q0 -15 -7.5 -33.5t-30 -36.5t-67.5 -34l-6 14q26 12 38 25.5t12 27.5q0 20 -30 40z" />
    <glyph glyph-name="uni021A" unicode="&#x21a;" horiz-adv-x="616" 
d="M358 65l81 -57v-8h-262v8l81 57v583h-151l46 25l-117 -183h-10v195h564v-195h-10l-117 183l46 -25h-151v-583zM247 -117l45 71q38 -19 57 -42t19 -52q0 -15 -7.5 -33.5t-30 -36.5t-67.5 -34l-6 14q26 12 38 25.5t12 27.5q0 20 -30 40z" />
    <glyph glyph-name="Uacute" unicode="&#xda;" horiz-adv-x="708" 
d="M100 287v333l-81 57v8h262v-8l-81 -57v-350q0 -115 47.5 -170.5t132.5 -55.5q87 0 137 55.5t50 170.5v350l-81 57v8h203v-8l-81 -57v-350q0 -93 -29.5 -155t-86.5 -93.5t-138 -31.5q-121 0 -187.5 74t-66.5 223zM430 905h126l-164 -158h-15z" />
    <glyph glyph-name="Ucircumflex" unicode="&#xdb;" horiz-adv-x="708" 
d="M100 287v333l-81 57v8h262v-8l-81 -57v-350q0 -115 47.5 -170.5t132.5 -55.5q87 0 137 55.5t50 170.5v350l-81 57v8h203v-8l-81 -57v-350q0 -93 -29.5 -155t-86.5 -93.5t-138 -31.5q-121 0 -187.5 74t-66.5 223zM321 905h126l73 -158h-15l-144 131h44l-142 -131h-15z" />
    <glyph glyph-name="Udieresis" unicode="&#xdc;" horiz-adv-x="708" 
d="M100 287v333l-81 57v8h262v-8l-81 -57v-350q0 -115 47.5 -170.5t132.5 -55.5q87 0 137 55.5t50 170.5v350l-81 57v8h203v-8l-81 -57v-350q0 -93 -29.5 -155t-86.5 -93.5t-138 -31.5q-121 0 -187.5 74t-66.5 223zM225 834l69 75l69 -75l-69 -75zM405 834l69 75l69 -75
l-69 -75z" />
    <glyph glyph-name="Ugrave" unicode="&#xd9;" horiz-adv-x="708" 
d="M100 287v333l-81 57v8h262v-8l-81 -57v-350q0 -115 47.5 -170.5t132.5 -55.5q87 0 137 55.5t50 170.5v350l-81 57v8h203v-8l-81 -57v-350q0 -93 -29.5 -155t-86.5 -93.5t-138 -31.5q-121 0 -187.5 74t-66.5 223zM339 905l53 -158h-15l-164 158h126z" />
    <glyph glyph-name="Ubreve" unicode="&#x16c;" horiz-adv-x="708" 
d="M100 287v333l-81 57v8h262v-8l-81 -57v-350q0 -115 47.5 -170.5t132.5 -55.5q87 0 137 55.5t50 170.5v350l-81 57v8h203v-8l-81 -57v-350q0 -93 -29.5 -155t-86.5 -93.5t-138 -31.5q-121 0 -187.5 74t-66.5 223zM384 742q-62 0 -95.5 47.5t-37.5 115.5h16
q11 -43 42.5 -68.5t74.5 -25.5q44 0 75.5 25.5t41.5 68.5h16q-4 -68 -37.5 -115.5t-95.5 -47.5z" />
    <glyph glyph-name="Uhungarumlaut" unicode="&#x170;" horiz-adv-x="708" 
d="M100 287v333l-81 57v8h262v-8l-81 -57v-350q0 -115 47.5 -170.5t132.5 -55.5q87 0 137 55.5t50 170.5v350l-81 57v8h203v-8l-81 -57v-350q0 -93 -29.5 -155t-86.5 -93.5t-138 -31.5q-121 0 -187.5 74t-66.5 223zM350 905h96l-134 -158h-15zM510 905h96l-134 -158h-15z
" />
    <glyph glyph-name="Umacron" unicode="&#x16a;" horiz-adv-x="708" 
d="M100 287v333l-81 57v8h262v-8l-81 -57v-350q0 -115 47.5 -170.5t132.5 -55.5q87 0 137 55.5t50 170.5v350l-81 57v8h203v-8l-81 -57v-350q0 -93 -29.5 -155t-86.5 -93.5t-138 -31.5q-121 0 -187.5 74t-66.5 223zM243 840h282v-50h-282v50z" />
    <glyph glyph-name="Uogonek" unicode="&#x172;" horiz-adv-x="708" 
d="M100 287v333l-81 57v8h262v-8l-81 -57v-350q0 -115 47.5 -170.5t132.5 -55.5q87 0 137 55.5t50 170.5v350l-81 57v8h203v-8l-81 -57v-350q0 -69 -17 -118t-42 -85.5t-50 -65.5t-42 -56.5t-17 -59.5q0 -25 14 -39t37 -14q26 0 46.5 16t34.5 41l11 -5q-9 -27 -28 -52
t-45 -41t-59 -16q-38 0 -63 23t-25 60q0 30 15.5 54.5t40.5 48.5t53 51q-50 -22 -118 -22q-121 0 -187.5 74t-66.5 223z" />
    <glyph glyph-name="Uring" unicode="&#x16e;" horiz-adv-x="708" 
d="M100 287v333l-81 57v8h262v-8l-81 -57v-350q0 -115 47.5 -170.5t132.5 -55.5q87 0 137 55.5t50 170.5v350l-81 57v8h203v-8l-81 -57v-350q0 -93 -29.5 -155t-86.5 -93.5t-138 -31.5q-121 0 -187.5 74t-66.5 223zM384 936q43 0 70.5 -28t27.5 -69t-27.5 -69t-70.5 -28
t-70.5 28t-27.5 69t27.5 69t70.5 28zM384 902q-25 0 -42.5 -18t-17.5 -45t17.5 -45t42.5 -18q26 0 43 18t17 45t-17 45t-43 18z" />
    <glyph glyph-name="Utilde" unicode="&#x168;" horiz-adv-x="708" 
d="M100 287v333l-81 57v8h262v-8l-81 -57v-350q0 -115 47.5 -170.5t132.5 -55.5q87 0 137 55.5t50 170.5v350l-81 57v8h203v-8l-81 -57v-350q0 -93 -29.5 -155t-86.5 -93.5t-138 -31.5q-121 0 -187.5 74t-66.5 223zM246 769q5 60 26.5 88t52.5 28q24 0 48 -12t47 -24t43 -12
q17 0 27.5 11t18.5 35h13q-5 -60 -26.5 -88t-52.5 -28q-23 0 -47.5 12t-47.5 24t-43 12q-17 0 -27.5 -11t-18.5 -35h-13z" />
    <glyph glyph-name="Wacute" unicode="&#x1e82;" horiz-adv-x="996" 
d="M181 628l156 -510l-17 1l203 509l-35 49v8h97v-8l-34 -97l-15 -26l-226 -564h-23l-210 632l-74 55v8h257v-8zM535 685l210 -567l-25 1l167 538l16 -52l-104 72v8h194v-8l-74 -55l-201 -632h-23l-261 687v8h101zM552 905h126l-164 -158h-15z" />
    <glyph glyph-name="Wcircumflex" unicode="&#x174;" horiz-adv-x="996" 
d="M181 628l156 -510l-17 1l203 509l-35 49v8h97v-8l-34 -97l-15 -26l-226 -564h-23l-210 632l-74 55v8h257v-8zM535 685l210 -567l-25 1l167 538l16 -52l-104 72v8h194v-8l-74 -55l-201 -632h-23l-261 687v8h101zM443 905h126l73 -158h-15l-144 131h44l-142 -131h-15z" />
    <glyph glyph-name="Wdieresis" unicode="&#x1e84;" horiz-adv-x="996" 
d="M181 628l156 -510l-17 1l203 509l-35 49v8h97v-8l-34 -97l-15 -26l-226 -564h-23l-210 632l-74 55v8h257v-8zM535 685l210 -567l-25 1l167 538l16 -52l-104 72v8h194v-8l-74 -55l-201 -632h-23l-261 687v8h101zM347 834l69 75l69 -75l-69 -75zM527 834l69 75l69 -75
l-69 -75z" />
    <glyph glyph-name="Wgrave" unicode="&#x1e80;" horiz-adv-x="996" 
d="M181 628l156 -510l-17 1l203 509l-35 49v8h97v-8l-34 -97l-15 -26l-226 -564h-23l-210 632l-74 55v8h257v-8zM535 685l210 -567l-25 1l167 538l16 -52l-104 72v8h194v-8l-74 -55l-201 -632h-23l-261 687v8h101zM461 905l53 -158h-15l-164 158h126z" />
    <glyph glyph-name="Yacute" unicode="&#xdd;" horiz-adv-x="615" 
d="M352 318v-253l81 -57v-8h-262v8l81 57v244l-176 313l-74 55v8h259v-8l-79 -49l158 -290h-17l188 318l8 -51l-104 72v8h198v-8l-74 -55zM382 905h126l-164 -158h-15z" />
    <glyph glyph-name="Ydieresis" unicode="&#x178;" horiz-adv-x="615" 
d="M352 318v-253l81 -57v-8h-262v8l81 57v244l-176 313l-74 55v8h259v-8l-79 -49l158 -290h-17l188 318l8 -51l-104 72v8h198v-8l-74 -55zM177 834l69 75l69 -75l-69 -75zM357 834l69 75l69 -75l-69 -75z" />
    <glyph glyph-name="Ycircumflex" unicode="&#x176;" horiz-adv-x="615" 
d="M352 318v-253l81 -57v-8h-262v8l81 57v244l-176 313l-74 55v8h259v-8l-79 -49l158 -290h-17l188 318l8 -51l-104 72v8h198v-8l-74 -55zM273 905h126l73 -158h-15l-144 131h44l-142 -131h-15z" />
    <glyph glyph-name="Ygrave" unicode="&#x1ef2;" horiz-adv-x="615" 
d="M352 318v-253l81 -57v-8h-262v8l81 57v244l-176 313l-74 55v8h259v-8l-79 -49l158 -290h-17l188 318l8 -51l-104 72v8h198v-8l-74 -55zM291 905l53 -158h-15l-164 158h126z" />
    <glyph glyph-name="Zcaron" unicode="&#x17d;" horiz-adv-x="615" 
d="M477 37h-343l10 -26l411 650v24h-378l-106 20l-5 -229h10l124 197l-48 -25h308l-9 26l-411 -650v-24h518v215h-10l-116 -204zM379 747h-126l-73 158h15l144 -131h-44l142 131h15z" />
    <glyph glyph-name="Zacute" unicode="&#x179;" horiz-adv-x="615" 
d="M477 37h-343l10 -26l411 650v24h-378l-106 20l-5 -229h10l124 197l-48 -25h308l-9 26l-411 -650v-24h518v215h-10l-116 -204zM362 905h126l-164 -158h-15z" />
    <glyph glyph-name="Zdotaccent" unicode="&#x17b;" horiz-adv-x="615" 
d="M477 37h-343l10 -26l411 650v24h-378l-106 20l-5 -229h10l124 197l-48 -25h308l-9 26l-411 -650v-24h518v215h-10l-116 -204zM243 834l73 79l73 -79l-73 -79z" />
    <glyph glyph-name="aacute" unicode="&#xe1;" horiz-adv-x="520" 
d="M330 113v152q-69 -18 -109 -36t-56.5 -39.5t-16.5 -52.5q0 -35 17.5 -56.5t50.5 -21.5q25 0 52.5 13t61.5 41zM331 78q-54 -49 -91.5 -68.5t-73.5 -19.5q-49 0 -81 33t-32 87q0 37 16.5 64t50.5 47.5t86.5 38.5t123.5 37v61q0 53 -19 77.5t-55 24.5q-39 0 -83 -31
t-82 -96h-10v157h361v-6l-24 -70v-356l75 -50v-8h-158v78h-4zM304 710h126l-164 -158h-15z" />
    <glyph glyph-name="acircumflex" unicode="&#xe2;" horiz-adv-x="520" 
d="M330 113v152q-69 -18 -109 -36t-56.5 -39.5t-16.5 -52.5q0 -35 17.5 -56.5t50.5 -21.5q25 0 52.5 13t61.5 41zM331 78q-54 -49 -91.5 -68.5t-73.5 -19.5q-49 0 -81 33t-32 87q0 37 16.5 64t50.5 47.5t86.5 38.5t123.5 37v61q0 53 -19 77.5t-55 24.5q-39 0 -83 -31
t-82 -96h-10v157h361v-6l-24 -70v-356l75 -50v-8h-158v78h-4zM195 710h126l73 -158h-15l-144 131h44l-142 -131h-15z" />
    <glyph glyph-name="adieresis" unicode="&#xe4;" horiz-adv-x="520" 
d="M330 113v152q-69 -18 -109 -36t-56.5 -39.5t-16.5 -52.5q0 -35 17.5 -56.5t50.5 -21.5q25 0 52.5 13t61.5 41zM331 78q-54 -49 -91.5 -68.5t-73.5 -19.5q-49 0 -81 33t-32 87q0 37 16.5 64t50.5 47.5t86.5 38.5t123.5 37v61q0 53 -19 77.5t-55 24.5q-39 0 -83 -31
t-82 -96h-10v157h361v-6l-24 -70v-356l75 -50v-8h-158v78h-4zM99 639l69 75l69 -75l-69 -75zM279 639l69 75l69 -75l-69 -75z" />
    <glyph glyph-name="agrave" unicode="&#xe0;" horiz-adv-x="520" 
d="M330 113v152q-69 -18 -109 -36t-56.5 -39.5t-16.5 -52.5q0 -35 17.5 -56.5t50.5 -21.5q25 0 52.5 13t61.5 41zM331 78q-54 -49 -91.5 -68.5t-73.5 -19.5q-49 0 -81 33t-32 87q0 37 16.5 64t50.5 47.5t86.5 38.5t123.5 37v61q0 53 -19 77.5t-55 24.5q-39 0 -83 -31
t-82 -96h-10v157h361v-6l-24 -70v-356l75 -50v-8h-158v78h-4zM213 710l53 -158h-15l-164 158h126z" />
    <glyph glyph-name="aring" unicode="&#xe5;" horiz-adv-x="520" 
d="M330 113v152q-69 -18 -109 -36t-56.5 -39.5t-16.5 -52.5q0 -35 17.5 -56.5t50.5 -21.5q25 0 52.5 13t61.5 41zM331 78q-54 -49 -91.5 -68.5t-73.5 -19.5q-49 0 -81 33t-32 87q0 37 16.5 64t50.5 47.5t86.5 38.5t123.5 37v61q0 53 -19 77.5t-55 24.5q-39 0 -83 -31
t-82 -96h-10v157h361v-6l-24 -70v-356l75 -50v-8h-158v78h-4zM258 741q43 0 70.5 -28t27.5 -69t-27.5 -69t-70.5 -28t-70.5 28t-27.5 69t27.5 69t70.5 28zM258 707q-25 0 -42.5 -18t-17.5 -45t17.5 -45t42.5 -18q26 0 43 18t17 45t-17 45t-43 18z" />
    <glyph glyph-name="atilde" unicode="&#xe3;" horiz-adv-x="520" 
d="M330 113v152q-69 -18 -109 -36t-56.5 -39.5t-16.5 -52.5q0 -35 17.5 -56.5t50.5 -21.5q25 0 52.5 13t61.5 41zM331 78q-54 -49 -91.5 -68.5t-73.5 -19.5q-49 0 -81 33t-32 87q0 37 16.5 64t50.5 47.5t86.5 38.5t123.5 37v61q0 53 -19 77.5t-55 24.5q-39 0 -83 -31
t-82 -96h-10v157h361v-6l-24 -70v-356l75 -50v-8h-158v78h-4zM120 574q5 60 26.5 88t52.5 28q24 0 48 -12t47 -24t43 -12q17 0 27.5 11t18.5 35h13q-5 -60 -26.5 -88t-52.5 -28q-23 0 -47.5 12t-47.5 24t-43 12q-17 0 -27.5 -11t-18.5 -35h-13z" />
    <glyph glyph-name="abreve" unicode="&#x103;" horiz-adv-x="520" 
d="M330 113v152q-69 -18 -109 -36t-56.5 -39.5t-16.5 -52.5q0 -35 17.5 -56.5t50.5 -21.5q25 0 52.5 13t61.5 41zM331 78q-54 -49 -91.5 -68.5t-73.5 -19.5q-49 0 -81 33t-32 87q0 37 16.5 64t50.5 47.5t86.5 38.5t123.5 37v61q0 53 -19 77.5t-55 24.5q-39 0 -83 -31
t-82 -96h-10v157h361v-6l-24 -70v-356l75 -50v-8h-158v78h-4zM258 547q-62 0 -95.5 47.5t-37.5 115.5h16q11 -43 42.5 -68.5t74.5 -25.5q44 0 75.5 25.5t41.5 68.5h16q-4 -68 -37.5 -115.5t-95.5 -47.5z" />
    <glyph glyph-name="amacron" unicode="&#x101;" horiz-adv-x="520" 
d="M330 113v152q-69 -18 -109 -36t-56.5 -39.5t-16.5 -52.5q0 -35 17.5 -56.5t50.5 -21.5q25 0 52.5 13t61.5 41zM331 78q-54 -49 -91.5 -68.5t-73.5 -19.5q-49 0 -81 33t-32 87q0 37 16.5 64t50.5 47.5t86.5 38.5t123.5 37v61q0 53 -19 77.5t-55 24.5q-39 0 -83 -31
t-82 -96h-10v157h361v-6l-24 -70v-356l75 -50v-8h-158v78h-4zM117 645h282v-50h-282v50z" />
    <glyph glyph-name="aogonek" unicode="&#x105;" horiz-adv-x="520" 
d="M331 78q-54 -49 -91.5 -68.5t-73.5 -19.5q-49 0 -81 33t-32 87q0 37 16.5 64t50.5 47.5t86.5 38.5t123.5 37v61q0 53 -19 77.5t-55 24.5q-39 0 -83 -31t-82 -96h-10v157h361v-6l-24 -70v-356l75 -50v-8q-73 -10 -108 -44t-35 -71q0 -25 14 -39t37 -14q26 0 46.5 16
t34.5 41l11 -5q-9 -27 -28 -52t-45 -41t-59 -16q-38 0 -63 23t-25 59q0 28 16.5 55.5t48 50.5t77.5 37h-80v78h-4zM330 113v152q-69 -18 -109 -36t-56.5 -39.5t-16.5 -52.5q0 -35 17.5 -56.5t50.5 -21.5q25 0 52.5 13t61.5 41z" />
    <glyph glyph-name="ccedilla" unicode="&#xe7;" horiz-adv-x="480" 
d="M289 490h119v-157h-10q-18 43 -40.5 69t-48 38.5t-52.5 12.5q-53 0 -84 -45.5t-31 -129.5q0 -74 22 -121.5t56.5 -70t73.5 -22.5q43 0 77.5 24t60.5 73l13 -6q-26 -80 -82.5 -122.5t-118.5 -42.5q-58 0 -101.5 31.5t-67 86t-23.5 122.5q0 78 30.5 136.5t84 91t122.5 32.5
zM217 -79l14 40q50 -9 81 -36.5t31 -62.5t-34.5 -56t-98.5 -21h-34l-30 88l8 5q26 -33 51 -49.5t47 -16.5q30 0 30 25q0 18 -20.5 38t-73.5 30l-4 8l43 87h30z" />
    <glyph glyph-name="cacute" unicode="&#x107;" horiz-adv-x="480" 
d="M289 490h119v-157h-10q-18 43 -40.5 69t-48 38.5t-52.5 12.5q-53 0 -84 -45.5t-31 -129.5q0 -74 22 -121.5t56.5 -70t73.5 -22.5q43 0 77.5 24t60.5 73l13 -6q-26 -80 -82.5 -122.5t-118.5 -42.5q-58 0 -101.5 31.5t-67 86t-23.5 122.5q0 78 30.5 136.5t84 91t122.5 32.5
zM312 710h126l-164 -158h-15z" />
    <glyph glyph-name="ccaron" unicode="&#x10d;" horiz-adv-x="480" 
d="M289 490h119v-157h-10q-18 43 -40.5 69t-48 38.5t-52.5 12.5q-53 0 -84 -45.5t-31 -129.5q0 -74 22 -121.5t56.5 -70t73.5 -22.5q43 0 77.5 24t60.5 73l13 -6q-26 -80 -82.5 -122.5t-118.5 -42.5q-58 0 -101.5 31.5t-67 86t-23.5 122.5q0 78 30.5 136.5t84 91t122.5 32.5
zM329 552h-126l-73 158h15l144 -131h-44l142 131h15z" />
    <glyph glyph-name="ccircumflex" unicode="&#x109;" horiz-adv-x="480" 
d="M289 490h119v-157h-10q-18 43 -40.5 69t-48 38.5t-52.5 12.5q-53 0 -84 -45.5t-31 -129.5q0 -74 22 -121.5t56.5 -70t73.5 -22.5q43 0 77.5 24t60.5 73l13 -6q-26 -80 -82.5 -122.5t-118.5 -42.5q-58 0 -101.5 31.5t-67 86t-23.5 122.5q0 78 30.5 136.5t84 91t122.5 32.5
zM203 710h126l73 -158h-15l-144 131h44l-142 -131h-15z" />
    <glyph glyph-name="cdotaccent" unicode="&#x10b;" horiz-adv-x="480" 
d="M289 490h119v-157h-10q-18 43 -40.5 69t-48 38.5t-52.5 12.5q-53 0 -84 -45.5t-31 -129.5q0 -74 22 -121.5t56.5 -70t73.5 -22.5q43 0 77.5 24t60.5 73l13 -6q-26 -80 -82.5 -122.5t-118.5 -42.5q-58 0 -101.5 31.5t-67 86t-23.5 122.5q0 78 30.5 136.5t84 91t122.5 32.5
zM193 639l73 79l73 -79l-73 -79z" />
    <glyph glyph-name="dcaron" unicode="&#x10f;" horiz-adv-x="642" 
d="M388 100v301q-28 34 -58.5 48.5t-60.5 14.5q-57 0 -86.5 -47t-29.5 -126q0 -80 20.5 -133t53 -78.5t68.5 -25.5q28 0 52 13.5t41 32.5zM388 431v178l-58 60v8l148 43v-662l75 -50v-8h-161v63h-4q-32 -34 -67 -53.5t-78 -19.5q-57 0 -98.5 32t-64 87.5t-22.5 125.5
q0 79 29.5 138.5t81.5 93t121 33.5q32 0 64 -6t57 -17zM555 710h106l-91 -210h-15v210z" />
    <glyph glyph-name="dcroat" unicode="&#x111;" horiz-adv-x="579" 
d="M199 597h354v-37h-354v37zM388 100v301q-28 34 -58.5 48.5t-60.5 14.5q-57 0 -86.5 -47t-29.5 -126q0 -80 20.5 -133t53 -78.5t68.5 -25.5q28 0 52 13.5t41 32.5zM388 431v178l-58 60v8l148 43v-662l75 -50v-8h-161v63h-4q-32 -34 -67 -53.5t-78 -19.5q-57 0 -98.5 32
t-64 87.5t-22.5 125.5q0 79 29.5 138.5t81.5 93t121 33.5q32 0 64 -6t57 -17z" />
    <glyph glyph-name="eacute" unicode="&#xe9;" horiz-adv-x="504" 
d="M305 63q47 0 83 23.5t62 74.5l13 -6q-17 -53 -48.5 -90t-71.5 -56t-86 -19q-58 0 -104.5 30t-73.5 85.5t-27 131.5q0 78 28 137t76.5 92.5t111.5 33.5q85 0 134.5 -60t49.5 -159h-367v37h263q-5 77 -34.5 110t-70.5 33q-49 0 -75.5 -43.5t-26.5 -126.5q0 -78 22.5 -128.5
t60 -75t81.5 -24.5zM304 710h126l-164 -158h-15z" />
    <glyph glyph-name="ecircumflex" unicode="&#xea;" horiz-adv-x="504" 
d="M305 63q47 0 83 23.5t62 74.5l13 -6q-17 -53 -48.5 -90t-71.5 -56t-86 -19q-58 0 -104.5 30t-73.5 85.5t-27 131.5q0 78 28 137t76.5 92.5t111.5 33.5q85 0 134.5 -60t49.5 -159h-367v37h263q-5 77 -34.5 110t-70.5 33q-49 0 -75.5 -43.5t-26.5 -126.5q0 -78 22.5 -128.5
t60 -75t81.5 -24.5zM195 710h126l73 -158h-15l-144 131h44l-142 -131h-15z" />
    <glyph glyph-name="edieresis" unicode="&#xeb;" horiz-adv-x="504" 
d="M305 63q47 0 83 23.5t62 74.5l13 -6q-17 -53 -48.5 -90t-71.5 -56t-86 -19q-58 0 -104.5 30t-73.5 85.5t-27 131.5q0 78 28 137t76.5 92.5t111.5 33.5q85 0 134.5 -60t49.5 -159h-367v37h263q-5 77 -34.5 110t-70.5 33q-49 0 -75.5 -43.5t-26.5 -126.5q0 -78 22.5 -128.5
t60 -75t81.5 -24.5zM99 639l69 75l69 -75l-69 -75zM279 639l69 75l69 -75l-69 -75z" />
    <glyph glyph-name="egrave" unicode="&#xe8;" horiz-adv-x="504" 
d="M305 63q47 0 83 23.5t62 74.5l13 -6q-17 -53 -48.5 -90t-71.5 -56t-86 -19q-58 0 -104.5 30t-73.5 85.5t-27 131.5q0 78 28 137t76.5 92.5t111.5 33.5q85 0 134.5 -60t49.5 -159h-367v37h263q-5 77 -34.5 110t-70.5 33q-49 0 -75.5 -43.5t-26.5 -126.5q0 -78 22.5 -128.5
t60 -75t81.5 -24.5zM213 710l53 -158h-15l-164 158h126z" />
    <glyph glyph-name="ebreve" unicode="&#x115;" horiz-adv-x="504" 
d="M305 63q47 0 83 23.5t62 74.5l13 -6q-17 -53 -48.5 -90t-71.5 -56t-86 -19q-58 0 -104.5 30t-73.5 85.5t-27 131.5q0 78 28 137t76.5 92.5t111.5 33.5q85 0 134.5 -60t49.5 -159h-367v37h263q-5 77 -34.5 110t-70.5 33q-49 0 -75.5 -43.5t-26.5 -126.5q0 -78 22.5 -128.5
t60 -75t81.5 -24.5zM258 547q-62 0 -95.5 47.5t-37.5 115.5h16q11 -43 42.5 -68.5t74.5 -25.5q44 0 75.5 25.5t41.5 68.5h16q-4 -68 -37.5 -115.5t-95.5 -47.5z" />
    <glyph glyph-name="ecaron" unicode="&#x11b;" horiz-adv-x="504" 
d="M305 63q47 0 83 23.5t62 74.5l13 -6q-17 -53 -48.5 -90t-71.5 -56t-86 -19q-58 0 -104.5 30t-73.5 85.5t-27 131.5q0 78 28 137t76.5 92.5t111.5 33.5q85 0 134.5 -60t49.5 -159h-367v37h263q-5 77 -34.5 110t-70.5 33q-49 0 -75.5 -43.5t-26.5 -126.5q0 -78 22.5 -128.5
t60 -75t81.5 -24.5zM321 552h-126l-73 158h15l144 -131h-44l142 131h15z" />
    <glyph glyph-name="edotaccent" unicode="&#x117;" horiz-adv-x="504" 
d="M305 63q47 0 83 23.5t62 74.5l13 -6q-17 -53 -48.5 -90t-71.5 -56t-86 -19q-58 0 -104.5 30t-73.5 85.5t-27 131.5q0 78 28 137t76.5 92.5t111.5 33.5q85 0 134.5 -60t49.5 -159h-367v37h263q-5 77 -34.5 110t-70.5 33q-49 0 -75.5 -43.5t-26.5 -126.5q0 -78 22.5 -128.5
t60 -75t81.5 -24.5zM185 639l73 79l73 -79l-73 -79z" />
    <glyph glyph-name="emacron" unicode="&#x113;" horiz-adv-x="504" 
d="M305 63q47 0 83 23.5t62 74.5l13 -6q-17 -53 -48.5 -90t-71.5 -56t-86 -19q-58 0 -104.5 30t-73.5 85.5t-27 131.5q0 78 28 137t76.5 92.5t111.5 33.5q85 0 134.5 -60t49.5 -159h-367v37h263q-5 77 -34.5 110t-70.5 33q-49 0 -75.5 -43.5t-26.5 -126.5q0 -78 22.5 -128.5
t60 -75t81.5 -24.5zM117 645h282v-50h-282v50z" />
    <glyph glyph-name="eogonek" unicode="&#x119;" horiz-adv-x="504" 
d="M305 63q47 0 83 23.5t62 74.5l13 -6q-12 -43 -37 -79t-52 -67.5t-45.5 -61.5t-18.5 -62q0 -25 14 -39t37 -14q26 0 46.5 16t34.5 41l11 -5q-9 -27 -28 -52t-45 -41t-59 -16q-38 0 -63 23t-25 60q0 29 14.5 53t38 46.5t50.5 48.5q-19 -8 -38.5 -12t-40.5 -4
q-58 0 -104.5 30t-73.5 85.5t-27 131.5q0 78 28 137t76.5 92.5t111.5 33.5q85 0 134.5 -60t49.5 -159h-311q2 -75 24.5 -123.5t59.5 -71.5t80 -23zM348 318q-5 77 -34.5 110t-70.5 33q-45 0 -71 -36t-30 -107h206z" />
    <glyph glyph-name="uni0259" unicode="&#x259;" horiz-adv-x="504" 
d="M203 427q-43 0 -73.5 -20t-53.5 -65l-13 6q16 50 44 83.5t64.5 51t79.5 17.5q54 0 97.5 -28.5t69 -81.5t25.5 -127q0 -84 -28 -145.5t-76.5 -94.5t-112.5 -33q-85 0 -135.5 60t-50.5 159h370v-37h-266q5 -76 35.5 -109.5t71.5 -33.5q50 0 76.5 43t26.5 137
q0 75 -21.5 123.5t-55.5 71.5t-74 23z" />
    <glyph glyph-name="gbreve" unicode="&#x11f;" horiz-adv-x="526" 
d="M206 -225q-73 0 -117.5 27t-44.5 76q0 35 25 67t80 69l2 -28q-36 11 -53.5 26t-23 31.5t-5.5 31.5q0 24 9.5 45t27.5 39t42 32l33 -11q-18 -12 -29.5 -28.5t-11.5 -34.5q0 -16 11.5 -26.5t35.5 -10.5h285q11 -21 16 -40t5 -39q0 -40 -20.5 -80.5t-58.5 -73t-90.5 -52.5
t-117.5 -20zM121 -88q0 -38 29 -62t92 -24q38 0 71.5 8.5t60 24t41.5 38t15 50.5q0 22 -12 43h-261q-20 -18 -28 -39t-8 -39zM309 445v8l-49 37h248v-8l-23 -37h-176zM347 310q0 41 -13 74t-36.5 52.5t-55.5 19.5q-34 0 -57.5 -26.5t-23.5 -82.5q0 -41 13 -74t37 -52.5
t55 -19.5q35 0 58 26.5t23 82.5zM248 169q-61 0 -100.5 21.5t-59 56.5t-19.5 76q0 43 20.5 81t63 62t107.5 24q62 0 101.5 -21.5t58.5 -56.5t19 -76q0 -42 -20 -80.5t-62.5 -62.5t-108.5 -24zM370 427v27h28v-27h-28zM265 547q-62 0 -95.5 47.5t-37.5 115.5h16
q11 -43 42.5 -68.5t74.5 -25.5q44 0 75.5 25.5t41.5 68.5h16q-4 -68 -37.5 -115.5t-95.5 -47.5z" />
    <glyph glyph-name="gcircumflex" unicode="&#x11d;" horiz-adv-x="526" 
d="M206 -225q-73 0 -117.5 27t-44.5 76q0 35 25 67t80 69l2 -28q-36 11 -53.5 26t-23 31.5t-5.5 31.5q0 24 9.5 45t27.5 39t42 32l33 -11q-18 -12 -29.5 -28.5t-11.5 -34.5q0 -16 11.5 -26.5t35.5 -10.5h285q11 -21 16 -40t5 -39q0 -40 -20.5 -80.5t-58.5 -73t-90.5 -52.5
t-117.5 -20zM121 -88q0 -38 29 -62t92 -24q38 0 71.5 8.5t60 24t41.5 38t15 50.5q0 22 -12 43h-261q-20 -18 -28 -39t-8 -39zM309 445v8l-49 37h248v-8l-23 -37h-176zM347 310q0 41 -13 74t-36.5 52.5t-55.5 19.5q-34 0 -57.5 -26.5t-23.5 -82.5q0 -41 13 -74t37 -52.5
t55 -19.5q35 0 58 26.5t23 82.5zM248 169q-61 0 -100.5 21.5t-59 56.5t-19.5 76q0 43 20.5 81t63 62t107.5 24q62 0 101.5 -21.5t58.5 -56.5t19 -76q0 -42 -20 -80.5t-62.5 -62.5t-108.5 -24zM370 427v27h28v-27h-28zM202 710h126l73 -158h-15l-144 131h44l-142 -131h-15z
" />
    <glyph glyph-name="gcommaaccent" unicode="&#x123;" horiz-adv-x="526" 
d="M206 -225q-73 0 -117.5 27t-44.5 76q0 35 25 67t80 69l2 -28q-36 11 -53.5 26t-23 31.5t-5.5 31.5q0 24 9.5 45t27.5 39t42 32l33 -11q-18 -12 -29.5 -28.5t-11.5 -34.5q0 -16 11.5 -26.5t35.5 -10.5h285q11 -21 16 -40t5 -39q0 -40 -20.5 -80.5t-58.5 -73t-90.5 -52.5
t-117.5 -20zM121 -88q0 -38 29 -62t92 -24q38 0 71.5 8.5t60 24t41.5 38t15 50.5q0 22 -12 43h-261q-20 -18 -28 -39t-8 -39zM309 445v8l-49 37h248v-8l-23 -37h-176zM347 310q0 41 -13 74t-36.5 52.5t-55.5 19.5q-34 0 -57.5 -26.5t-23.5 -82.5q0 -41 13 -74t37 -52.5
t55 -19.5q35 0 58 26.5t23 82.5zM248 169q-61 0 -100.5 21.5t-59 56.5t-19.5 76q0 43 20.5 81t63 62t107.5 24q62 0 101.5 -21.5t58.5 -56.5t19 -76q0 -42 -20 -80.5t-62.5 -62.5t-108.5 -24zM370 427v27h28v-27h-28zM325 618l-45 -71q-38 20 -57 43t-19 51q0 16 7.5 34
t30 36t67.5 34l6 -14q-26 -12 -38 -25.5t-12 -27.5q0 -20 30 -40z" />
    <glyph glyph-name="gdotaccent" unicode="&#x121;" horiz-adv-x="526" 
d="M206 -225q-73 0 -117.5 27t-44.5 76q0 35 25 67t80 69l2 -28q-36 11 -53.5 26t-23 31.5t-5.5 31.5q0 24 9.5 45t27.5 39t42 32l33 -11q-18 -12 -29.5 -28.5t-11.5 -34.5q0 -16 11.5 -26.5t35.5 -10.5h285q11 -21 16 -40t5 -39q0 -40 -20.5 -80.5t-58.5 -73t-90.5 -52.5
t-117.5 -20zM121 -88q0 -38 29 -62t92 -24q38 0 71.5 8.5t60 24t41.5 38t15 50.5q0 22 -12 43h-261q-20 -18 -28 -39t-8 -39zM309 445v8l-49 37h248v-8l-23 -37h-176zM347 310q0 41 -13 74t-36.5 52.5t-55.5 19.5q-34 0 -57.5 -26.5t-23.5 -82.5q0 -41 13 -74t37 -52.5
t55 -19.5q35 0 58 26.5t23 82.5zM248 169q-61 0 -100.5 21.5t-59 56.5t-19.5 76q0 43 20.5 81t63 62t107.5 24q62 0 101.5 -21.5t58.5 -56.5t19 -76q0 -42 -20 -80.5t-62.5 -62.5t-108.5 -24zM370 427v27h28v-27h-28zM192 639l73 79l73 -79l-73 -79z" />
    <glyph glyph-name="hbar" unicode="&#x127;" horiz-adv-x="597" 
d="M26 597h354v-37h-354v37zM191 58l75 -50v-8h-240v8l75 50v551l-58 60v8l148 43v-230v-75h5q46 44 87.5 64.5t84.5 20.5q65 0 99.5 -41.5t34.5 -118.5v-282l75 -50v-8h-240v8l75 50v260q0 59 -21.5 86.5t-67.5 27.5q-34 0 -67.5 -15t-64.5 -44v-315z" />
    <glyph glyph-name="hcircumflex" unicode="&#x125;" horiz-adv-x="597" 
d="M191 58l75 -50v-8h-240v8l75 50v551l-58 60v8l148 43v-230v-75h5q46 44 87.5 64.5t84.5 20.5q65 0 99.5 -41.5t34.5 -118.5v-282l75 -50v-8h-240v8l75 50v260q0 59 -21.5 86.5t-67.5 27.5q-34 0 -67.5 -15t-64.5 -44v-315zM214 930h126l73 -158h-15l-144 131h44
l-142 -131h-15z" />
    <glyph glyph-name="iacute" unicode="&#xed;" horiz-adv-x="296" 
d="M195 500v-442l75 -50v-8h-240v8l75 50v331l-58 60v8zM194 710h126l-164 -158h-15z" />
    <glyph glyph-name="icircumflex" unicode="&#xee;" horiz-adv-x="296" 
d="M195 500v-442l75 -50v-8h-240v8l75 50v331l-58 60v8zM85 710h126l73 -158h-15l-144 131h44l-142 -131h-15z" />
    <glyph glyph-name="idieresis" unicode="&#xef;" horiz-adv-x="296" 
d="M195 500v-442l75 -50v-8h-240v8l75 50v331l-58 60v8zM-11 639l69 75l69 -75l-69 -75zM169 639l69 75l69 -75l-69 -75z" />
    <glyph glyph-name="igrave" unicode="&#xec;" horiz-adv-x="296" 
d="M195 500v-442l75 -50v-8h-240v8l75 50v331l-58 60v8zM103 710l53 -158h-15l-164 158h126z" />
    <glyph glyph-name="ibreve" unicode="&#x12d;" horiz-adv-x="296" 
d="M195 500v-442l75 -50v-8h-240v8l75 50v331l-58 60v8zM148 547q-62 0 -95.5 47.5t-37.5 115.5h16q11 -43 42.5 -68.5t74.5 -25.5q44 0 75.5 25.5t41.5 68.5h16q-4 -68 -37.5 -115.5t-95.5 -47.5z" />
    <glyph glyph-name="i.dot" horiz-adv-x="296" 
d="M195 500v-442l75 -50v-8h-240v8l75 50v331l-58 60v8zM77 639l73 79l73 -79l-73 -79z" />
    <glyph glyph-name="imacron" unicode="&#x12b;" horiz-adv-x="296" 
d="M195 500v-442l75 -50v-8h-240v8l75 50v331l-58 60v8zM7 645h282v-50h-282v50z" />
    <glyph glyph-name="iogonek" unicode="&#x12f;" horiz-adv-x="296" 
d="M195 500v-442l75 -50v-8h-240v8l75 50v331l-58 60v8zM77 639l73 79l73 -79l-73 -79zM258 0q-73 -10 -108 -44t-35 -71q0 -25 14 -39t37 -14q26 0 46.5 16t34.5 41l11 -5q-9 -27 -28 -52t-45 -41t-59 -16q-38 0 -63 23t-25 59q0 33 23 65.5t67 56.5t107 33l14 2z" />
    <glyph glyph-name="itilde" unicode="&#x129;" horiz-adv-x="296" 
d="M195 500v-442l75 -50v-8h-240v8l75 50v331l-58 60v8zM10 574q5 60 26.5 88t52.5 28q24 0 48 -12t47 -24t43 -12q17 0 27.5 11t18.5 35h13q-5 -60 -26.5 -88t-52.5 -28q-23 0 -47.5 12t-47.5 24t-43 12q-17 0 -27.5 -11t-18.5 -35h-13z" />
    <glyph glyph-name="jcircumflex" unicode="&#x135;" horiz-adv-x="294" 
d="M106 -57v446l-58 60v8l148 43v-520q0 -47 -13 -81t-39.5 -63t-67.5 -61l-9 9q21 35 30 71t9 88zM84 710h126l73 -158h-15l-144 131h44l-142 -131h-15z" />
    <glyph glyph-name="ij" unicode="&#x133;" horiz-adv-x="590" 
d="M195 500v-442l75 -50v-8h-240v8l75 50v331l-58 60v8zM77 639l73 79l73 -79l-73 -79zM402 -57v446l-58 60v8l148 43v-520q0 -47 -13 -81t-39.5 -63t-67.5 -61l-9 9q21 35 30 71t9 88zM374 639l73 79l73 -79l-73 -79z" />
    <glyph glyph-name="kcommaaccent" unicode="&#x137;" horiz-adv-x="550" 
d="M249 271l62 60l151 -257l88 -66v-8h-161l-17 48zM191 720v-662l75 -50v-8h-240v8l75 50v551l-58 60v8zM386 433l-71 49v8h215v-8l-96 -55l-261 -255l1 53zM214 -117l45 71q38 -19 57 -42t19 -52q0 -15 -7.5 -33.5t-30 -36.5t-67.5 -34l-6 14q26 12 38 25.5t12 27.5
q0 20 -30 40z" />
    <glyph glyph-name="kgreenlandic" unicode="&#x138;" horiz-adv-x="554" 
d="M253 271l62 60l151 -257l88 -66v-8h-161l-17 48zM195 500v-442l75 -50v-8h-240v8l75 50v331l-58 60v8zM390 433l-71 49v8h215v-8l-96 -55l-261 -255l1 53z" />
    <glyph glyph-name="lacute" unicode="&#x13a;" horiz-adv-x="296" 
d="M195 720v-662l75 -50v-8h-240v8l75 50v551l-58 60v8zM105 493l60 -40l-60 -51l-58 47v8zM194 930h126l-164 -158h-15z" />
    <glyph glyph-name="lcaron" unicode="&#x13e;" horiz-adv-x="359" 
d="M195 720v-662l75 -50v-8h-240v8l75 50v551l-58 60v8zM105 493l60 -40l-60 -51l-58 47v8zM272 710h106l-91 -210h-15v210z" />
    <glyph glyph-name="lcommaaccent" unicode="&#x13c;" horiz-adv-x="296" 
d="M195 720v-662l75 -50v-8h-240v8l75 50v551l-58 60v8zM105 493l60 -40l-60 -51l-58 47v8zM97 -117l45 71q38 -19 57 -42t19 -52q0 -15 -7.5 -33.5t-30 -36.5t-67.5 -34l-6 14q26 12 38 25.5t12 27.5q0 20 -30 40z" />
    <glyph glyph-name="ldot" unicode="&#x140;" horiz-adv-x="356" 
d="M195 720v-662l75 -50v-8h-240v8l75 50v551l-58 60v8zM105 493l60 -40l-60 -51l-58 47v8zM248 375l73 79l73 -79l-73 -79z" />
    <glyph glyph-name="ntilde" unicode="&#xf1;" horiz-adv-x="601" 
d="M195 58l75 -50v-8h-240v8l75 50v331l-58 60v8l144 43v-90h4q47 47 90 68.5t87 21.5q65 0 99.5 -41.5t34.5 -118.5v-282l75 -50v-8h-240v8l75 50v260q0 59 -21.5 86.5t-67.5 27.5q-34 0 -67.5 -15t-64.5 -44v-315zM167 574q5 60 26.5 88t52.5 28q24 0 48 -12t47 -24
t43 -12q17 0 27.5 11t18.5 35h13q-5 -60 -26.5 -88t-52.5 -28q-23 0 -47.5 12t-47.5 24t-43 12q-17 0 -27.5 -11t-18.5 -35h-13z" />
    <glyph glyph-name="nacute" unicode="&#x144;" horiz-adv-x="601" 
d="M195 58l75 -50v-8h-240v8l75 50v331l-58 60v8l144 43v-90h4q47 47 90 68.5t87 21.5q65 0 99.5 -41.5t34.5 -118.5v-282l75 -50v-8h-240v8l75 50v260q0 59 -21.5 86.5t-67.5 27.5q-34 0 -67.5 -15t-64.5 -44v-315zM351 710h126l-164 -158h-15z" />
    <glyph glyph-name="ncaron" unicode="&#x148;" horiz-adv-x="601" 
d="M195 58l75 -50v-8h-240v8l75 50v331l-58 60v8l144 43v-90h4q47 47 90 68.5t87 21.5q65 0 99.5 -41.5t34.5 -118.5v-282l75 -50v-8h-240v8l75 50v260q0 59 -21.5 86.5t-67.5 27.5q-34 0 -67.5 -15t-64.5 -44v-315zM368 552h-126l-73 158h15l144 -131h-44l142 131h15z" />
    <glyph glyph-name="ncommaaccent" unicode="&#x146;" horiz-adv-x="601" 
d="M195 58l75 -50v-8h-240v8l75 50v331l-58 60v8l144 43v-90h4q47 47 90 68.5t87 21.5q65 0 99.5 -41.5t34.5 -118.5v-282l75 -50v-8h-240v8l75 50v260q0 59 -21.5 86.5t-67.5 27.5q-34 0 -67.5 -15t-64.5 -44v-315zM254 -117l45 71q38 -19 57 -42t19 -52q0 -15 -7.5 -33.5
t-30 -36.5t-67.5 -34l-6 14q26 12 38 25.5t12 27.5q0 20 -30 40z" />
    <glyph glyph-name="eng" unicode="&#x14b;" horiz-adv-x="590" 
d="M416 -57v375q0 59 -21.5 86.5t-67.5 27.5q-34 0 -67.5 -15t-64.5 -44v-315l75 -50v-8h-240v8l75 50v331l-58 60v8l144 43v-90h4q47 47 90 68.5t87 21.5q65 0 99.5 -41.5t34.5 -118.5v-360q0 -47 -13 -81t-39.5 -63t-67.5 -61l-9 9q21 35 30 71t9 88z" />
    <glyph glyph-name="napostrophe" unicode="&#x149;" horiz-adv-x="601" 
d="M74 649l45 71q38 -19 57 -42t19 -52q0 -15 -7.5 -33.5t-30 -36.5t-67.5 -34l-6 14q26 12 38 25.5t12 27.5q0 20 -30 40zM195 58l75 -50v-8h-240v8l75 50v331l-58 60v8l144 43v-90h4q47 47 90 68.5t87 21.5q65 0 99.5 -41.5t34.5 -118.5v-282l75 -50v-8h-240v8l75 50v260
q0 59 -21.5 86.5t-67.5 27.5q-34 0 -67.5 -15t-64.5 -44v-315z" />
    <glyph glyph-name="oacute" unicode="&#xf3;" horiz-adv-x="547" 
d="M400 193q0 54 -10.5 102t-30 85.5t-47 59t-62.5 21.5q-42 0 -72.5 -37t-30.5 -127q0 -54 10.5 -102t30 -85.5t47 -59t62.5 -21.5q42 0 72.5 37t30.5 127zM495 255q0 -80 -30 -139.5t-82 -92.5t-119 -33q-69 0 -116 33.5t-71.5 89.5t-24.5 122q0 80 30 139.5t82.5 92.5
t118.5 33q69 0 116.5 -33.5t71.5 -89.5t24 -122zM320 710h126l-164 -158h-15z" />
    <glyph glyph-name="ocircumflex" unicode="&#xf4;" horiz-adv-x="547" 
d="M400 193q0 54 -10.5 102t-30 85.5t-47 59t-62.5 21.5q-42 0 -72.5 -37t-30.5 -127q0 -54 10.5 -102t30 -85.5t47 -59t62.5 -21.5q42 0 72.5 37t30.5 127zM495 255q0 -80 -30 -139.5t-82 -92.5t-119 -33q-69 0 -116 33.5t-71.5 89.5t-24.5 122q0 80 30 139.5t82.5 92.5
t118.5 33q69 0 116.5 -33.5t71.5 -89.5t24 -122zM211 710h126l73 -158h-15l-144 131h44l-142 -131h-15z" />
    <glyph glyph-name="odieresis" unicode="&#xf6;" horiz-adv-x="547" 
d="M400 193q0 54 -10.5 102t-30 85.5t-47 59t-62.5 21.5q-42 0 -72.5 -37t-30.5 -127q0 -54 10.5 -102t30 -85.5t47 -59t62.5 -21.5q42 0 72.5 37t30.5 127zM495 255q0 -80 -30 -139.5t-82 -92.5t-119 -33q-69 0 -116 33.5t-71.5 89.5t-24.5 122q0 80 30 139.5t82.5 92.5
t118.5 33q69 0 116.5 -33.5t71.5 -89.5t24 -122zM115 639l69 75l69 -75l-69 -75zM295 639l69 75l69 -75l-69 -75z" />
    <glyph glyph-name="ograve" unicode="&#xf2;" horiz-adv-x="547" 
d="M400 193q0 54 -10.5 102t-30 85.5t-47 59t-62.5 21.5q-42 0 -72.5 -37t-30.5 -127q0 -54 10.5 -102t30 -85.5t47 -59t62.5 -21.5q42 0 72.5 37t30.5 127zM495 255q0 -80 -30 -139.5t-82 -92.5t-119 -33q-69 0 -116 33.5t-71.5 89.5t-24.5 122q0 80 30 139.5t82.5 92.5
t118.5 33q69 0 116.5 -33.5t71.5 -89.5t24 -122zM229 710l53 -158h-15l-164 158h126z" />
    <glyph glyph-name="otilde" unicode="&#xf5;" horiz-adv-x="547" 
d="M400 193q0 54 -10.5 102t-30 85.5t-47 59t-62.5 21.5q-42 0 -72.5 -37t-30.5 -127q0 -54 10.5 -102t30 -85.5t47 -59t62.5 -21.5q42 0 72.5 37t30.5 127zM495 255q0 -80 -30 -139.5t-82 -92.5t-119 -33q-69 0 -116 33.5t-71.5 89.5t-24.5 122q0 80 30 139.5t82.5 92.5
t118.5 33q69 0 116.5 -33.5t71.5 -89.5t24 -122zM136 574q5 60 26.5 88t52.5 28q24 0 48 -12t47 -24t43 -12q17 0 27.5 11t18.5 35h13q-5 -60 -26.5 -88t-52.5 -28q-23 0 -47.5 12t-47.5 24t-43 12q-17 0 -27.5 -11t-18.5 -35h-13z" />
    <glyph glyph-name="obreve" unicode="&#x14f;" horiz-adv-x="547" 
d="M400 193q0 54 -10.5 102t-30 85.5t-47 59t-62.5 21.5q-42 0 -72.5 -37t-30.5 -127q0 -54 10.5 -102t30 -85.5t47 -59t62.5 -21.5q42 0 72.5 37t30.5 127zM495 255q0 -80 -30 -139.5t-82 -92.5t-119 -33q-69 0 -116 33.5t-71.5 89.5t-24.5 122q0 80 30 139.5t82.5 92.5
t118.5 33q69 0 116.5 -33.5t71.5 -89.5t24 -122zM274 547q-62 0 -95.5 47.5t-37.5 115.5h16q11 -43 42.5 -68.5t74.5 -25.5q44 0 75.5 25.5t41.5 68.5h16q-4 -68 -37.5 -115.5t-95.5 -47.5z" />
    <glyph glyph-name="ohungarumlaut" unicode="&#x151;" horiz-adv-x="547" 
d="M400 193q0 54 -10.5 102t-30 85.5t-47 59t-62.5 21.5q-42 0 -72.5 -37t-30.5 -127q0 -54 10.5 -102t30 -85.5t47 -59t62.5 -21.5q42 0 72.5 37t30.5 127zM495 255q0 -80 -30 -139.5t-82 -92.5t-119 -33q-69 0 -116 33.5t-71.5 89.5t-24.5 122q0 80 30 139.5t82.5 92.5
t118.5 33q69 0 116.5 -33.5t71.5 -89.5t24 -122zM240 710h96l-134 -158h-15zM400 710h96l-134 -158h-15z" />
    <glyph glyph-name="omacron" unicode="&#x14d;" horiz-adv-x="547" 
d="M400 193q0 54 -10.5 102t-30 85.5t-47 59t-62.5 21.5q-42 0 -72.5 -37t-30.5 -127q0 -54 10.5 -102t30 -85.5t47 -59t62.5 -21.5q42 0 72.5 37t30.5 127zM495 255q0 -80 -30 -139.5t-82 -92.5t-119 -33q-69 0 -116 33.5t-71.5 89.5t-24.5 122q0 80 30 139.5t82.5 92.5
t118.5 33q69 0 116.5 -33.5t71.5 -89.5t24 -122zM133 645h282v-50h-282v50z" />
    <glyph glyph-name="racute" unicode="&#x155;" horiz-adv-x="400" 
d="M192 379q34 50 84 85.5t108 35.5l-5 -97q-71 0 -111 -12.5t-73 -43.5v-284l110 -55v-8h-275v8l75 50v331l-58 60v8l141 43v-121h4zM194 710h126l-164 -158h-15z" />
    <glyph glyph-name="rcaron" unicode="&#x159;" horiz-adv-x="400" 
d="M192 379q34 50 84 85.5t108 35.5l-5 -97q-71 0 -111 -12.5t-73 -43.5v-284l110 -55v-8h-275v8l75 50v331l-58 60v8l141 43v-121h4zM293 552h-126l-73 158h15l144 -131h-44l142 131h15z" />
    <glyph glyph-name="rcommaaccent" unicode="&#x157;" horiz-adv-x="400" 
d="M192 379q34 50 84 85.5t108 35.5l-5 -97q-71 0 -111 -12.5t-73 -43.5v-284l110 -55v-8h-275v8l75 50v331l-58 60v8l141 43v-121h4zM100 -117l45 71q38 -19 57 -42t19 -52q0 -15 -7.5 -33.5t-30 -36.5t-67.5 -34l-6 14q26 12 38 25.5t12 27.5q0 20 -30 40z" />
    <glyph glyph-name="scaron" unicode="&#x161;" horiz-adv-x="463" 
d="M79 23l76 -11l-82 -22v178h10q15 -39 42.5 -71.5t62 -52t69.5 -19.5q34 0 58.5 18.5t24.5 52.5q0 35 -24 60.5t-75 40.5l-50 15q-30 9 -57 26t-44 45t-17 70q0 60 41 98.5t125 38.5h141v-157h-10q-38 71 -76.5 97.5t-75.5 26.5q-34 0 -55 -19t-21 -51q0 -31 23 -53
t67 -36l50 -15q33 -10 62.5 -25.5t48.5 -43.5t19 -75q0 -50 -23.5 -83t-63 -49.5t-87.5 -16.5q-40 0 -81.5 10t-77.5 23zM299 552h-126l-73 158h15l144 -131h-44l142 131h15z" />
    <glyph glyph-name="sacute" unicode="&#x15b;" horiz-adv-x="463" 
d="M79 23l76 -11l-82 -22v178h10q15 -39 42.5 -71.5t62 -52t69.5 -19.5q34 0 58.5 18.5t24.5 52.5q0 35 -24 60.5t-75 40.5l-50 15q-30 9 -57 26t-44 45t-17 70q0 60 41 98.5t125 38.5h141v-157h-10q-38 71 -76.5 97.5t-75.5 26.5q-34 0 -55 -19t-21 -51q0 -31 23 -53
t67 -36l50 -15q33 -10 62.5 -25.5t48.5 -43.5t19 -75q0 -50 -23.5 -83t-63 -49.5t-87.5 -16.5q-40 0 -81.5 10t-77.5 23zM282 710h126l-164 -158h-15z" />
    <glyph glyph-name="scedilla" unicode="&#x15f;" horiz-adv-x="463" 
d="M79 23l76 -11l-82 -22v178h10q15 -39 42.5 -71.5t62 -52t69.5 -19.5q34 0 58.5 18.5t24.5 52.5q0 35 -24 60.5t-75 40.5l-50 15q-30 9 -57 26t-44 45t-17 70q0 60 41 98.5t125 38.5h141v-157h-10q-38 71 -76.5 97.5t-75.5 26.5q-34 0 -55 -19t-21 -51q0 -31 23 -53
t67 -36l50 -15q33 -10 62.5 -25.5t48.5 -43.5t19 -75q0 -50 -23.5 -83t-63 -49.5t-87.5 -16.5q-40 0 -81.5 10t-77.5 23zM209 -79l14 40q50 -9 81 -36.5t31 -62.5t-34.5 -56t-98.5 -21h-34l-30 88l8 5q26 -33 51 -49.5t47 -16.5q30 0 30 25q0 18 -20.5 38t-73.5 30l-4 8
l43 87h30z" />
    <glyph glyph-name="scircumflex" unicode="&#x15d;" horiz-adv-x="463" 
d="M79 23l76 -11l-82 -22v178h10q15 -39 42.5 -71.5t62 -52t69.5 -19.5q34 0 58.5 18.5t24.5 52.5q0 35 -24 60.5t-75 40.5l-50 15q-30 9 -57 26t-44 45t-17 70q0 60 41 98.5t125 38.5h141v-157h-10q-38 71 -76.5 97.5t-75.5 26.5q-34 0 -55 -19t-21 -51q0 -31 23 -53
t67 -36l50 -15q33 -10 62.5 -25.5t48.5 -43.5t19 -75q0 -50 -23.5 -83t-63 -49.5t-87.5 -16.5q-40 0 -81.5 10t-77.5 23zM173 710h126l73 -158h-15l-144 131h44l-142 -131h-15z" />
    <glyph glyph-name="uni0219" unicode="&#x219;" horiz-adv-x="463" 
d="M79 23l76 -11l-82 -22v178h10q15 -39 42.5 -71.5t62 -52t69.5 -19.5q34 0 58.5 18.5t24.5 52.5q0 35 -24 60.5t-75 40.5l-50 15q-30 9 -57 26t-44 45t-17 70q0 60 41 98.5t125 38.5h141v-157h-10q-38 71 -76.5 97.5t-75.5 26.5q-34 0 -55 -19t-21 -51q0 -31 23 -53
t67 -36l50 -15q33 -10 62.5 -25.5t48.5 -43.5t19 -75q0 -50 -23.5 -83t-63 -49.5t-87.5 -16.5q-40 0 -81.5 10t-77.5 23zM175 -117l45 71q38 -19 57 -42t19 -52q0 -15 -7.5 -33.5t-30 -36.5t-67.5 -34l-6 14q26 12 38 25.5t12 27.5q0 20 -30 40z" />
    <glyph glyph-name="tbar" unicode="&#x167;" horiz-adv-x="402" 
d="M11 295h311v-37h-311v37zM196 661v-501q0 -53 18 -79t55 -26q28 0 53 16t48 50l14 -8q-28 -61 -72.5 -92t-92.5 -31q-50 0 -81.5 34.5t-31.5 103.5v479l80 54h10zM11 445v8l23 37h330v-8l-23 -37h-330z" />
    <glyph glyph-name="tcaron" unicode="&#x165;" horiz-adv-x="402" 
d="M196 661v-501q0 -53 18 -79t55 -26q28 0 53 16t48 50l14 -8q-28 -61 -72.5 -92t-92.5 -31q-50 0 -81.5 34.5t-31.5 103.5v479l80 54h10zM11 445v8l23 37h330v-8l-23 -37h-330zM273 770h106l-91 -210h-15v210z" />
    <glyph glyph-name="uni0163" unicode="&#x163;" horiz-adv-x="402" 
d="M196 661v-501q0 -53 18 -79t55 -26q28 0 53 16t48 50l14 -8q-28 -61 -72.5 -92t-92.5 -31q-50 0 -81.5 34.5t-31.5 103.5v479l80 54h10zM11 445v8l23 37h330v-8l-23 -37h-330zM148 -117l45 71q38 -19 57 -42t19 -52q0 -15 -7.5 -33.5t-30 -36.5t-67.5 -34l-6 14
q26 12 38 25.5t12 27.5q0 20 -30 40z" />
    <glyph glyph-name="uni021B" unicode="&#x21b;" horiz-adv-x="402" 
d="M196 661v-501q0 -53 18 -79t55 -26q28 0 53 16t48 50l14 -8q-28 -61 -72.5 -92t-92.5 -31q-50 0 -81.5 34.5t-31.5 103.5v479l80 54h10zM11 445v8l23 37h330v-8l-23 -37h-330zM148 -117l45 71q38 -19 57 -42t19 -52q0 -15 -7.5 -33.5t-30 -36.5t-67.5 -34l-6 14
q26 12 38 25.5t12 27.5q0 20 -30 40z" />
    <glyph glyph-name="uacute" unicode="&#xfa;" horiz-adv-x="585" 
d="M484 500v-442l75 -50v-8h-161v80h-4q-46 -46 -87 -68t-83 -22q-61 0 -94 42t-33 118v239l-58 60v8l148 43v-328q0 -59 20 -86.5t62 -27.5q32 0 63.5 15.5t61.5 43.5v272l-78 60v8zM343 710h126l-164 -158h-15z" />
    <glyph glyph-name="ucircumflex" unicode="&#xfb;" horiz-adv-x="585" 
d="M484 500v-442l75 -50v-8h-161v80h-4q-46 -46 -87 -68t-83 -22q-61 0 -94 42t-33 118v239l-58 60v8l148 43v-328q0 -59 20 -86.5t62 -27.5q32 0 63.5 15.5t61.5 43.5v272l-78 60v8zM234 710h126l73 -158h-15l-144 131h44l-142 -131h-15z" />
    <glyph glyph-name="udieresis" unicode="&#xfc;" horiz-adv-x="585" 
d="M484 500v-442l75 -50v-8h-161v80h-4q-46 -46 -87 -68t-83 -22q-61 0 -94 42t-33 118v239l-58 60v8l148 43v-328q0 -59 20 -86.5t62 -27.5q32 0 63.5 15.5t61.5 43.5v272l-78 60v8zM138 639l69 75l69 -75l-69 -75zM318 639l69 75l69 -75l-69 -75z" />
    <glyph glyph-name="ugrave" unicode="&#xf9;" horiz-adv-x="585" 
d="M484 500v-442l75 -50v-8h-161v80h-4q-46 -46 -87 -68t-83 -22q-61 0 -94 42t-33 118v239l-58 60v8l148 43v-328q0 -59 20 -86.5t62 -27.5q32 0 63.5 15.5t61.5 43.5v272l-78 60v8zM252 710l53 -158h-15l-164 158h126z" />
    <glyph glyph-name="ubreve" unicode="&#x16d;" horiz-adv-x="585" 
d="M484 500v-442l75 -50v-8h-161v80h-4q-46 -46 -87 -68t-83 -22q-61 0 -94 42t-33 118v239l-58 60v8l148 43v-328q0 -59 20 -86.5t62 -27.5q32 0 63.5 15.5t61.5 43.5v272l-78 60v8zM297 547q-62 0 -95.5 47.5t-37.5 115.5h16q11 -43 42.5 -68.5t74.5 -25.5q44 0 75.5 25.5
t41.5 68.5h16q-4 -68 -37.5 -115.5t-95.5 -47.5z" />
    <glyph glyph-name="uhungarumlaut" unicode="&#x171;" horiz-adv-x="585" 
d="M484 500v-442l75 -50v-8h-161v80h-4q-46 -46 -87 -68t-83 -22q-61 0 -94 42t-33 118v239l-58 60v8l148 43v-328q0 -59 20 -86.5t62 -27.5q32 0 63.5 15.5t61.5 43.5v272l-78 60v8zM263 710h96l-134 -158h-15zM423 710h96l-134 -158h-15z" />
    <glyph glyph-name="umacron" unicode="&#x16b;" horiz-adv-x="585" 
d="M484 500v-442l75 -50v-8h-161v80h-4q-46 -46 -87 -68t-83 -22q-61 0 -94 42t-33 118v239l-58 60v8l148 43v-328q0 -59 20 -86.5t62 -27.5q32 0 63.5 15.5t61.5 43.5v272l-78 60v8zM156 645h282v-50h-282v50z" />
    <glyph glyph-name="uogonek" unicode="&#x173;" horiz-adv-x="585" 
d="M484 500v-442l75 -50v-8h-161v80h-4q-46 -46 -87 -68t-83 -22q-61 0 -94 42t-33 118v239l-58 60v8l148 43v-328q0 -59 20 -86.5t62 -27.5q32 0 63.5 15.5t61.5 43.5v272l-78 60v8zM559 0q-73 -10 -108 -44t-35 -71q0 -25 14 -39t37 -14q26 0 46.5 16t34.5 41l11 -5
q-9 -27 -28 -52t-45 -41t-59 -16q-38 0 -63 23t-25 59q0 33 23 65.5t67 56.5t107 33l14 2z" />
    <glyph glyph-name="uring" unicode="&#x16f;" horiz-adv-x="585" 
d="M484 500v-442l75 -50v-8h-161v80h-4q-46 -46 -87 -68t-83 -22q-61 0 -94 42t-33 118v239l-58 60v8l148 43v-328q0 -59 20 -86.5t62 -27.5q32 0 63.5 15.5t61.5 43.5v272l-78 60v8zM297 741q43 0 70.5 -28t27.5 -69t-27.5 -69t-70.5 -28t-70.5 28t-27.5 69t27.5 69
t70.5 28zM297 707q-25 0 -42.5 -18t-17.5 -45t17.5 -45t42.5 -18q26 0 43 18t17 45t-17 45t-43 18z" />
    <glyph glyph-name="utilde" unicode="&#x169;" horiz-adv-x="585" 
d="M484 500v-442l75 -50v-8h-161v80h-4q-46 -46 -87 -68t-83 -22q-61 0 -94 42t-33 118v239l-58 60v8l148 43v-328q0 -59 20 -86.5t62 -27.5q32 0 63.5 15.5t61.5 43.5v272l-78 60v8zM159 574q5 60 26.5 88t52.5 28q24 0 48 -12t47 -24t43 -12q17 0 27.5 11t18.5 35h13
q-5 -60 -26.5 -88t-52.5 -28q-23 0 -47.5 12t-47.5 24t-43 12q-17 0 -27.5 -11t-18.5 -35h-13z" />
    <glyph glyph-name="wacute" unicode="&#x1e83;" horiz-adv-x="769" 
d="M252 85l151 346l-26 51v8h91v-8l-36 -82l-5 -11l-178 -399h-24l-155 437l-66 55v8h232v-8l-71 -49l113 -346zM699 427l-134 -437h-24l-215 492v8h121v-8l-3 -49v0l146 -346h-33l102 346l-71 49v8h177v-8zM437 710h126l-164 -158h-15z" />
    <glyph glyph-name="wcircumflex" unicode="&#x175;" horiz-adv-x="769" 
d="M252 85l151 346l-26 51v8h91v-8l-36 -82l-5 -11l-178 -399h-24l-155 437l-66 55v8h232v-8l-71 -49l113 -346zM699 427l-134 -437h-24l-215 492v8h121v-8l-3 -49v0l146 -346h-33l102 346l-71 49v8h177v-8zM328 710h126l73 -158h-15l-144 131h44l-142 -131h-15z" />
    <glyph glyph-name="wdieresis" unicode="&#x1e85;" horiz-adv-x="769" 
d="M252 85l151 346l-26 51v8h91v-8l-36 -82l-5 -11l-178 -399h-24l-155 437l-66 55v8h232v-8l-71 -49l113 -346zM699 427l-134 -437h-24l-215 492v8h121v-8l-3 -49v0l146 -346h-33l102 346l-71 49v8h177v-8zM232 639l69 75l69 -75l-69 -75zM412 639l69 75l69 -75l-69 -75z
" />
    <glyph glyph-name="wgrave" unicode="&#x1e81;" horiz-adv-x="769" 
d="M252 85l151 346l-26 51v8h91v-8l-36 -82l-5 -11l-178 -399h-24l-155 437l-66 55v8h232v-8l-71 -49l113 -346zM699 427l-134 -437h-24l-215 492v8h121v-8l-3 -49v0l146 -346h-33l102 346l-71 49v8h177v-8zM346 710l53 -158h-15l-164 158h126z" />
    <glyph glyph-name="yacute" unicode="&#xfd;" horiz-adv-x="519" 
d="M254 56l-1 -66l-185 437l-66 55v8h231v-8l-71 -49l143 -346h-28l134 346l-71 49v8h177v-8l-66 -55l-235 -589l-20 38l104 -83v-8h-217v8l111 79l-36 -45zM328 710h126l-164 -158h-15z" />
    <glyph glyph-name="ydieresis" unicode="&#xff;" horiz-adv-x="519" 
d="M254 56l-1 -66l-185 437l-66 55v8h231v-8l-71 -49l143 -346h-28l134 346l-71 49v8h177v-8l-66 -55l-235 -589l-20 38l104 -83v-8h-217v8l111 79l-36 -45zM123 639l69 75l69 -75l-69 -75zM303 639l69 75l69 -75l-69 -75z" />
    <glyph glyph-name="ycircumflex" unicode="&#x177;" horiz-adv-x="519" 
d="M254 56l-1 -66l-185 437l-66 55v8h231v-8l-71 -49l143 -346h-28l134 346l-71 49v8h177v-8l-66 -55l-235 -589l-20 38l104 -83v-8h-217v8l111 79l-36 -45zM219 710h126l73 -158h-15l-144 131h44l-142 -131h-15z" />
    <glyph glyph-name="ygrave" unicode="&#x1ef3;" horiz-adv-x="519" 
d="M254 56l-1 -66l-185 437l-66 55v8h231v-8l-71 -49l143 -346h-28l134 346l-71 49v8h177v-8l-66 -55l-235 -589l-20 38l104 -83v-8h-217v8l111 79l-36 -45zM237 710l53 -158h-15l-164 158h126z" />
    <glyph glyph-name="zcaron" unicode="&#x17e;" horiz-adv-x="492" 
d="M60 333l11 175l85 -18h277v-24l-291 -462l-14 31h249l-49 -26l98 172h10v-181h-386v24l291 462l12 -31h-224l56 31l-115 -153h-10zM315 552h-126l-73 158h15l144 -131h-44l142 131h15z" />
    <glyph glyph-name="zacute" unicode="&#x17a;" horiz-adv-x="492" 
d="M60 333l11 175l85 -18h277v-24l-291 -462l-14 31h249l-49 -26l98 172h10v-181h-386v24l291 462l12 -31h-224l56 31l-115 -153h-10zM298 710h126l-164 -158h-15z" />
    <glyph glyph-name="zdotaccent" unicode="&#x17c;" horiz-adv-x="492" 
d="M60 333l11 175l85 -18h277v-24l-291 -462l-14 31h249l-49 -26l98 172h10v-181h-386v24l291 462l12 -31h-224l56 31l-115 -153h-10zM179 639l73 79l73 -79l-73 -79z" />
    <glyph glyph-name="acute" unicode="&#xb4;" horiz-adv-x="500" 
d="M296 710h126l-164 -158h-15z" />
    <glyph glyph-name="grave" unicode="`" horiz-adv-x="500" 
d="M205 710l53 -158h-15l-164 158h126z" />
    <glyph glyph-name="circumflex" unicode="&#x2c6;" horiz-adv-x="500" 
d="M187 710h126l73 -158h-15l-144 131h44l-142 -131h-15z" />
    <glyph glyph-name="caron" unicode="&#x2c7;" horiz-adv-x="500" 
d="M313 552h-126l-73 158h15l144 -131h-44l142 131h15z" />
    <glyph glyph-name="tilde" unicode="&#x2dc;" horiz-adv-x="500" 
d="M112 574q5 60 26.5 88t52.5 28q24 0 48 -12t47 -24t43 -12q17 0 27.5 11t18.5 35h13q-5 -60 -26.5 -88t-52.5 -28q-23 0 -47.5 12t-47.5 24t-43 12q-17 0 -27.5 -11t-18.5 -35h-13z" />
    <glyph glyph-name="dieresis" unicode="&#xa8;" horiz-adv-x="500" 
d="M91 639l69 75l69 -75l-69 -75zM271 639l69 75l69 -75l-69 -75z" />
    <glyph glyph-name="ring" unicode="&#x2da;" horiz-adv-x="500" 
d="M250 741q43 0 70.5 -28t27.5 -69t-27.5 -69t-70.5 -28t-70.5 28t-27.5 69t27.5 69t70.5 28zM250 707q-25 0 -42.5 -18t-17.5 -45t17.5 -45t42.5 -18q26 0 43 18t17 45t-17 45t-43 18z" />
    <glyph glyph-name="cedilla" unicode="&#xb8;" horiz-adv-x="500" 
d="M223 -79l14 40q50 -9 81 -36.5t31 -62.5t-34.5 -56t-98.5 -21h-34l-30 88l8 5q26 -33 51 -49.5t47 -16.5q30 0 30 25q0 18 -20.5 38t-73.5 30l-4 8l43 87h30z" />
    <glyph glyph-name="hungarumlaut" unicode="&#x2dd;" horiz-adv-x="500" 
d="M216 710h96l-134 -158h-15zM376 710h96l-134 -158h-15z" />
    <glyph glyph-name="breve" unicode="&#x2d8;" horiz-adv-x="500" 
d="M250 547q-62 0 -95.5 47.5t-37.5 115.5h16q11 -43 42.5 -68.5t74.5 -25.5q44 0 75.5 25.5t41.5 68.5h16q-4 -68 -37.5 -115.5t-95.5 -47.5z" />
    <glyph glyph-name="macron" unicode="&#xaf;" horiz-adv-x="500" 
d="M109 645h282v-50h-282v50z" />
    <glyph glyph-name="dotaccent" unicode="&#x2d9;" horiz-adv-x="500" 
d="M177 639l73 79l73 -79l-73 -79z" />
    <glyph glyph-name="periodcentered" unicode="&#xb7;" horiz-adv-x="500" 
d="M177 375l73 79l73 -79l-73 -79z" />
    <glyph glyph-name="ogonek" unicode="&#x2db;" horiz-adv-x="500" 
d="M360 0q-73 -10 -108 -44t-35 -71q0 -25 14 -39t37 -14q26 0 46.5 16t34.5 41l11 -5q-9 -27 -28 -52t-45 -41t-59 -16q-38 0 -63 23t-25 59q0 33 23 65.5t67 56.5t107 33l14 2z" />
    <glyph glyph-name="commaaccent" unicode="&#xf6c3;" horiz-adv-x="500" 
d="M189 -117l45 71q38 -19 57 -42t19 -52q0 -15 -7.5 -33.5t-30 -36.5t-67.5 -34l-6 14q26 12 38 25.5t12 27.5q0 20 -30 40z" />
    <glyph glyph-name="caron.alt" horiz-adv-x="500" 
d="M242 710h106l-91 -210h-15v210z" />
    <glyph glyph-name="revcommaaccent" horiz-adv-x="500" 
d="M310 618l-45 -71q-38 20 -57 43t-19 51q0 16 7.5 34t30 36t67.5 34l6 -14q-26 -12 -38 -25.5t-12 -27.5q0 -20 30 -40z" />
    <glyph glyph-name="period" unicode="." horiz-adv-x="244" 
d="M47 71l75 82l75 -82l-75 -81z" />
    <glyph glyph-name="comma" unicode="," horiz-adv-x="244" 
d="M53 77l70 76l24 -21q24 -21 38 -47.5t14 -58.5q0 -44 -34.5 -95.5t-118.5 -123.5l-10 9q43 47 61 86t18 71q0 21 -6.5 39t-20.5 31z" />
    <glyph glyph-name="colon" unicode=":" horiz-adv-x="244" 
d="M47 71l75 82l75 -82l-75 -81zM47 418l75 82l75 -82l-75 -81z" />
    <glyph glyph-name="semicolon" unicode=";" horiz-adv-x="244" 
d="M47 418l75 82l75 -82l-75 -81zM52 77l70 76l24 -21q24 -21 38 -47.5t14 -58.5q0 -44 -34.5 -95.5t-118.5 -123.5l-10 9q43 47 61 86t18 71q0 21 -6.5 39t-20.5 31z" />
    <glyph glyph-name="ellipsis" unicode="&#x2026;" horiz-adv-x="746" 
d="M47 71l75 82l75 -82l-75 -81zM298 71l75 82l75 -82l-75 -81zM549 71l75 82l75 -82l-75 -81z" />
    <glyph glyph-name="question" unicode="?" horiz-adv-x="443" 
d="M36 685h125q131 0 191.5 -39.5t60.5 -115.5q0 -47 -23 -84t-71 -70t-122 -70l25 32v-128h-12l-73 90q94 62 130 116.5t36 114.5q0 53 -24 86.5t-73 33.5q-48 0 -89 -35t-59 -102h-12zM127 71l75 82l75 -82l-75 -81z" />
    <glyph glyph-name="exclam" unicode="!" horiz-adv-x="264" 
d="M69 625l63 70l63 -70l-57 -415h-12zM57 71l75 82l75 -82l-75 -81z" />
    <glyph glyph-name="questiondown" unicode="&#xbf;" horiz-adv-x="443" 
d="M407 -195h-125q-130 0 -191 39.5t-61 115.5q0 48 23 84.5t71 69.5t122 70l-25 -32v128h12l73 -90q-94 -62 -130 -116.5t-36 -114.5q0 -53 24 -86.5t73 -33.5q48 0 89 35t59 102h12zM316 419l-75 -82l-75 82l75 81z" />
    <glyph glyph-name="exclamdown" unicode="&#xa1;" horiz-adv-x="264" 
d="M195 -135l-63 -70l-63 70l57 415h12zM207 419l-75 -82l-75 82l75 81z" />
    <glyph glyph-name="parenleft" unicode="(" horiz-adv-x="361" 
d="M66 280q0 88 32.5 170t91 151t136.5 119l9 -13q-84 -91 -124 -194.5t-40 -232.5t40 -232t124 -195l-9 -13q-78 50 -136.5 119t-91 151t-32.5 170z" />
    <glyph glyph-name="parenright" unicode=")" horiz-adv-x="361" 
d="M295 280q0 -88 -32.5 -170t-90.5 -151t-137 -119l-9 13q84 92 124 195t40 232t-40 232.5t-124 194.5l9 13q79 -50 137 -119t90.5 -151t32.5 -170z" />
    <glyph glyph-name="braceleft" unicode="{" horiz-adv-x="374" 
d="M112 -27q0 34 11.5 67t23 66.5t11.5 68.5q0 49 -30 70t-91 27v16q61 6 91 27t30 70q0 35 -11.5 68.5t-23 66.5t-11.5 67q0 58 47.5 92t131.5 34q15 0 30 -0.5t28 -2.5l-2 -28q-7 1 -14 1.5t-13 0.5q-41 0 -63 -13t-30 -32.5t-8 -41.5q0 -43 12.5 -90t12.5 -91
q0 -47 -19 -74t-48.5 -40t-62.5 -20v-4q33 -6 62.5 -19.5t48.5 -40t19 -74.5q0 -44 -12.5 -91t-12.5 -90q0 -21 8 -41t30 -33t62 -13q6 0 13.5 0.5t14.5 1.5l2 -28q-13 -1 -28 -2t-30 -1q-84 0 -131.5 34t-47.5 92z" />
    <glyph glyph-name="braceright" unicode="}" horiz-adv-x="374" 
d="M262 587q0 -34 -11.5 -67t-23 -66.5t-11.5 -68.5q0 -49 30 -70t91 -27v-16q-61 -6 -91 -27t-30 -70q0 -35 11.5 -68.5t23 -66.5t11.5 -67q0 -58 -47.5 -92t-131.5 -34q-15 0 -30 1t-28 2l2 28q8 -1 15 -1.5t13 -0.5q41 0 62.5 13t29.5 33t8 41q0 43 -12.5 90t-12.5 91
q0 48 19 74.5t49 40t62 19.5v4q-32 7 -62 20t-49 40t-19 74q0 44 12.5 91t12.5 90q0 22 -8 41.5t-29.5 32.5t-62.5 13q-6 0 -13 -0.5t-15 -1.5l-2 28q13 2 28 2.5t30 0.5q84 0 131.5 -34t47.5 -92z" />
    <glyph glyph-name="bracketleft" unicode="[" horiz-adv-x="390" 
d="M117 710h268v-31h-173v-798h173v-31h-268v860z" />
    <glyph glyph-name="bracketright" unicode="]" horiz-adv-x="390" 
d="M273 -150h-268v31h173v798h-173v31h268v-860z" />
    <glyph glyph-name="slash" unicode="/" horiz-adv-x="400" 
d="M325 710h55l-357 -860h-55z" />
    <glyph glyph-name="backslash" unicode="\" horiz-adv-x="400" 
d="M75 710l357 -860h-55l-357 860h55z" />
    <glyph glyph-name="underscore" unicode="_" horiz-adv-x="346" 
d="M10 -105h326v-45h-326v45z" />
    <glyph glyph-name="hyphen" unicode="-" horiz-adv-x="361" 
d="M60 259v8l17 51h224v-8l-17 -51h-224z" />
    <glyph glyph-name="uni00AD" unicode="&#xad;" horiz-adv-x="0" 
 />
    <glyph glyph-name="endash" unicode="&#x2013;" horiz-adv-x="500" 
d="M60 311h380v-45h-380v45z" />
    <glyph glyph-name="emdash" unicode="&#x2014;" horiz-adv-x="1000" 
d="M60 311h880v-45h-880v45z" />
    <glyph glyph-name="brokenbar" unicode="&#xa6;" horiz-adv-x="293" 
d="M114 710h65v-355h-65v355zM114 205h65v-355h-65v355z" />
    <glyph glyph-name="bar" unicode="|" horiz-adv-x="299" 
d="M117 710h65v-860h-65v860z" />
    <glyph glyph-name="guillemotleft" unicode="&#xab;" horiz-adv-x="611" 
d="M35 242v8l264 224l10 -12l-218 -233l-24 17h109l136 -217l-13 -11zM293 242v8l264 224l10 -12l-218 -233l-24 17h109l136 -217l-13 -11z" />
    <glyph glyph-name="guillemotright" unicode="&#xbb;" horiz-adv-x="611" 
d="M576 250v-8l-264 -224l-10 12l218 233l24 -17h-109l-136 217l13 11zM318 250v-8l-264 -224l-10 12l218 233l24 -17h-109l-136 217l13 11z" />
    <glyph glyph-name="guilsinglleft" unicode="&#x2039;" horiz-adv-x="353" 
d="M35 242v8l264 224l10 -12l-218 -233l-24 17h109l136 -217l-13 -11z" />
    <glyph glyph-name="guilsinglright" unicode="&#x203a;" horiz-adv-x="353" 
d="M318 250v-8l-264 -224l-10 12l218 233l24 -17h-109l-136 217l13 11z" />
    <glyph glyph-name="quotesinglbase" unicode="&#x201a;" horiz-adv-x="244" 
d="M53 77l70 76l19 -17q26 -23 41.5 -50.5t15.5 -59.5q0 -23 -12 -50t-45.5 -57t-98.5 -63l-7 12q50 32 64.5 57t14.5 49q0 20 -6.5 38t-20.5 31z" />
    <glyph glyph-name="quotedblbase" unicode="&#x201e;" horiz-adv-x="443" 
d="M53 77l70 76l19 -17q26 -23 41.5 -50.5t15.5 -59.5q0 -23 -12 -50t-45.5 -57t-98.5 -63l-7 12q50 32 64.5 57t14.5 49q0 20 -6.5 38t-20.5 31zM252 77l70 76l19 -17q26 -23 41.5 -50.5t15.5 -59.5q0 -23 -12 -50t-45.5 -57t-98.5 -63l-7 12q50 32 64.5 57t14.5 49
q0 20 -6.5 38t-20.5 31z" />
    <glyph glyph-name="quoteleft" unicode="&#x2018;" horiz-adv-x="244" 
d="M187 474l-70 -76l-19 17q-26 23 -41.5 50.5t-15.5 59.5q0 23 12 50t46 57t98 63l7 -12q-49 -31 -64 -56.5t-15 -49.5q0 -20 7 -37.5t20 -31.5z" />
    <glyph glyph-name="quotedblleft" unicode="&#x201c;" horiz-adv-x="443" 
d="M386 474l-70 -76l-19 17q-26 23 -41.5 50.5t-15.5 59.5q0 23 12 50t46 57t98 63l7 -12q-49 -31 -64 -56.5t-15 -49.5q0 -20 7 -37.5t20 -31.5zM187 474l-70 -76l-19 17q-26 23 -41.5 50.5t-15.5 59.5q0 23 12 50t46 57t98 63l7 -12q-49 -31 -64 -56.5t-15 -49.5
q0 -20 7 -37.5t20 -31.5z" />
    <glyph glyph-name="quoteright" unicode="&#x2019;" horiz-adv-x="244" 
d="M58 619l70 76l19 -17q26 -23 41.5 -50.5t15.5 -59.5q0 -23 -12 -50t-45.5 -57t-98.5 -63l-7 12q50 32 64.5 57t14.5 49q0 20 -6.5 38t-20.5 31z" />
    <glyph glyph-name="quotedblright" unicode="&#x201d;" horiz-adv-x="443" 
d="M58 619l70 76l19 -17q26 -23 41.5 -50.5t15.5 -59.5q0 -23 -12 -50t-45.5 -57t-98.5 -63l-7 12q50 32 64.5 57t14.5 49q0 20 -6.5 38t-20.5 31zM257 619l70 76l19 -17q26 -23 41.5 -50.5t15.5 -59.5q0 -23 -12 -50t-45.5 -57t-98.5 -63l-7 12q50 32 64.5 57t14.5 49
q0 20 -6.5 38t-20.5 31z" />
    <glyph glyph-name="quotesingle" unicode="'" horiz-adv-x="244" 
d="M183 627l-56 -227h-10l-56 227l61 68z" />
    <glyph glyph-name="quotedbl" unicode="&#x22;" horiz-adv-x="443" 
d="M183 627l-56 -227h-10l-56 227l61 68zM382 627l-56 -227h-10l-56 227l61 68z" />
    <glyph glyph-name="bullet" unicode="&#x2022;" horiz-adv-x="319" 
d="M50 304l109 119l110 -119l-110 -118z" />
    <glyph glyph-name="ampersand" unicode="&#x26;" horiz-adv-x="715" 
d="M285 656q-30 0 -48 -17t-18 -49q0 -40 23.5 -85t63.5 -94l284 -346l88 -57v-8h-179l-33 60l-248 300q-48 59 -65 103t-17 78q0 43 22 75t62 50.5t94 18.5h130v-195h-12q-22 83 -62.5 124.5t-84.5 41.5zM458 118q-18 -32 -51 -61.5t-76.5 -48t-95.5 -18.5q-83 0 -131 40
t-48 110q0 48 24 86.5t75.5 76t132.5 80.5l8 -25q-53 -31 -83 -67t-42.5 -72t-12.5 -68q0 -56 31 -87t79 -31q34 0 65.5 16.5t58.5 43.5t46 60l125 218l-81 56v8h195v-8l-74 -55z" />
    <glyph glyph-name="paragraph" unicode="&#xb6;" horiz-adv-x="628" 
d="M54 486q0 65 30.5 109.5t95.5 67t167 22.5h250v-8l-81 -57v-580q0 -56 -16 -99t-54 -67t-104 -24h-116v157h10q26 -63 66.5 -91t76.5 -28q29 0 47 18t18 55q0 29 -9.5 58t-18.5 51v550h-50v-550h-57v228v0q-87 -2 -143.5 19.5t-84 64.5t-27.5 104z" />
    <glyph glyph-name="dagger" unicode="&#x2020;" horiz-adv-x="458" 
d="M234 -150h-10l-59 472l50 74h28l50 -74zM240 370h-22l-40 315h102zM439 484l-75 -76l-59 59h-71v32h69l61 62zM19 484l75 77l61 -62h69v-32h-71l-59 -59z" />
    <glyph glyph-name="daggerdbl" unicode="&#x2021;" horiz-adv-x="482" 
d="M31 484l75 77l61 -62h69v-32h-71l-59 -59zM31 51l75 76l59 -59h71v-32h-69l-61 -62zM230 165h22l40 -315h-102zM252 370h-22l-40 315h102zM172 268l55 128h28l55 -128l-55 -129h-28zM451 484l-75 -76l-59 59h-71v32h69l61 62zM451 51l-75 -77l-61 62h-69v32h71l59 59z
" />
    <glyph glyph-name="section" unicode="&#xa7;" horiz-adv-x="529" 
d="M321 118l-18 17q38 10 66.5 38.5t28.5 73.5q0 37 -27 61.5t-92 46.5l-72 24q-68 23 -102 59t-34 92q0 76 54.5 115.5t141.5 39.5h154v-195h-12q-19 52 -45 87t-58.5 52.5t-69.5 17.5q-43 0 -64.5 -20t-21.5 -49q0 -25 10 -44.5t37 -36t77 -33.5l72 -24q46 -15 77 -37
t47 -51.5t16 -67.5q0 -45 -21 -79t-58 -55.5t-86 -31.5zM187 95q-46 16 -77 37.5t-47 51t-16 67.5q0 45 21 79t58.5 56t85.5 31l18 -17q-37 -10 -66 -38.5t-29 -73.5q0 -37 27.5 -61.5t91.5 -46.5l72 -24q46 -15 77 -37.5t47 -52t16 -67.5q0 -45 -24.5 -81t-68.5 -57
t-105 -21q-43 0 -87 12t-93 34l106 -13l-140 -33v0v220h12q45 -90 95.5 -136t111.5 -46q41 0 73 20.5t32 63.5q0 35 -24 60t-95 49z" />
    <glyph glyph-name="asterisk" unicode="*" horiz-adv-x="382" 
d="M147 653l44 42l44 -42l-39 -109h-10zM45 543l-14 60l58 17l75 -89l-5 -8zM89 400l-58 18l14 59l114 20l5 -8zM235 367l-44 -42l-44 42l39 109h10zM337 477l14 -60l-58 -17l-75 89l5 8zM293 620l58 -18l-14 -59l-114 -20l-5 8z" />
    <glyph glyph-name="trademark" unicode="&#x2122;" horiz-adv-x="852" 
d="M703 636l-121 -297h-24l-130 300v0l-65 42v4h115l118 -278h-19l114 278h116v-4l-49 -37zM422 368l41 -29v-4h-114v4l42 29l14 290l30 -7zM782 368l41 -29v-4h-148v4l41 29l-19 276l65 26zM212 368l42 -29v-4h-150v4l41 29v288h-62l-51 -80h-5v109h304v-109h-5l-52 80h-62
v-288z" />
    <glyph glyph-name="registered" unicode="&#xae;" horiz-adv-x="746" 
d="M343 656h-19v-148q4 0 8 -0.5t8 -0.5q46 0 72 22.5t26 59.5q0 40 -27.5 53.5t-67.5 13.5zM324 368l41 -29v-4h-150v4l42 29v283l-42 30v4h136q72 0 115 -24.5t43 -68.5q0 -43 -32 -69t-76 -37l-5 -1q-14 -3 -28.5 -4.5t-28.5 -1.5h-7.5h-7.5v-111zM362 491l62 13l85 -131
l45 -34v-4h-105l-9 27zM373 177q-70 0 -129.5 24t-103.5 68t-68.5 103t-24.5 128t24.5 128t68.5 103t103.5 68t129.5 24t129.5 -24t103.5 -68t68.5 -103t24.5 -128t-24.5 -128t-68.5 -103t-103.5 -68t-129.5 -24zM89 500q0 -82 37 -146.5t101.5 -102t145.5 -37.5
q82 0 146 37.5t101 102t37 146.5t-37 146.5t-101 102t-146 37.5q-81 0 -145.5 -37.5t-101.5 -102t-37 -146.5z" />
    <glyph glyph-name="copyright" unicode="&#xa9;" horiz-adv-x="836" 
d="M598 281l13 -6q-26 -80 -82.5 -122.5t-118.5 -42.5q-58 0 -101.5 30.5t-67 82.5t-23.5 117q0 75 30.5 131.5t84 87.5t122.5 31h119v-157h-10q-18 43 -40.5 69t-48 38.5t-52.5 12.5q-53 0 -84 -42.5t-31 -122.5q0 -71 22 -116t57 -66.5t73 -21.5q43 0 77.5 24t60.5 73z
M804 344q0 -82 -29 -151.5t-81.5 -121.5t-122.5 -81t-153 -29q-82 0 -152.5 29t-123 81t-81.5 121.5t-29 151.5t29 151.5t81.5 121.5t123 81t152.5 29q83 0 153 -29t122.5 -81t81.5 -121.5t29 -151.5zM762 344q0 74 -26 137.5t-72.5 110.5t-109 73t-136.5 26q-73 0 -136 -26
t-109.5 -73t-72.5 -110.5t-26 -137.5t26 -137.5t72.5 -110.5t109.5 -73t136 -26q74 0 136.5 26t109 73t72.5 110.5t26 137.5z" />
    <glyph glyph-name="at" unicode="@" horiz-adv-x="912" 
d="M596 46q37 8 74 32.5t68 63.5t49.5 90.5t18.5 113.5q0 87 -38 157.5t-108 112t-167 41.5q-85 0 -155.5 -32.5t-122.5 -91t-80.5 -138t-28.5 -174.5q0 -116 43.5 -202.5t127.5 -133.5t203 -47q67 0 125 15.5t104 45.5l13 -21q-48 -34 -119 -56t-156 -22
q-128 0 -216.5 51.5t-134.5 143t-46 210.5q0 108 36.5 198t101 155t148.5 101t179 36q83 0 147.5 -27.5t109 -74.5t67.5 -108t23 -129q0 -84 -32 -150.5t-84.5 -112t-114.5 -69.5t-121 -24h-6l11 63l63 199l-6 2q-18 -40 -49 -90.5t-71 -97.5t-86 -76h-88l-12 66
q-23 126 -5 224t71.5 154t137.5 56q41 0 74 -13t61 -34l-7 -40q-22 22 -49.5 35t-60.5 13q-34 0 -65 -18.5t-51.5 -62t-25.5 -116.5t14 -183l11 -64l-25 12q71 54 122.5 123.5t81.5 142.5t35 136l2 26v8l82 30h12l-81 -461z" />
    <glyph glyph-name="ordfeminine" unicode="&#xaa;" horiz-adv-x="432" 
d="M276 362v127q-58 -15 -91 -29.5t-47 -33t-14 -45.5q0 -29 14 -47t42 -18q40 0 96 46zM277 330q-46 -42 -78 -59t-62 -17q-43 0 -70 29t-27 75q0 32 14 55t43 40.5t73.5 33t105.5 32.5v53q0 45 -15.5 65.5t-45.5 20.5q-34 0 -72.5 -26t-70.5 -82h-8v135h311v-5l-21 -60
v-307l65 -43v-7h-138v67h-4z" />
    <glyph glyph-name="ordmasculine" unicode="&#xba;" horiz-adv-x="464" 
d="M340 429q0 62 -15.5 114t-44 84t-68.5 32q-35 0 -61 -31.5t-26 -108.5q0 -61 15.5 -113t44 -84t68.5 -32q35 0 61 31.5t26 107.5zM423 483q0 -69 -26 -120.5t-70.5 -80t-102.5 -28.5q-59 0 -100 29.5t-62 77.5t-21 105q0 69 26 120.5t71.5 79.5t102.5 28q60 0 100.5 -29
t61 -77t20.5 -105z" />
    <glyph glyph-name="numbersign" unicode="#" horiz-adv-x="659" 
d="M289 685h54l-218 -685h-54zM534 685h54l-218 -685h-54zM104 483h526v-45h-526v45zM29 241h526v-45h-526v45z" />
    <glyph glyph-name="uni2116" unicode="&#x2116;" horiz-adv-x="1148" 
d="M753 182h326v-38h-326v38zM540 0l-497 677v8h115l497 -677v-8h-115zM161 65l81 -57v-8h-203v8l81 57v524l41 -57v-467zM1024 429q0 62 -15.5 114t-44 84t-68.5 32q-35 0 -61 -31.5t-26 -108.5q0 -61 15.5 -113t44 -84t68.5 -32q35 0 61 31.5t26 107.5zM1107 483
q0 -69 -26 -120.5t-70.5 -80t-102.5 -28.5q-59 0 -100 29.5t-62 77.5t-21 105q0 69 26 120.5t71.5 79.5t102.5 28q60 0 100.5 -29t61 -77t20.5 -105zM564 620l-81 57v8h203v-8l-81 -57v-584l-41 57v527z" />
    <glyph glyph-name="Euro" unicode="&#x20ac;" horiz-adv-x="683" 
d="M454 398h-445v8l17 29h445v-8zM406 271h-400v8l17 29h400v-8zM445 685h163v-195h-12q-33 77 -86 112t-112 35q-85 0 -135.5 -66.5t-50.5 -189.5q0 -94 29.5 -165.5t80 -111t113.5 -39.5q67 0 117 43.5t86 108.5l14 -7q-22 -67 -60.5 -116.5t-89.5 -76.5t-113 -27
q-80 0 -141.5 45t-95.5 121t-34 170q0 102 40.5 183t114.5 128.5t172 47.5z" />
    <glyph glyph-name="dollar" unicode="$" horiz-adv-x="568" 
d="M351 771h39l-171 -867h-38zM298 685h174v-195h-12q-19 53 -48.5 87.5t-66 52t-78.5 17.5q-59 0 -87.5 -30.5t-28.5 -73.5q0 -40 21 -67t56.5 -46.5t76.5 -34.5l52 -19q43 -15 79 -40.5t58.5 -62.5t22.5 -89q0 -56 -27 -100t-77.5 -69t-120.5 -25q-43 0 -91.5 10.5
t-101.5 35.5l106 -13l-128 -33h-12v220h12q35 -86 93.5 -134t128.5 -48q53 0 91.5 29.5t38.5 87.5q0 59 -40 91.5t-99 53.5l-52 19q-43 16 -81 39.5t-61.5 59.5t-23.5 90q0 60 28.5 102t79.5 63.5t118 21.5z" />
    <glyph glyph-name="yen" unicode="&#xa5;" horiz-adv-x="615" 
d="M86 345h412v-37h-412v37zM86 228h412v-37h-412v37zM352 318v-253l81 -57v-8h-262v8l81 57v244l-176 313l-74 55v8h259v-8l-79 -49l158 -290h-17l188 318l8 -51l-104 72v8h198v-8l-74 -55z" />
    <glyph glyph-name="sterling" unicode="&#xa3;" horiz-adv-x="545" 
d="M391 318h-339v37h339v-37zM180 539q0 -42 13 -83t30.5 -81t30.5 -79t13 -78q0 -24 -9 -46.5t-34 -48t-74 -58.5l31 33l262 -20l-47 -27l104 144h12l-23 -195l-393 56l69 13l-83 -74h-12l-28 115q63 0 98.5 7t49.5 23.5t14 42.5q0 28 -12 56.5t-29.5 58.5t-35 61.5
t-29.5 66t-12 72.5q0 48 23.5 91t73 69.5t127.5 26.5h150v-195h-12q-16 52 -42 86.5t-58.5 52.5t-70.5 18q-51 0 -74 -30t-23 -78z" />
    <glyph glyph-name="cent" unicode="&#xa2;" horiz-adv-x="480" 
d="M317 653h39l-133 -672h-38zM289 567h119v-157h-10q-18 43 -40.5 69t-48 38.5t-52.5 12.5q-53 0 -84 -45.5t-31 -129.5q0 -74 22 -121.5t56.5 -70t73.5 -22.5q43 0 77.5 24t60.5 73l13 -6q-26 -80 -82.5 -122.5t-118.5 -42.5q-58 0 -101.5 31.5t-67 86t-23.5 122.5
q0 78 30.5 136.5t84 91t122.5 32.5z" />
    <glyph glyph-name="colonmonetary" unicode="&#x20a1;" horiz-adv-x="620" 
d="M356 771h39l-171 -867h-38zM456 771h39l-171 -867h-38zM382 685h163v-195h-12q-33 77 -86 112t-112 35q-85 0 -135.5 -66.5t-50.5 -189.5q0 -94 29.5 -165.5t80 -111t113.5 -39.5q67 0 117 43.5t86 108.5l14 -7q-22 -67 -60.5 -116.5t-89.5 -76.5t-113 -27q-81 0 -142 45
t-95 121t-34 170q0 102 40.5 183t114.5 128.5t172 47.5z" />
    <glyph glyph-name="uni20AE" unicode="&#x20ae;" horiz-adv-x="616" 
d="M112 345l392 115v-41l-392 -115v41zM112 224l392 115v-41l-392 -115v41zM358 65l81 -57v-8h-262v8l81 57v583h-151l46 25l-117 -183h-10v195h564v-195h-10l-117 183l46 -25h-151v-583z" />
    <glyph glyph-name="uni20B4" unicode="&#x20b4;" horiz-adv-x="603" 
d="M23 425h553v-37h-553v37zM23 308h553v-37h-553v37zM286 685q67 0 117 -21.5t78.5 -61.5t28.5 -97q0 -53 -22.5 -87.5t-57.5 -56.5t-75 -38l-52 -21q-58 -24 -98.5 -61t-40.5 -96q0 -58 38.5 -87.5t88.5 -29.5q65 0 123.5 48t101.5 134h12v-220v0l-140 33l106 13
q-53 -25 -101.5 -35.5t-91.5 -10.5q-70 0 -120.5 25t-77.5 68t-27 96q0 52 22.5 86.5t59.5 58t78 40.5l52 21q59 23 101 61.5t42 96.5q0 43 -27.5 73.5t-86.5 30.5q-41 0 -78 -17.5t-66.5 -52t-48.5 -87.5h-12v195h174z" />
    <glyph glyph-name="uni20BA" unicode="&#x20ba;" horiz-adv-x="554" 
d="M150 620l-81 57v8h262v-8l-81 -57v-583h97q63 0 98.5 30.5t35.5 96.5v54h43v-54q0 -77 -44 -120.5t-140 -43.5h-271v8l81 57v555zM23 375l392 115v-41l-392 -115v41zM23 254l392 115v-41l-392 -115v41z" />
    <glyph glyph-name="uni20B9" unicode="&#x20b9;" 
d="M77 685h67q84 0 146.5 -21.5t97 -61.5t34.5 -98q0 -60 -36.5 -102t-97.5 -66.5t-135 -32.5l-12 -1q-20 -1 -41 -1.5t-42 0.5v37q10 -1 19 -1h18q113 0 165.5 45.5t52.5 121.5q0 57 -25 88t-67 43.5t-94 12.5h-69zM513 648h-457v8l17 29h457v-8zM513 475h-457v8l17 29h457
v-8zM58 301l91 26l222 -252l89 -67v-8h-175l-29 60z" />
    <glyph glyph-name="dong" unicode="&#x20ab;" horiz-adv-x="562" 
d="M75 -113h462v-37h-462v37zM199 597h354v-37h-354v37zM388 100v301q-28 34 -58.5 48.5t-60.5 14.5q-57 0 -86.5 -47t-29.5 -126q0 -80 20.5 -133t53 -78.5t68.5 -25.5q28 0 52 13.5t41 32.5zM388 431v178l-58 60v8l148 43v-662l75 -50v-8h-161v63h-4q-32 -34 -67 -53.5
t-78 -19.5q-57 0 -98.5 32t-64 87.5t-22.5 125.5q0 79 29.5 138.5t81.5 93t121 33.5q32 0 64 -6t57 -17z" />
    <glyph glyph-name="uni20A9" unicode="&#x20a9;" horiz-adv-x="996" 
d="M5 363h420v-37h-420v37zM575 363h418v-37h-418v37zM5 443v37h465l-15 -37h-450zM551 443l-3 37h445v-37h-442zM181 628l156 -510l-17 1l203 509l-35 49v8h97v-8l-34 -97l-15 -26l-226 -564h-23l-210 632l-74 55v8h257v-8zM535 685l210 -567l-25 1l167 538l16 -52l-104 72
v8h194v-8l-74 -55l-201 -632h-23l-261 687v8h101z" />
    <glyph glyph-name="uni20AA" unicode="&#x20aa;" horiz-adv-x="684" 
d="M96 463l-44 70v6h221q59 0 96.5 -24.5t55.5 -70t18 -109.5v-144h-40v144q0 59 -32.5 86.5t-90.5 27.5h-143v-449h-41v463zM598 223q0 -82 -16.5 -131t-54 -70.5t-100.5 -21.5h-177v348h40v-258h137q78 0 104 32.5t26 90.5v326h94v-6l-53 -70v-240zM598 539l-41 -76
l-53 70v6h94zM96 76l41 -76h-94v6zM96 0l41 76l53 -70v-6h-94z" />
    <glyph glyph-name="uni20AD" unicode="&#x20ad;" horiz-adv-x="706" 
d="M39 376h184v-37h-184v37zM387 376h230v-37h-230v37zM234 255l-25 29l321 367l-8 -61l-84 87v8h228v-8l-143 -82l30 52l16 -15zM140 620l-81 57v8h262v-8l-81 -57v-555l81 -57v-8h-262v8l81 57v555zM706 0h-190l-22 63l-187 278l59 77l242 -344l98 -66v-8z" />
    <glyph glyph-name="uni20B1" unicode="&#x20b1;" horiz-adv-x="699" 
d="M39 557h643v-37h-643v37zM39 440h643v-37h-643v37zM274 648h-34v-338q14 -1 21.5 -1.5t16.5 -0.5q100 0 148.5 43t48.5 121q0 62 -27 101t-72.5 57t-101.5 18zM240 70l116 -62v-8h-297v8l81 57v555l-81 57v8h237q87 0 151.5 -22.5t100.5 -66t36 -107.5q0 -57 -26 -98
t-70.5 -68t-99.5 -40t-113 -13h-17.5h-17.5v-200z" />
    <glyph glyph-name="uni20B5" unicode="&#x20b5;" horiz-adv-x="620" 
d="M326 771h41v-867h-41v867zM382 685h163v-195h-12q-33 77 -86 112t-112 35q-85 0 -135.5 -66.5t-50.5 -189.5q0 -94 29.5 -165.5t80 -111t113.5 -39.5q67 0 117 43.5t86 108.5l14 -7q-22 -67 -60.5 -116.5t-89.5 -76.5t-113 -27q-81 0 -142 45t-95 121t-34 170
q0 102 40.5 183t114.5 128.5t172 47.5z" />
    <glyph glyph-name="uni20B8" unicode="&#x20b8;" horiz-adv-x="616" 
d="M26 685h564v-37h-564v37zM258 543h-121l-101 -158h-10v195h564v-195h-10l-101 158h-121v-478l81 -57v-8h-262v8l81 57v478z" />
    <glyph glyph-name="uni20BC" unicode="&#x20bc;" horiz-adv-x="790" 
d="M350 685h90v-555h-90v555zM395 525q111 0 181.5 -38t104.5 -107.5t34 -165.5v-214h-90v214q0 101 -21.5 161.5t-71.5 87.5t-137 27t-137 -27t-71.5 -87.5t-21.5 -161.5v-214h-90v214q0 96 33.5 165.5t104.5 107.5t182 38z" />
    <glyph glyph-name="uni20BD" unicode="&#x20bd;" horiz-adv-x="621" 
d="M39 190h396v-37h-396v37zM274 648h-34v-338q14 -1 21.5 -1.5t16.5 -0.5q100 0 148.5 43t48.5 121q0 62 -27 101t-72.5 57t-101.5 18zM240 70l116 -62v-8h-297v8l81 57v555l-81 57v8h237q87 0 151.5 -22.5t100.5 -66t36 -107.5q0 -57 -26 -98t-70.5 -68t-99.5 -40
t-113 -13h-17.5h-17.5v-200z" />
    <glyph glyph-name="currency" unicode="&#xa4;" horiz-adv-x="449" 
d="M224 191q-48 0 -78 31.5t-30 81.5t30 81t78 31q49 0 79 -31t30 -81t-30 -81.5t-79 -31.5zM224 145q46 0 82 20.5t56.5 56.5t20.5 82t-20.5 81.5t-56.5 56t-82 20.5t-81.5 -20.5t-56 -56t-20.5 -81.5t20.5 -82t56 -56.5t81.5 -20.5zM333 383l87 86l-32 32l-87 -86z
M116 224l-87 -86l32 -32l87 86zM333 224l-32 -32l87 -86l32 32zM116 383l32 32l-87 86l-32 -32z" />
    <glyph glyph-name="zero" unicode="0" horiz-adv-x="634" 
d="M166 404q0 -78 12.5 -145t35.5 -117.5t56 -79t75 -28.5t69 29t40.5 84t13.5 134q0 78 -12.5 145t-35.5 117.5t-56 79t-75 28.5t-69 -29t-40.5 -84t-13.5 -134zM573 346q0 -111 -34.5 -190.5t-94.5 -122.5t-135 -43q-81 0 -136.5 47t-83.5 126.5t-28 175.5q0 111 35 190.5
t94.5 122.5t134.5 43q82 0 137 -47t83 -126.5t28 -175.5z" />
    <glyph glyph-name="one" unicode="1" horiz-adv-x="363" 
d="M238 70l101 -62v-8h-317v8l116 62v486h-100v8l188 131h12v-625z" />
    <glyph glyph-name="two" unicode="2" horiz-adv-x="529" 
d="M68 685h146q62 0 106 -11.5t71.5 -32.5t40.5 -49t13 -62q0 -33 -13.5 -69t-48 -85.5t-94.5 -120t-153 -171.5v2h265l-57 -49l120 158h10l-23 -195h-405v38q91 108 148 183t87.5 127.5t42 92t11.5 76.5q0 61 -23.5 95.5t-69.5 34.5q-47 0 -90 -39.5t-72 -117.5h-12v195z
" />
    <glyph glyph-name="three" unicode="3" horiz-adv-x="517" 
d="M202 357l38 13q113 -23 167 -77.5t54 -122.5q0 -56 -33 -94t-87.5 -57t-117.5 -19h-158l-12 173h15q14 -38 41 -68t62.5 -47.5t73.5 -17.5q27 0 51.5 11t40 37t15.5 71t-17 85t-50.5 69.5t-82.5 43.5zM444 538q0 -47 -28 -90t-97 -76t-193 -51l-4 25q72 12 119 40t70 69
t23 91q0 56 -27 78.5t-62 22.5q-48 0 -90 -34.5t-68 -97.5h-15v170h134q81 0 133.5 -16.5t78.5 -49t26 -81.5z" />
    <glyph glyph-name="four" unicode="4" horiz-adv-x="524" 
d="M288 65v122h-263v8l215 490h117l-301 -488l-11 27h242v140l89 69h12v-209h126v-38h-126v-121l81 -57v-8h-262v8z" />
    <glyph glyph-name="five" unicode="5" horiz-adv-x="528" 
d="M239 0h-158l-12 173h15q14 -38 40.5 -68t61.5 -47.5t72 -17.5q59 0 84.5 39.5t25.5 99.5q0 56 -19 104t-53 77.5t-79 29.5q-24 0 -54 -12t-59 -47l-20 4l25 350h258l90 21l-28 -115h-287l-14 -201q30 27 63.5 37.5t71.5 10.5q66 0 114 -28.5t74.5 -78t26.5 -112.5
q0 -68 -31.5 -117.5t-85.5 -75.5t-122 -26z" />
    <glyph glyph-name="six" unicode="6" horiz-adv-x="538" 
d="M155 258q0 -116 37.5 -175.5t91.5 -59.5q46 0 74.5 40.5t28.5 112.5q0 61 -19 99t-49.5 56t-64.5 18q-25 0 -51.5 -9.5t-46.5 -28.5l-6 34q44 36 84 49t71 13q47 0 90 -22.5t70.5 -66.5t27.5 -110q0 -50 -16.5 -90.5t-46.5 -69t-69.5 -43.5t-84.5 -15q-62 0 -114.5 29.5
t-83.5 86.5t-31 140q0 97 46.5 182.5t132 154t203.5 112.5l8 -20q-81 -45 -135.5 -93t-86.5 -99.5t-46 -107t-14 -117.5z" />
    <glyph glyph-name="seven" unicode="7" horiz-adv-x="495" 
d="M155 648l-101 -158h-10v195h421v-8l-240 -677h-112l297 611l5 -19h-322z" />
    <glyph glyph-name="eight" unicode="8" horiz-adv-x="563" 
d="M341 380l-27 17q44 34 63 66t19 69q0 53 -32.5 89.5t-91.5 36.5q-49 0 -75.5 -27.5t-26.5 -69.5q0 -39 20 -68t54 -52.5t78 -46.5l25 -13q39 -20 77 -46t63 -62.5t25 -87.5q0 -55 -28.5 -99t-81 -70t-125.5 -26q-64 0 -113 21t-76.5 58t-27.5 86q0 47 23 84t60.5 65.5
t78.5 50.5l24 -22q-47 -35 -73.5 -76t-26.5 -87q0 -36 16 -69t48.5 -53.5t80.5 -20.5q55 0 92.5 27t37.5 85q0 50 -38 92t-132 91l-25 13q-67 35 -106.5 82t-39.5 111q0 53 28.5 90.5t75.5 57t104 19.5q51 0 95.5 -17t71.5 -50t27 -82q0 -41 -20.5 -73.5t-52.5 -55.5
t-68 -37z" />
    <glyph glyph-name="nine" unicode="9" horiz-adv-x="538" 
d="M383 427q0 116 -37.5 175.5t-91.5 59.5q-46 0 -74.5 -40.5t-28.5 -112.5q0 -60 19 -98.5t49.5 -56.5t64.5 -18q25 0 51.5 9.5t46.5 28.5l6 -34q-43 -36 -83 -49t-72 -13q-47 0 -90 22.5t-70.5 66.5t-27.5 110q0 50 16.5 90.5t46.5 69t69.5 43.5t84.5 15q63 0 115 -29.5
t83 -86.5t31 -140q0 -96 -46.5 -182t-132 -154t-203.5 -113l-8 20q81 45 135.5 93t86.5 99.5t46 107.5t14 117z" />
    <glyph glyph-name="zero.tlf" 
d="M131 404q0 -78 12.5 -145t35.5 -117.5t56 -79t75 -28.5q41 0 68.5 29t41 84t13.5 134q0 78 -12.5 145t-36 117.5t-56.5 79t-74 28.5t-68.5 -29t-41 -84t-13.5 -134zM538 346q0 -111 -35 -190.5t-94.5 -122.5t-134.5 -43q-81 0 -136.5 47t-83.5 126.5t-28 175.5
q0 111 35 190.5t94.5 122.5t134.5 43q81 0 136.5 -47t83.5 -126.5t28 -175.5z" />
    <glyph glyph-name="one.tlf" 
d="M338 70l121 -62v-8h-357v8l136 62v486h-120v8l208 131h12v-625z" />
    <glyph glyph-name="two.tlf" 
d="M423 86l-57 -49l120 158h10l-23 -195h-405v38q91 108 148 183t87.5 127.5t42 92t11.5 76.5q0 61 -23.5 95.5t-69.5 34.5q-47 0 -90 -39.5t-72 -117.5h-12v195h146q62 0 106 -11.5t71.5 -32.5t40.5 -49t13 -62q0 -33 -13.5 -69t-48 -85.5t-94.5 -120t-153 -171.5l-15 2
h280z" />
    <glyph glyph-name="three.tlf" 
d="M227 357l38 13q115 -24 170 -78t55 -122q0 -56 -34 -94t-89 -57t-119 -19h-162l-12 173h15q14 -38 41.5 -68t64 -47.5t75.5 -17.5q28 0 53.5 11t41.5 37t16 71t-17.5 85t-52 69.5t-84.5 43.5zM465 538q0 -47 -28 -90t-97 -76t-193 -51l-4 25q72 12 119 40t70 69t23 91
q0 56 -27 78.5t-62 22.5q-48 0 -90 -34.5t-68 -97.5h-15v170h134q81 0 133.5 -16.5t78.5 -49t26 -81.5z" />
    <glyph glyph-name="four.tlf" 
d="M300 65v122h-263v8l215 490h117l-301 -488l-11 27h242v140l89 69h12v-209h126v-38h-126v-121l81 -57v-8h-262v8z" />
    <glyph glyph-name="five.tlf" 
d="M247 0h-158l-12 173h15q14 -38 40.5 -68t61.5 -47.5t72 -17.5q59 0 84.5 39.5t25.5 99.5q0 56 -19 104t-53 77.5t-79 29.5q-24 0 -54 -12t-59 -47l-20 4l25 350h258l90 21l-28 -115h-287l-14 -201q30 27 63.5 37.5t71.5 10.5q66 0 114 -28.5t74.5 -78t26.5 -112.5
q0 -68 -31.5 -117.5t-85.5 -75.5t-122 -26z" />
    <glyph glyph-name="six.tlf" 
d="M167 258q0 -116 37.5 -175.5t91.5 -59.5q46 0 74.5 40.5t28.5 112.5q0 61 -19 99t-49.5 56t-64.5 18q-25 0 -51.5 -9.5t-46.5 -28.5l-6 34q44 36 84 49t71 13q47 0 90 -22.5t70.5 -66.5t27.5 -110q0 -50 -16.5 -90.5t-46.5 -69t-69.5 -43.5t-84.5 -15q-62 0 -114.5 29.5
t-83.5 86.5t-31 140q0 97 46.5 182.5t132 154t203.5 112.5l8 -20q-81 -45 -135.5 -93t-86.5 -99.5t-46 -107t-14 -117.5z" />
    <glyph glyph-name="seven.tlf" 
d="M182 648l-101 -158h-10v195h421v-8l-240 -677h-112l297 611l5 -19h-322z" />
    <glyph glyph-name="eight.tlf" 
d="M337 380l-27 17q44 34 63 66t19 69q0 53 -32.5 89.5t-91.5 36.5q-49 0 -75.5 -27.5t-26.5 -69.5q0 -39 19.5 -68t54 -52.5t78.5 -46.5l25 -13q39 -20 77 -46t63 -62.5t25 -87.5q0 -55 -28.5 -99t-81 -70t-125.5 -26q-64 0 -113 21t-76.5 58t-27.5 86q0 47 23 84
t60.5 65.5t78.5 50.5l24 -22q-47 -35 -73.5 -76t-26.5 -87q0 -36 16 -69t48.5 -53.5t80.5 -20.5q55 0 92.5 27t37.5 85q0 50 -38 92t-132 91l-25 13q-67 35 -106.5 82t-39.5 111q0 53 28.5 90.5t75.5 57t104 19.5q51 0 95.5 -17t71.5 -50t27 -82q0 -41 -20.5 -73.5
t-52.5 -55.5t-68 -37z" />
    <glyph glyph-name="nine.tlf" 
d="M397 427q0 116 -37.5 175.5t-91.5 59.5q-46 0 -74.5 -40.5t-28.5 -112.5q0 -60 19 -98.5t49.5 -56.5t64.5 -18q25 0 51.5 9.5t46.5 28.5l6 -34q-43 -36 -83 -49t-72 -13q-47 0 -90 22.5t-70.5 66.5t-27.5 110q0 50 16.5 90.5t46.5 69t69.5 43.5t84.5 15q63 0 115 -29.5
t83 -86.5t31 -140q0 -96 -46.5 -182t-132 -154t-203.5 -113l-8 20q81 45 135.5 93t86.5 99.5t46 107.5t14 117z" />
    <glyph glyph-name="zero.posf" horiz-adv-x="578" 
d="M289 -10q-66 0 -119.5 34.5t-84.5 97t-31 145.5q0 84 31 146.5t84.5 97t119.5 34.5q67 0 120 -34.5t84 -96.5t31 -146t-31 -146.5t-84 -97t-120 -34.5zM315 440q-48 0 -89 -14.5t-72 -41t-48 -62t-17 -76.5q0 -42 19.5 -76.5t58.5 -54.5t96 -20q48 0 89 14.5t72 40.5
t48 61.5t17 76.5q0 43 -19.5 77t-58 54.5t-96.5 20.5z" />
    <glyph glyph-name="one.posf" horiz-adv-x="369" 
d="M244 70l101 -62v-8h-317v8l116 62v336h-100v8l188 131h12v-475z" />
    <glyph glyph-name="two.posf" horiz-adv-x="504" 
d="M473 86l-10 -86h-425v38q89 61 142.5 111.5t81 92.5t36.5 77t9 64q0 51 -19 82.5t-59 31.5q-43 0 -85.5 -39.5t-71.5 -117.5h-12v195h146q113 0 162 -41t49 -103q0 -25 -11 -57t-41 -71.5t-86.5 -87t-147.5 -104.5l-18 15h360z" />
    <glyph glyph-name="three.posf" horiz-adv-x="480" 
d="M178 212l45 21q62 0 110.5 -18.5t76 -51.5t27.5 -79q0 -51 -33.5 -93t-92.5 -73.5t-136 -51t-163 -25.5l-3 24q63 8 120.5 24.5t102 42t70 61.5t25.5 84q0 62 -41.5 98.5t-107.5 36.5zM415 390q0 -44 -28 -85.5t-97 -74.5t-193 -51l-4 25q72 12 119 39t70 66t23 87
q0 56 -27 78.5t-62 22.5q-48 0 -90 -34.5t-68 -97.5h-15v170h134q81 0 133.5 -16.5t78.5 -48.5t26 -80z" />
    <glyph glyph-name="four.posf" horiz-adv-x="540" 
d="M301 -170v170h-263v8l215 527h107l-290 -526l2 28h228v177l89 69h12v-246h126v-38h-126v-149z" />
    <glyph glyph-name="five.posf" horiz-adv-x="506" 
d="M455 116q0 -58 -32 -106t-88.5 -84t-129.5 -57.5t-155 -27.5l-3 24q79 11 147 40t109.5 78t41.5 119q0 64 -35.5 101t-93.5 37q-35 0 -66.5 -15t-57.5 -44l-20 4l25 350h258l90 21l-28 -115h-313l28 30l-18 -252l-15 5q35 37 72 51.5t80 14.5q59 0 105 -21.5t72.5 -60.5
t26.5 -92z" />
    <glyph glyph-name="six.posf" horiz-adv-x="538" 
d="M155 258q0 -116 37.5 -175.5t91.5 -59.5q46 0 74.5 40.5t28.5 112.5q0 61 -19 99t-49.5 56t-64.5 18q-25 0 -51.5 -9.5t-46.5 -28.5l-6 34q44 36 84 49t71 13q47 0 90 -22.5t70.5 -66.5t27.5 -110q0 -50 -16.5 -90.5t-46.5 -69t-69.5 -43.5t-84.5 -15q-62 0 -114.5 29.5
t-83.5 86.5t-31 140q0 97 46.5 182.5t132 154t203.5 112.5l8 -20q-81 -45 -135.5 -93t-86.5 -99.5t-46 -107t-14 -117.5z" />
    <glyph glyph-name="seven.posf" horiz-adv-x="486" 
d="M235 -87l80 -55v-8h-205l300 619l17 -27h-341l46 25l-81 -127h-10v195h421v-8z" />
    <glyph glyph-name="eight.posf" horiz-adv-x="563" 
d="M341 380l-27 17q44 34 63 66t19 69q0 53 -32.5 89.5t-91.5 36.5q-49 0 -75.5 -27.5t-26.5 -69.5q0 -39 20 -68t54 -52.5t78 -46.5l25 -13q39 -20 77 -46t63 -62.5t25 -87.5q0 -55 -28.5 -99t-81 -70t-125.5 -26q-64 0 -113 21t-76.5 58t-27.5 86q0 47 23 84t60.5 65.5
t78.5 50.5l24 -22q-47 -35 -73.5 -76t-26.5 -87q0 -36 16 -69t48.5 -53.5t80.5 -20.5q55 0 92.5 27t37.5 85q0 50 -38 92t-132 91l-25 13q-67 35 -106.5 82t-39.5 111q0 53 28.5 90.5t75.5 57t104 19.5q51 0 95.5 -17t71.5 -50t27 -82q0 -41 -20.5 -73.5t-52.5 -55.5
t-68 -37z" />
    <glyph glyph-name="nine.posf" horiz-adv-x="538" 
d="M383 277q0 116 -37.5 175.5t-91.5 59.5q-46 0 -74.5 -40.5t-28.5 -112.5q0 -60 19 -98.5t49.5 -56.5t64.5 -18q25 0 51.5 9.5t46.5 28.5l6 -34q-43 -36 -83 -49t-72 -13q-47 0 -90 22t-70.5 66.5t-27.5 110.5q0 50 16.5 90.5t46.5 69t69.5 43.5t84.5 15q63 0 115 -29.5
t83 -86.5t31 -140q0 -96 -46.5 -182t-132 -154.5t-203.5 -112.5l-8 20q81 45 135.5 93t86.5 99.5t46 107t14 117.5z" />
    <glyph glyph-name="degree" unicode="&#xb0;" horiz-adv-x="358" 
d="M89 557q0 41 25 66t65 25q41 0 65.5 -25t24.5 -66t-24.5 -66t-65.5 -25q-40 0 -65 25t-25 66zM319 557q0 59 -39.5 98t-100.5 39t-100.5 -39t-39.5 -98t39.5 -98t100.5 -39t100.5 39t39.5 98z" />
    <glyph glyph-name="percent" unicode="%" horiz-adv-x="827" 
d="M130 545q0 -50 11 -91t31 -65t47 -24q31 0 46.5 31t15.5 88q0 50 -11 91t-31 65t-48 24q-31 0 -46 -31t-15 -88zM358 516q0 -82 -45 -130t-112 -48q-48 0 -81.5 23.5t-50.5 63.5t-17 88q0 83 45 130.5t112 47.5q49 0 82 -23.5t50 -63.5t17 -88zM578 685h44l-374 -685h-43
zM547 202q0 -50 11 -91t31 -65t47 -24q31 0 46.5 31t15.5 88q0 50 -11 91t-31 65t-48 24q-31 0 -46 -31t-15 -88zM775 173q0 -82 -45 -130t-112 -48q-48 0 -81.5 24t-50.5 63.5t-17 87.5q0 83 45 130.5t112 47.5q49 0 82 -23.5t50 -63.5t17 -88z" />
    <glyph glyph-name="perthousand" unicode="&#x2030;" horiz-adv-x="1187" 
d="M907 202q0 -50 11 -91t31 -65t47 -24q31 0 46.5 31t15.5 88q0 50 -11 91t-31 65t-48 24q-31 0 -46 -31t-15 -88zM1135 173q0 -82 -45 -130t-112 -48q-48 0 -81.5 24t-50.5 63.5t-17 87.5q0 83 45 130.5t112 47.5q49 0 82 -23.5t50 -63.5t17 -88zM578 685h44l-374 -685
h-43zM547 202q0 -50 11 -91t31 -65t47 -24q31 0 46.5 31t15.5 88q0 50 -11 91t-31 65t-48 24q-31 0 -46 -31t-15 -88zM775 173q0 -82 -45 -130t-112 -48q-48 0 -81.5 24t-50.5 63.5t-17 87.5q0 83 45 130.5t112 47.5q49 0 82 -23.5t50 -63.5t17 -88zM130 545q0 -50 11 -91
t31 -65t47 -24q31 0 46.5 31t15.5 88q0 50 -11 91t-31 65t-48 24q-31 0 -46 -31t-15 -88zM358 516q0 -82 -45 -130t-112 -48q-48 0 -81.5 23.5t-50.5 63.5t-17 88q0 83 45 130.5t112 47.5q49 0 82 -23.5t50 -63.5t17 -88z" />
    <glyph glyph-name="fraction" unicode="&#x2044;" horiz-adv-x="107" 
d="M218 685h44l-374 -685h-43z" />
    <glyph glyph-name="uni2215" unicode="&#x2215;" horiz-adv-x="107" 
d="M218 685h44l-374 -685h-43z" />
    <glyph glyph-name="zerosuperior" horiz-adv-x="410" 
d="M130 650q0 -50 11 -91t31 -65t47 -24q31 0 46.5 31t15.5 88q0 50 -11 91t-31 65t-48 24q-31 0 -46 -31t-15 -88zM358 621q0 -82 -45 -130t-112 -48q-48 0 -81.5 23.5t-50.5 63.5t-17 88q0 83 45 130.5t112 47.5q49 0 82 -23.5t50 -63.5t17 -88z" />
    <glyph glyph-name="onesuperior" unicode="&#xb9;" horiz-adv-x="273" 
d="M177 493l51 -41v-4h-184v4l58 41v223h-50v4l119 76h6v-303z" />
    <glyph glyph-name="twosuperior" unicode="&#xb2;" horiz-adv-x="352" 
d="M63 791h73q50 0 81 -11.5t45.5 -31t14.5 -45.5q0 -15 -6.5 -32.5t-24.5 -41t-52.5 -57.5t-89.5 -82l-1 24h165l-42 -22l60 79h5l-11 -123h-228v19q56 53 87.5 94.5t44.5 74.5t13 61t-10 49t-34 21q-22 0 -41 -22.5t-43 -66.5h-6v113z" />
    <glyph glyph-name="threesuperior" unicode="&#xb3;" horiz-adv-x="342" 
d="M135 627l19 8q69 -14 102.5 -41t33.5 -61q0 -28 -20 -47t-53 -28.5t-71 -9.5h-79l-6 102h7q12 -33 36.5 -55t53.5 -22q20 0 36 12t16 43q0 34 -19 61.5t-56 37.5zM277 717q0 -23 -16 -44t-55.5 -37.5t-110.5 -26.5l-2 17q53 9 78.5 34.5t25.5 59.5q0 26 -13 36.5
t-30 10.5q-25 0 -44 -20t-33 -56h-7v100h65q72 0 107 -18.5t35 -55.5z" />
    <glyph glyph-name="foursuperior" horiz-adv-x="335" 
d="M248 564h58v-24h-58v-50l40 -39v-4h-156v4l41 39v51h-144v0l110 249h89l-169 -245l5 19h108v65l70 35h6v-100z" />
    <glyph glyph-name="fivesuperior" horiz-adv-x="348" 
d="M150 447h-79l-6 102h7q12 -31 34 -54.5t52 -23.5q28 0 42 19t14 50q0 26 -9.5 47t-26 33t-39.5 12q-12 0 -27 -6t-30 -23l-10 2l13 185h154l45 10l-14 -77h-182l19 35l-9 -136l-12 7q17 18 35.5 25t40.5 7q60 0 96 -31.5t36 -77.5q0 -50 -41.5 -77.5t-102.5 -27.5z" />
    <glyph glyph-name="sixsuperior" horiz-adv-x="339" 
d="M123 577q0 -55 16 -83.5t38 -28.5q19 0 30.5 18.5t11.5 52.5q0 43 -17.5 62.5t-39.5 19.5q-10 0 -20 -4t-19 -15l-3 22q18 17 33.5 24t34.5 7q27 0 52 -11t41 -33.5t16 -55.5t-16.5 -57.5t-44.5 -38t-63 -13.5t-64.5 14.5t-47 43.5t-17.5 70q0 73 55.5 131t150.5 94
l7 -13q-52 -29 -81 -61t-41 -68t-12 -77z" />
    <glyph glyph-name="sevensuperior" horiz-adv-x="332" 
d="M106 747l-50 -89h-5v132h229v-4l-114 -338h-81l163 301l7 -30h-180z" />
    <glyph glyph-name="eightsuperior" horiz-adv-x="365" 
d="M211 638l-20 9q22 17 31 33t9 34q0 24 -14 41t-40 17q-21 0 -32 -12t-11 -31q0 -26 19 -42t48 -32l13 -7q23 -12 46 -26.5t38 -33.5t15 -47q0 -41 -36 -69.5t-98 -28.5q-55 0 -90.5 23t-35.5 60q0 35 30.5 58t67.5 42l19 -11q-23 -19 -36 -39t-13 -43q0 -25 16.5 -45.5
t48.5 -20.5q23 0 39 12t16 39q0 22 -17 40t-58 40l-13 7q-41 23 -65 47t-24 60q0 40 36 62t85 22q45 0 79.5 -19t34.5 -56q0 -31 -27.5 -50.5t-60.5 -32.5z" />
    <glyph glyph-name="ninesuperior" horiz-adv-x="339" 
d="M216 662q0 56 -15.5 84t-38.5 28q-19 0 -30.5 -18.5t-11.5 -52.5q0 -43 17.5 -62.5t39.5 -19.5q10 0 20 4.5t19 14.5l3 -22q-18 -17 -33.5 -24t-34.5 -7q-26 0 -51.5 11t-41.5 33.5t-16 55.5q0 34 16.5 58t45 37.5t62.5 13.5q36 0 65 -14.5t46.5 -43t17.5 -70.5
q0 -73 -55.5 -131t-150.5 -94l-7 13q52 29 81 61t41 68.5t12 76.5z" />
    <glyph glyph-name="zeroinferior" horiz-adv-x="410" 
d="M130 97q0 -50 11 -91t31 -65t47 -24q31 0 46.5 31t15.5 88q0 50 -11 91t-31 65t-48 24q-31 0 -46 -31t-15 -88zM358 68q0 -82 -45 -130t-112 -48q-48 0 -81.5 23.5t-50.5 63.5t-17 88q0 83 45 130.5t112 47.5q49 0 82 -23.5t50 -63.5t17 -88z" />
    <glyph glyph-name="oneinferior" horiz-adv-x="273" 
d="M177 -60l51 -41v-4h-184v4l58 41v223h-50v4l119 76h6v-303z" />
    <glyph glyph-name="twoinferior" horiz-adv-x="352" 
d="M63 238h73q50 0 81 -11.5t45.5 -31t14.5 -45.5q0 -15 -6.5 -32.5t-24.5 -41t-52.5 -57.5t-89.5 -82l-1 24h165l-42 -22l60 79h5l-11 -123h-228v19q56 53 87.5 94.5t44.5 74.5t13 61t-10 49t-34 21q-22 0 -41 -22.5t-43 -66.5h-6v113z" />
    <glyph glyph-name="threeinferior" horiz-adv-x="342" 
d="M135 74l19 8q69 -14 102.5 -41t33.5 -61q0 -28 -20 -47t-53 -28.5t-71 -9.5h-79l-6 102h7q12 -33 36.5 -55t53.5 -22q20 0 36 12t16 43q0 34 -19 61.5t-56 37.5zM277 164q0 -23 -16 -44t-55.5 -37.5t-110.5 -26.5l-2 17q53 9 78.5 34.5t25.5 59.5q0 26 -13 36.5t-30 10.5
q-25 0 -44 -20t-33 -56h-7v100h65q72 0 107 -18.5t35 -55.5z" />
    <glyph glyph-name="fourinferior" horiz-adv-x="335" 
d="M248 11h58v-24h-58v-50l40 -39v-4h-156v4l41 39v51h-144v0l110 249h89l-169 -245l5 19h108v65l70 35h6v-100z" />
    <glyph glyph-name="fiveinferior" horiz-adv-x="348" 
d="M150 -106h-79l-6 102h7q12 -31 34 -54.5t52 -23.5q28 0 42 19t14 50q0 26 -9.5 47t-26 33t-39.5 12q-12 0 -27 -6t-30 -23l-10 2l13 185h154l45 10l-14 -77h-182l19 35l-9 -136l-12 7q17 18 35.5 25t40.5 7q60 0 96 -31.5t36 -77.5q0 -50 -41.5 -77.5t-102.5 -27.5z" />
    <glyph glyph-name="sixinferior" horiz-adv-x="339" 
d="M123 24q0 -55 16 -83.5t38 -28.5q19 0 30.5 18.5t11.5 52.5q0 43 -17.5 62.5t-39.5 19.5q-10 0 -20 -4t-19 -15l-3 22q18 17 33.5 24t34.5 7q27 0 52 -11t41 -33.5t16 -55.5t-16.5 -57.5t-44.5 -38t-63 -13.5t-64.5 14.5t-47 43.5t-17.5 70q0 73 55.5 131t150.5 94l7 -13
q-52 -29 -81 -61t-41 -68t-12 -77z" />
    <glyph glyph-name="seveninferior" horiz-adv-x="332" 
d="M106 194l-50 -89h-5v132h229v-4l-114 -338h-81l163 301l7 -30h-180z" />
    <glyph glyph-name="eightinferior" horiz-adv-x="365" 
d="M211 85l-20 9q22 17 31 33t9 34q0 24 -14 41t-40 17q-21 0 -32 -12t-11 -31q0 -26 19 -42t48 -32l13 -7q23 -12 46 -26.5t38 -33.5t15 -47q0 -41 -36 -69.5t-98 -28.5q-55 0 -90.5 23t-35.5 60q0 35 30.5 58t67.5 42l19 -11q-23 -19 -36 -39t-13 -43q0 -25 16.5 -45.5
t48.5 -20.5q23 0 39 12t16 39q0 22 -17 40t-58 40l-13 7q-41 23 -65 47t-24 60q0 40 36 62t85 22q45 0 79.5 -19t34.5 -56q0 -31 -27.5 -50.5t-60.5 -32.5z" />
    <glyph glyph-name="nineinferior" horiz-adv-x="339" 
d="M216 109q0 56 -15.5 84t-38.5 28q-19 0 -30.5 -18.5t-11.5 -52.5q0 -43 17.5 -62.5t39.5 -19.5q10 0 20 4.5t19 14.5l3 -22q-18 -17 -33.5 -24t-34.5 -7q-26 0 -51.5 11t-41.5 33.5t-16 55.5q0 34 16.5 58t45 37.5t62.5 13.5q36 0 65 -14.5t46.5 -43t17.5 -70.5
q0 -73 -55.5 -131t-150.5 -94l-7 13q52 29 81 61t41 68.5t12 76.5z" />
    <glyph glyph-name="zero.numerator" horiz-adv-x="410" 
d="M130 545q0 -50 11 -91t31 -65t47 -24q31 0 46.5 31t15.5 88q0 50 -11 91t-31 65t-48 24q-31 0 -46 -31t-15 -88zM358 516q0 -82 -45 -130t-112 -48q-48 0 -81.5 23.5t-50.5 63.5t-17 88q0 83 45 130.5t112 47.5q49 0 82 -23.5t50 -63.5t17 -88z" />
    <glyph glyph-name="one.numerator" horiz-adv-x="273" 
d="M177 388l51 -41v-4h-184v4l58 41v223h-50v4l119 76h6v-303z" />
    <glyph glyph-name="two.numerator" horiz-adv-x="352" 
d="M63 686h73q50 0 81 -11.5t45.5 -31t14.5 -45.5q0 -15 -6.5 -32.5t-24.5 -41t-52.5 -57.5t-89.5 -82l-1 24h165l-42 -22l60 79h5l-11 -123h-228v19q56 53 87.5 94.5t44.5 74.5t13 61t-10 49t-34 21q-22 0 -41 -22.5t-43 -66.5h-6v113z" />
    <glyph glyph-name="three.numerator" horiz-adv-x="342" 
d="M135 522l19 8q69 -14 102.5 -41t33.5 -61q0 -28 -20 -47t-53 -28.5t-71 -9.5h-79l-6 102h7q12 -33 36.5 -55t53.5 -22q20 0 36 12t16 43q0 34 -19 61.5t-56 37.5zM277 612q0 -23 -16 -44t-55.5 -37.5t-110.5 -26.5l-2 17q53 9 78.5 34.5t25.5 59.5q0 26 -13 36.5
t-30 10.5q-25 0 -44 -20t-33 -56h-7v100h65q72 0 107 -18.5t35 -55.5z" />
    <glyph glyph-name="four.numerator" horiz-adv-x="335" 
d="M248 459h58v-24h-58v-50l40 -39v-4h-156v4l41 39v51h-144v0l110 249h89l-169 -245l5 19h108v65l70 35h6v-100z" />
    <glyph glyph-name="five.numerator" horiz-adv-x="348" 
d="M150 342h-79l-6 102h7q12 -31 34 -54.5t52 -23.5q28 0 42 19t14 50q0 26 -9.5 47t-26 33t-39.5 12q-12 0 -27 -6t-30 -23l-10 2l13 185h154l45 10l-14 -77h-182l19 35l-9 -136l-12 7q17 18 35.5 25t40.5 7q60 0 96 -31.5t36 -77.5q0 -50 -41.5 -77.5t-102.5 -27.5z" />
    <glyph glyph-name="six.numerator" horiz-adv-x="339" 
d="M123 472q0 -55 16 -83.5t38 -28.5q19 0 30.5 18.5t11.5 52.5q0 43 -17.5 62.5t-39.5 19.5q-10 0 -20 -4t-19 -15l-3 22q18 17 33.5 24t34.5 7q27 0 52 -11t41 -33.5t16 -55.5t-16.5 -57.5t-44.5 -38t-63 -13.5t-64.5 14.5t-47 43.5t-17.5 70q0 73 55.5 131t150.5 94
l7 -13q-52 -29 -81 -61t-41 -68t-12 -77z" />
    <glyph glyph-name="seven.numerator" horiz-adv-x="332" 
d="M106 642l-50 -89h-5v132h229v-4l-114 -338h-81l163 301l7 -30h-180z" />
    <glyph glyph-name="eight.numerator" horiz-adv-x="365" 
d="M211 533l-20 9q22 17 31 33t9 34q0 24 -14 41t-40 17q-21 0 -32 -12t-11 -31q0 -26 19 -42t48 -32l13 -7q23 -12 46 -26.5t38 -33.5t15 -47q0 -41 -36 -69.5t-98 -28.5q-55 0 -90.5 23t-35.5 60q0 35 30.5 58t67.5 42l19 -11q-23 -19 -36 -39t-13 -43q0 -25 16.5 -45.5
t48.5 -20.5q23 0 39 12t16 39q0 22 -17 40t-58 40l-13 7q-41 23 -65 47t-24 60q0 40 36 62t85 22q45 0 79.5 -19t34.5 -56q0 -31 -27.5 -50.5t-60.5 -32.5z" />
    <glyph glyph-name="nine.numerator" horiz-adv-x="339" 
d="M216 557q0 56 -15.5 84t-38.5 28q-19 0 -30.5 -18.5t-11.5 -52.5q0 -43 17.5 -62.5t39.5 -19.5q10 0 20 4.5t19 14.5l3 -22q-18 -17 -33.5 -24t-34.5 -7q-26 0 -51.5 11t-41.5 33.5t-16 55.5q0 34 16.5 58t45 37.5t62.5 13.5q36 0 65 -14.5t46.5 -43t17.5 -70.5
q0 -73 -55.5 -131t-150.5 -94l-7 13q52 29 81 61t41 68.5t12 76.5z" />
    <glyph glyph-name="zero.denominator" horiz-adv-x="410" 
d="M130 202q0 -50 11 -91t31 -65t47 -24q31 0 46.5 31t15.5 88q0 50 -11 91t-31 65t-48 24q-31 0 -46 -31t-15 -88zM358 173q0 -82 -45 -130t-112 -48q-48 0 -81.5 23.5t-50.5 63.5t-17 88q0 83 45 130.5t112 47.5q49 0 82 -23.5t50 -63.5t17 -88z" />
    <glyph glyph-name="one.denominator" horiz-adv-x="273" 
d="M177 45l51 -41v-4h-184v4l58 41v223h-50v4l119 76h6v-303z" />
    <glyph glyph-name="two.denominator" horiz-adv-x="352" 
d="M63 343h73q50 0 81 -11.5t45.5 -31t14.5 -45.5q0 -15 -6.5 -32.5t-24.5 -41t-52.5 -57.5t-89.5 -82l-1 24h165l-42 -22l60 79h5l-11 -123h-228v19q56 53 87.5 94.5t44.5 74.5t13 61t-10 49t-34 21q-22 0 -41 -22.5t-43 -66.5h-6v113z" />
    <glyph glyph-name="three.denominator" horiz-adv-x="342" 
d="M135 179l19 8q69 -14 102.5 -41t33.5 -61q0 -28 -20 -47t-53 -28.5t-71 -9.5h-79l-6 102h7q12 -33 36.5 -55t53.5 -22q20 0 36 12t16 43q0 34 -19 61.5t-56 37.5zM277 269q0 -23 -16 -44t-55.5 -37.5t-110.5 -26.5l-2 17q53 9 78.5 34.5t25.5 59.5q0 26 -13 36.5
t-30 10.5q-25 0 -44 -20t-33 -56h-7v100h65q72 0 107 -18.5t35 -55.5z" />
    <glyph glyph-name="four.denominator" horiz-adv-x="335" 
d="M248 116h58v-24h-58v-50l40 -39v-4h-156v4l41 39v51h-144v0l110 249h89l-169 -245l5 19h108v65l70 35h6v-100z" />
    <glyph glyph-name="five.denominator" horiz-adv-x="348" 
d="M150 0h-79l-6 102h7q12 -31 34 -54.5t52 -23.5q28 0 42 19t14 50q0 26 -9.5 47t-26 33t-39.5 12q-12 0 -27 -6t-30 -23l-10 2l13 185h154l45 10l-14 -77h-182l19 35l-9 -136l-12 7q17 18 35.5 25t40.5 7q60 0 96 -31.5t36 -77.5q0 -50 -41.5 -77.5t-102.5 -27.5z" />
    <glyph glyph-name="six.denominator" horiz-adv-x="339" 
d="M123 129q0 -55 16 -83.5t38 -28.5q19 0 30.5 18.5t11.5 52.5q0 43 -17.5 62.5t-39.5 19.5q-10 0 -20 -4t-19 -15l-3 22q18 17 33.5 24t34.5 7q27 0 52 -11t41 -33.5t16 -55.5t-16.5 -57.5t-44.5 -38t-63 -13.5t-64.5 14.5t-47 43.5t-17.5 70q0 73 55.5 131t150.5 94
l7 -13q-52 -29 -81 -61t-41 -68t-12 -77z" />
    <glyph glyph-name="seven.denominator" horiz-adv-x="332" 
d="M106 299l-50 -89h-5v132h229v-4l-114 -338h-81l163 301l7 -30h-180z" />
    <glyph glyph-name="eight.denominator" horiz-adv-x="365" 
d="M211 190l-20 9q22 17 31 33t9 34q0 24 -14 41t-40 17q-21 0 -32 -12t-11 -31q0 -26 19 -42t48 -32l13 -7q23 -12 46 -26.5t38 -33.5t15 -47q0 -41 -36 -69.5t-98 -28.5q-55 0 -90.5 23t-35.5 60q0 35 30.5 58t67.5 42l19 -11q-23 -19 -36 -39t-13 -43q0 -25 16.5 -45.5
t48.5 -20.5q23 0 39 12t16 39q0 22 -17 40t-58 40l-13 7q-41 23 -65 47t-24 60q0 40 36 62t85 22q45 0 79.5 -19t34.5 -56q0 -31 -27.5 -50.5t-60.5 -32.5z" />
    <glyph glyph-name="nine.denominator" horiz-adv-x="339" 
d="M216 214q0 56 -15.5 84t-38.5 28q-19 0 -30.5 -18.5t-11.5 -52.5q0 -43 17.5 -62.5t39.5 -19.5q10 0 20 4.5t19 14.5l3 -22q-18 -17 -33.5 -24t-34.5 -7q-26 0 -51.5 11t-41.5 33.5t-16 55.5q0 34 16.5 58t45 37.5t62.5 13.5q36 0 65 -14.5t46.5 -43t17.5 -70.5
q0 -73 -55.5 -131t-150.5 -94l-7 13q52 29 81 61t41 68.5t12 76.5z" />
    <glyph glyph-name="onehalf" unicode="&#xbd;" horiz-adv-x="742" 
d="M177 388l51 -41v-4h-184v4l58 41v223h-50v4l119 76h6v-303zM501 685h44l-374 -685h-43zM453 343h73q50 0 81 -11.5t45.5 -31t14.5 -45.5q0 -15 -6.5 -32.5t-24.5 -41t-52.5 -57.5t-89.5 -82l-1 24h165l-42 -22l60 79h5l-11 -123h-228v19q56 53 87.5 94.5t44.5 74.5t13 61
t-10 49t-34 21q-22 0 -41 -22.5t-43 -66.5h-6v113z" />
    <glyph glyph-name="onethird" unicode="&#x2153;" horiz-adv-x="732" 
d="M177 388l51 -41v-4h-184v4l58 41v223h-50v4l119 76h6v-303zM501 685h44l-374 -685h-43zM525 179l19 8q69 -14 102.5 -41t33.5 -61q0 -28 -20 -47t-53 -28.5t-71 -9.5h-79l-6 102h7q12 -33 36.5 -55t53.5 -22q20 0 36 12t16 43q0 34 -19 61.5t-56 37.5zM667 269
q0 -23 -16 -44t-55.5 -37.5t-110.5 -26.5l-2 17q53 9 78.5 34.5t25.5 59.5q0 26 -13 36.5t-30 10.5q-25 0 -44 -20t-33 -56h-7v100h65q72 0 107 -18.5t35 -55.5z" />
    <glyph glyph-name="onequarter" unicode="&#xbc;" horiz-adv-x="705" 
d="M177 388l51 -41v-4h-184v4l58 41v223h-50v4l119 76h6v-303zM501 685h44l-374 -685h-43zM618 116h58v-24h-58v-50l40 -39v-4h-156v4l41 39v51h-144v0l110 249h89l-169 -245l5 19h108v65l70 35h6v-100z" />
    <glyph glyph-name="onefifth" unicode="&#x2155;" horiz-adv-x="733" 
d="M177 388l51 -41v-4h-184v4l58 41v223h-50v4l119 76h6v-303zM501 685h44l-374 -685h-43zM535 -1h-79l-6 102h7q12 -31 34 -54.5t52 -23.5q28 0 42 19t14 50q0 26 -9.5 47t-26 33t-39.5 12q-12 0 -27 -6t-30 -23l-10 2l13 185h154l45 10l-14 -77h-182l19 35l-9 -136l-12 7
q17 18 35.5 25t40.5 7q60 0 96 -31.5t36 -77.5q0 -50 -41.5 -77.5t-102.5 -27.5z" />
    <glyph glyph-name="onesixth" unicode="&#x2159;" horiz-adv-x="699" 
d="M177 388l51 -41v-4h-184v4l58 41v223h-50v4l119 76h6v-303zM501 685h44l-374 -685h-43zM483 129q0 -55 16 -83.5t38 -28.5q19 0 30.5 18.5t11.5 52.5q0 43 -17.5 62.5t-39.5 19.5q-10 0 -20 -4t-19 -15l-3 22q18 17 33.5 24t34.5 7q27 0 52 -11t41 -33.5t16 -55.5
t-16.5 -57.5t-44.5 -38t-63 -13.5t-64.5 14.5t-47 43.5t-17.5 70q0 73 55.5 131t150.5 94l7 -13q-52 -29 -81 -61t-41 -68t-12 -77z" />
    <glyph glyph-name="oneseventh" unicode="&#x2150;" horiz-adv-x="732" 
d="M177 388l51 -41v-4h-184v4l58 41v223h-50v4l119 76h6v-303zM501 685h44l-374 -685h-43zM506 299l-50 -89h-5v132h229v-4l-114 -338h-81l163 301l7 -30h-180z" />
    <glyph glyph-name="oneeighth" unicode="&#x215b;" horiz-adv-x="735" 
d="M177 388l51 -41v-4h-184v4l58 41v223h-50v4l119 76h6v-303zM501 685h44l-374 -685h-43zM581 190l-20 9q22 17 31 33t9 34q0 24 -14 41t-40 17q-21 0 -32 -12t-11 -31q0 -26 19 -42t48 -32l13 -7q23 -12 46 -26.5t38 -33.5t15 -47q0 -41 -36 -69.5t-98 -28.5
q-55 0 -90.5 23t-35.5 60q0 35 30.5 58t67.5 42l19 -11q-23 -19 -36 -39t-13 -43q0 -25 16.5 -45.5t48.5 -20.5q23 0 39 12t16 39q0 22 -17 40t-58 40l-13 7q-41 23 -65 47t-24 60q0 40 36 62t85 22q45 0 79.5 -19t34.5 -56q0 -31 -27.5 -50.5t-60.5 -32.5z" />
    <glyph glyph-name="oneninth" unicode="&#x2151;" horiz-adv-x="729" 
d="M177 388l51 -41v-4h-184v4l58 41v223h-50v4l119 76h6v-303zM501 685h44l-374 -685h-43zM606 214q0 56 -15.5 84t-38.5 28q-19 0 -30.5 -18.5t-11.5 -52.5q0 -43 17.5 -62.5t39.5 -19.5q10 0 20 4.5t19 14.5l3 -22q-18 -17 -33.5 -24t-34.5 -7q-26 0 -51.5 11t-41.5 33.5
t-16 55.5q0 34 16.5 58t45 37.5t62.5 13.5q36 0 65 -14.5t46.5 -43t17.5 -70.5q0 -73 -55.5 -131t-150.5 -94l-7 13q52 29 81 61t41 68.5t12 76.5z" />
    <glyph glyph-name="twothirds" unicode="&#x2154;" horiz-adv-x="801" 
d="M63 686h73q50 0 81 -11.5t45.5 -31t14.5 -45.5q0 -15 -6.5 -32.5t-24.5 -41t-52.5 -57.5t-89.5 -82l-1 24h165l-42 -22l60 79h5l-11 -123h-228v19q56 53 87.5 94.5t44.5 74.5t13 61t-10 49t-34 21q-22 0 -41 -22.5t-43 -66.5h-6v113zM570 685h44l-374 -685h-43zM594 179
l19 8q69 -14 102.5 -41t33.5 -61q0 -28 -20 -47t-53 -28.5t-71 -9.5h-79l-6 102h7q12 -33 36.5 -55t53.5 -22q20 0 36 12t16 43q0 34 -19 61.5t-56 37.5zM736 269q0 -23 -16 -44t-55.5 -37.5t-110.5 -26.5l-2 17q53 9 78.5 34.5t25.5 59.5q0 26 -13 36.5t-30 10.5
q-25 0 -44 -20t-33 -56h-7v100h65q72 0 107 -18.5t35 -55.5z" />
    <glyph glyph-name="twofifths" unicode="&#x2156;" horiz-adv-x="802" 
d="M63 686h73q50 0 81 -11.5t45.5 -31t14.5 -45.5q0 -15 -6.5 -32.5t-24.5 -41t-52.5 -57.5t-89.5 -82l-1 24h165l-42 -22l60 79h5l-11 -123h-228v19q56 53 87.5 94.5t44.5 74.5t13 61t-10 49t-34 21q-22 0 -41 -22.5t-43 -66.5h-6v113zM570 685h44l-374 -685h-43zM604 -1
h-79l-6 102h7q12 -31 34 -54.5t52 -23.5q28 0 42 19t14 50q0 26 -9.5 47t-26 33t-39.5 12q-12 0 -27 -6t-30 -23l-10 2l13 185h154l45 10l-14 -77h-182l19 35l-9 -136l-12 7q17 18 35.5 25t40.5 7q60 0 96 -31.5t36 -77.5q0 -50 -41.5 -77.5t-102.5 -27.5z" />
    <glyph glyph-name="twosevenths" horiz-adv-x="801" 
d="M63 686h73q50 0 81 -11.5t45.5 -31t14.5 -45.5q0 -15 -6.5 -32.5t-24.5 -41t-52.5 -57.5t-89.5 -82l-1 24h165l-42 -22l60 79h5l-11 -123h-228v19q56 53 87.5 94.5t44.5 74.5t13 61t-10 49t-34 21q-22 0 -41 -22.5t-43 -66.5h-6v113zM570 685h44l-374 -685h-43zM575 299
l-50 -89h-5v132h229v-4l-114 -338h-81l163 301l7 -30h-180z" />
    <glyph glyph-name="twoninths" horiz-adv-x="798" 
d="M63 686h73q50 0 81 -11.5t45.5 -31t14.5 -45.5q0 -15 -6.5 -32.5t-24.5 -41t-52.5 -57.5t-89.5 -82l-1 24h165l-42 -22l60 79h5l-11 -123h-228v19q56 53 87.5 94.5t44.5 74.5t13 61t-10 49t-34 21q-22 0 -41 -22.5t-43 -66.5h-6v113zM570 685h44l-374 -685h-43zM675 214
q0 56 -15.5 84t-38.5 28q-19 0 -30.5 -18.5t-11.5 -52.5q0 -43 17.5 -62.5t39.5 -19.5q10 0 20 4.5t19 14.5l3 -22q-18 -17 -33.5 -24t-34.5 -7q-26 0 -51.5 11t-41.5 33.5t-16 55.5q0 34 16.5 58t45 37.5t62.5 13.5q36 0 65 -14.5t46.5 -43t17.5 -70.5q0 -73 -55.5 -131
t-150.5 -94l-7 13q52 29 81 61t41 68.5t12 76.5z" />
    <glyph glyph-name="threequarters" unicode="&#xbe;" horiz-adv-x="750" 
d="M134 522l19 8q69 -14 102.5 -41t33.5 -61q0 -28 -20 -47t-53 -28.5t-71 -9.5h-79l-6 102h7q12 -33 36.5 -55t53.5 -22q20 0 36 12t16 43q0 34 -19 61.5t-56 37.5zM276 612q0 -23 -16 -44t-55.5 -37.5t-110.5 -26.5l-2 17q53 9 78.5 34.5t25.5 59.5q0 26 -13 36.5
t-30 10.5q-25 0 -44 -20t-33 -56h-7v100h65q72 0 107 -18.5t35 -55.5zM546 685h44l-374 -685h-43zM663 116h58v-24h-58v-50l40 -39v-4h-156v4l41 39v51h-144v0l110 249h89l-169 -245l5 19h108v65l70 35h6v-100z" />
    <glyph glyph-name="threefifths" unicode="&#x2157;" horiz-adv-x="779" 
d="M135 522l19 8q69 -14 102.5 -41t33.5 -61q0 -28 -20 -47t-53 -28.5t-71 -9.5h-79l-6 102h7q12 -33 36.5 -55t53.5 -22q20 0 36 12t16 43q0 34 -19 61.5t-56 37.5zM277 612q0 -23 -16 -44t-55.5 -37.5t-110.5 -26.5l-2 17q53 9 78.5 34.5t25.5 59.5q0 26 -13 36.5
t-30 10.5q-25 0 -44 -20t-33 -56h-7v100h65q72 0 107 -18.5t35 -55.5zM547 685h44l-374 -685h-43zM581 -1h-79l-6 102h7q12 -31 34 -54.5t52 -23.5q28 0 42 19t14 50q0 26 -9.5 47t-26 33t-39.5 12q-12 0 -27 -6t-30 -23l-10 2l13 185h154l45 10l-14 -77h-182l19 35l-9 -136
l-12 7q17 18 35.5 25t40.5 7q60 0 96 -31.5t36 -77.5q0 -50 -41.5 -77.5t-102.5 -27.5z" />
    <glyph glyph-name="threesevenths" horiz-adv-x="778" 
d="M135 522l19 8q69 -14 102.5 -41t33.5 -61q0 -28 -20 -47t-53 -28.5t-71 -9.5h-79l-6 102h7q12 -33 36.5 -55t53.5 -22q20 0 36 12t16 43q0 34 -19 61.5t-56 37.5zM277 612q0 -23 -16 -44t-55.5 -37.5t-110.5 -26.5l-2 17q53 9 78.5 34.5t25.5 59.5q0 26 -13 36.5
t-30 10.5q-25 0 -44 -20t-33 -56h-7v100h65q72 0 107 -18.5t35 -55.5zM547 685h44l-374 -685h-43zM552 299l-50 -89h-5v132h229v-4l-114 -338h-81l163 301l7 -30h-180z" />
    <glyph glyph-name="threeeighths" unicode="&#x215c;" horiz-adv-x="781" 
d="M135 522l19 8q69 -14 102.5 -41t33.5 -61q0 -28 -20 -47t-53 -28.5t-71 -9.5h-79l-6 102h7q12 -33 36.5 -55t53.5 -22q20 0 36 12t16 43q0 34 -19 61.5t-56 37.5zM277 612q0 -23 -16 -44t-55.5 -37.5t-110.5 -26.5l-2 17q53 9 78.5 34.5t25.5 59.5q0 26 -13 36.5
t-30 10.5q-25 0 -44 -20t-33 -56h-7v100h65q72 0 107 -18.5t35 -55.5zM547 685h44l-374 -685h-43zM627 190l-20 9q22 17 31 33t9 34q0 24 -14 41t-40 17q-21 0 -32 -12t-11 -31q0 -26 19 -42t48 -32l13 -7q23 -12 46 -26.5t38 -33.5t15 -47q0 -41 -36 -69.5t-98 -28.5
q-55 0 -90.5 23t-35.5 60q0 35 30.5 58t67.5 42l19 -11q-23 -19 -36 -39t-13 -43q0 -25 16.5 -45.5t48.5 -20.5q23 0 39 12t16 39q0 22 -17 40t-58 40l-13 7q-41 23 -65 47t-24 60q0 40 36 62t85 22q45 0 79.5 -19t34.5 -56q0 -31 -27.5 -50.5t-60.5 -32.5z" />
    <glyph glyph-name="fourfifths" unicode="&#x2158;" horiz-adv-x="795" 
d="M248 459h58v-24h-58v-50l40 -39v-4h-156v4l41 39v51h-144v0l110 249h89l-169 -245l5 19h108v65l70 35h6v-100zM563 685h44l-374 -685h-43zM597 -1h-79l-6 102h7q12 -31 34 -54.5t52 -23.5q28 0 42 19t14 50q0 26 -9.5 47t-26 33t-39.5 12q-12 0 -27 -6t-30 -23l-10 2
l13 185h154l45 10l-14 -77h-182l19 35l-9 -136l-12 7q17 18 35.5 25t40.5 7q60 0 96 -31.5t36 -77.5q0 -50 -41.5 -77.5t-102.5 -27.5z" />
    <glyph glyph-name="foursevenths" horiz-adv-x="794" 
d="M248 459h58v-24h-58v-50l40 -39v-4h-156v4l41 39v51h-144v0l110 249h89l-169 -245l5 19h108v65l70 35h6v-100zM563 685h44l-374 -685h-43zM568 299l-50 -89h-5v132h229v-4l-114 -338h-81l163 301l7 -30h-180z" />
    <glyph glyph-name="fourninths" horiz-adv-x="791" 
d="M248 459h58v-24h-58v-50l40 -39v-4h-156v4l41 39v51h-144v0l110 249h89l-169 -245l5 19h108v65l70 35h6v-100zM563 685h44l-374 -685h-43zM668 214q0 56 -15.5 84t-38.5 28q-19 0 -30.5 -18.5t-11.5 -52.5q0 -43 17.5 -62.5t39.5 -19.5q10 0 20 4.5t19 14.5l3 -22
q-18 -17 -33.5 -24t-34.5 -7q-26 0 -51.5 11t-41.5 33.5t-16 55.5q0 34 16.5 58t45 37.5t62.5 13.5q36 0 65 -14.5t46.5 -43t17.5 -70.5q0 -73 -55.5 -131t-150.5 -94l-7 13q52 29 81 61t41 68.5t12 76.5z" />
    <glyph glyph-name="fivesixths" unicode="&#x215a;" horiz-adv-x="746" 
d="M150 342h-79l-6 102h7q12 -31 34 -54.5t52 -23.5q28 0 42 19t14 50q0 26 -9.5 47t-26 33t-39.5 12q-12 0 -27 -6t-30 -23l-10 2l13 185h154l45 10l-14 -77h-182l19 35l-9 -136l-12 7q17 18 35.5 25t40.5 7q60 0 96 -31.5t36 -77.5q0 -50 -41.5 -77.5t-102.5 -27.5z
M548 685h44l-374 -685h-43zM530 129q0 -55 16 -83.5t38 -28.5q19 0 30.5 18.5t11.5 52.5q0 43 -17.5 62.5t-39.5 19.5q-10 0 -20 -4t-19 -15l-3 22q18 17 33.5 24t34.5 7q27 0 52 -11t41 -33.5t16 -55.5t-16.5 -57.5t-44.5 -38t-63 -13.5t-64.5 14.5t-47 43.5t-17.5 70
q0 73 55.5 131t150.5 94l7 -13q-52 -29 -81 -61t-41 -68t-12 -77z" />
    <glyph glyph-name="fivesevenths" horiz-adv-x="779" 
d="M150 342h-79l-6 102h7q12 -31 34 -54.5t52 -23.5q28 0 42 19t14 50q0 26 -9.5 47t-26 33t-39.5 12q-12 0 -27 -6t-30 -23l-10 2l13 185h154l45 10l-14 -77h-182l19 35l-9 -136l-12 7q17 18 35.5 25t40.5 7q60 0 96 -31.5t36 -77.5q0 -50 -41.5 -77.5t-102.5 -27.5z
M548 685h44l-374 -685h-43zM553 299l-50 -89h-5v132h229v-4l-114 -338h-81l163 301l7 -30h-180z" />
    <glyph glyph-name="fiveeighths" unicode="&#x215d;" horiz-adv-x="782" 
d="M150 342h-79l-6 102h7q12 -31 34 -54.5t52 -23.5q28 0 42 19t14 50q0 26 -9.5 47t-26 33t-39.5 12q-12 0 -27 -6t-30 -23l-10 2l13 185h154l45 10l-14 -77h-182l19 35l-9 -136l-12 7q17 18 35.5 25t40.5 7q60 0 96 -31.5t36 -77.5q0 -50 -41.5 -77.5t-102.5 -27.5z
M548 685h44l-374 -685h-43zM628 190l-20 9q22 17 31 33t9 34q0 24 -14 41t-40 17q-21 0 -32 -12t-11 -31q0 -26 19 -42t48 -32l13 -7q23 -12 46 -26.5t38 -33.5t15 -47q0 -41 -36 -69.5t-98 -28.5q-55 0 -90.5 23t-35.5 60q0 35 30.5 58t67.5 42l19 -11q-23 -19 -36 -39
t-13 -43q0 -25 16.5 -45.5t48.5 -20.5q23 0 39 12t16 39q0 22 -17 40t-58 40l-13 7q-41 23 -65 47t-24 60q0 40 36 62t85 22q45 0 79.5 -19t34.5 -56q0 -31 -27.5 -50.5t-60.5 -32.5z" />
    <glyph glyph-name="fiveninths" horiz-adv-x="776" 
d="M150 342h-79l-6 102h7q12 -31 34 -54.5t52 -23.5q28 0 42 19t14 50q0 26 -9.5 47t-26 33t-39.5 12q-12 0 -27 -6t-30 -23l-10 2l13 185h154l45 10l-14 -77h-182l19 35l-9 -136l-12 7q17 18 35.5 25t40.5 7q60 0 96 -31.5t36 -77.5q0 -50 -41.5 -77.5t-102.5 -27.5z
M548 685h44l-374 -685h-43zM653 214q0 56 -15.5 84t-38.5 28q-19 0 -30.5 -18.5t-11.5 -52.5q0 -43 17.5 -62.5t39.5 -19.5q10 0 20 4.5t19 14.5l3 -22q-18 -17 -33.5 -24t-34.5 -7q-26 0 -51.5 11t-41.5 33.5t-16 55.5q0 34 16.5 58t45 37.5t62.5 13.5q36 0 65 -14.5
t46.5 -43t17.5 -70.5q0 -73 -55.5 -131t-150.5 -94l-7 13q52 29 81 61t41 68.5t12 76.5z" />
    <glyph glyph-name="sixsevenths" horiz-adv-x="788" 
d="M123 472q0 -55 16 -83.5t38 -28.5q19 0 30.5 18.5t11.5 52.5q0 43 -17.5 62.5t-39.5 19.5q-10 0 -20 -4t-19 -15l-3 22q18 17 33.5 24t34.5 7q27 0 52 -11t41 -33.5t16 -55.5t-16.5 -57.5t-44.5 -38t-63 -13.5t-64.5 14.5t-47 43.5t-17.5 70q0 73 55.5 131t150.5 94
l7 -13q-52 -29 -81 -61t-41 -68t-12 -77zM557 685h44l-374 -685h-43zM562 299l-50 -89h-5v132h229v-4l-114 -338h-81l163 301l7 -30h-180z" />
    <glyph glyph-name="seveneighths" unicode="&#x215e;" horiz-adv-x="734" 
d="M106 642l-50 -89h-5v132h229v-4l-114 -338h-81l163 301l7 -30h-180zM500 685h44l-374 -685h-43zM580 190l-20 9q22 17 31 33t9 34q0 24 -14 41t-40 17q-21 0 -32 -12t-11 -31q0 -26 19 -42t48 -32l13 -7q23 -12 46 -26.5t38 -33.5t15 -47q0 -41 -36 -69.5t-98 -28.5
q-55 0 -90.5 23t-35.5 60q0 35 30.5 58t67.5 42l19 -11q-23 -19 -36 -39t-13 -43q0 -25 16.5 -45.5t48.5 -20.5q23 0 39 12t16 39q0 22 -17 40t-58 40l-13 7q-41 23 -65 47t-24 60q0 40 36 62t85 22q45 0 79.5 -19t34.5 -56q0 -31 -27.5 -50.5t-60.5 -32.5z" />
    <glyph glyph-name="sevenninths" horiz-adv-x="728" 
d="M106 642l-50 -89h-5v132h229v-4l-114 -338h-81l163 301l7 -30h-180zM500 685h44l-374 -685h-43zM605 214q0 56 -15.5 84t-38.5 28q-19 0 -30.5 -18.5t-11.5 -52.5q0 -43 17.5 -62.5t39.5 -19.5q10 0 20 4.5t19 14.5l3 -22q-18 -17 -33.5 -24t-34.5 -7q-26 0 -51.5 11
t-41.5 33.5t-16 55.5q0 34 16.5 58t45 37.5t62.5 13.5q36 0 65 -14.5t46.5 -43t17.5 -70.5q0 -73 -55.5 -131t-150.5 -94l-7 13q52 29 81 61t41 68.5t12 76.5z" />
    <glyph glyph-name="eightninths" horiz-adv-x="801" 
d="M211 533l-20 9q22 17 31 33t9 34q0 24 -14 41t-40 17q-21 0 -32 -12t-11 -31q0 -26 19 -42t48 -32l13 -7q23 -12 46 -26.5t38 -33.5t15 -47q0 -41 -36 -69.5t-98 -28.5q-55 0 -90.5 23t-35.5 60q0 35 30.5 58t67.5 42l19 -11q-23 -19 -36 -39t-13 -43q0 -25 16.5 -45.5
t48.5 -20.5q23 0 39 12t16 39q0 22 -17 40t-58 40l-13 7q-41 23 -65 47t-24 60q0 40 36 62t85 22q45 0 79.5 -19t34.5 -56q0 -31 -27.5 -50.5t-60.5 -32.5zM573 685h44l-374 -685h-43zM678 214q0 56 -15.5 84t-38.5 28q-19 0 -30.5 -18.5t-11.5 -52.5q0 -43 17.5 -62.5
t39.5 -19.5q10 0 20 4.5t19 14.5l3 -22q-18 -17 -33.5 -24t-34.5 -7q-26 0 -51.5 11t-41.5 33.5t-16 55.5q0 34 16.5 58t45 37.5t62.5 13.5q36 0 65 -14.5t46.5 -43t17.5 -70.5q0 -73 -55.5 -131t-150.5 -94l-7 13q52 29 81 61t41 68.5t12 76.5z" />
    <glyph glyph-name="plus" unicode="+" 
d="M260 147v374h44v-374h-44zM95 355h374v-42h-374v42z" />
    <glyph glyph-name="minus" unicode="&#x2212;" 
d="M95 355h374v-42h-374v42z" />
    <glyph glyph-name="multiply" unicode="&#xd7;" 
d="M419 167l-304 304l30 30l304 -305zM115 196l304 305l30 -30l-304 -304z" />
    <glyph glyph-name="divide" unicode="&#xf7;" 
d="M95 355h374v-42h-374v42zM222 182l60 66l60 -66l-60 -64zM222 486l60 65l60 -65l-60 -65z" />
    <glyph glyph-name="equal" unicode="=" 
d="M95 436h374v-42h-374v42zM95 274h374v-42h-374v42z" />
    <glyph glyph-name="logicalnot" unicode="&#xac;" 
d="M425 147v187h44v-187h-44zM95 355h374v-42h-374v42z" />
    <glyph glyph-name="asciitilde" unicode="~" 
d="M366 253q-25 0 -47.5 12t-42.5 27t-39 27t-39 12q-18 0 -35 -14.5t-33 -50.5l-35 18q16 35 41 62t62 27q26 0 48 -12t42 -27t39 -27t39 -12q18 0 35 14.5t33 50.5l35 -18q-16 -35 -40.5 -62t-62.5 -27z" />
    <glyph glyph-name="less" unicode="&#x3c;" 
d="M469 145l-374 186v8l374 185v-45l-330 -160v33l330 -161v-46z" />
    <glyph glyph-name="greater" unicode="&#x3e;" 
d="M95 524l374 -186v-8l-374 -185v45l330 160v-33l-330 161v46z" />
    <glyph glyph-name="plusminus" unicode="&#xb1;" 
d="M261 147v374h42v-374h-42zM95 355h374v-42h-374v42zM95 42h374v-42h-374v42z" />
    <glyph glyph-name="asciicircum" unicode="^" 
d="M471 321h-46l-161 330h33l-160 -330h-45l185 374h8z" />
    <glyph glyph-name="notequal" unicode="&#x2260;" 
d="M140 91l238 486h46l-238 -486h-46zM95 436h374v-42h-374v42zM95 274h374v-42h-374v42z" />
    <glyph glyph-name="approxequal" unicode="&#x2248;" 
d="M365 334q-25 0 -47 12t-42 27t-39 27t-39 12q-18 0 -35 -14.5t-33 -50.5l-35 18q16 35 41 62t62 27q26 0 47.5 -12t41.5 -27t39 -27t39 -12q18 0 35 14.5t33 50.5l35 -18q-16 -35 -40.5 -62t-62.5 -27zM365 172q-25 0 -47 12t-42 27t-39 27t-39 12q-18 0 -35 -14.5
t-33 -50.5l-35 18q16 35 41 62t62 27q26 0 47.5 -12t41.5 -27t39 -27t39 -12q18 0 35 14.5t33 50.5l35 -18q-16 -35 -40.5 -62t-62.5 -27z" />
    <glyph glyph-name="lessequal" unicode="&#x2264;" 
d="M469 145l-374 186v8l374 185v-45l-330 -160v33l330 -161v-46zM95 42h374v-42h-374v42z" />
    <glyph glyph-name="greaterequal" unicode="&#x2265;" 
d="M95 524l374 -186v-8l-374 -185v45l330 160v-33l-330 161v46zM95 42h374v-42h-374v42z" />
    <glyph glyph-name="infinity" unicode="&#x221e;" horiz-adv-x="670" 
d="M277 306q-25 39 -52 65.5t-63 26.5q-34 0 -57 -25.5t-23 -65.5t26.5 -67.5t72.5 -27.5q43 0 78.5 26t63.5 83l24 -14q-40 -88 -81 -128.5t-94 -40.5q-46 0 -75 25t-43 63.5t-14 80.5q0 45 16 83t47.5 61.5t77.5 23.5q58 0 101.5 -35t75.5 -83l34 -51q26 -39 52.5 -65.5
t62.5 -26.5q35 0 57.5 25.5t22.5 65.5t-26 67.5t-73 27.5q-43 0 -78 -26t-64 -83l-24 14q41 88 82 128.5t93 40.5q46 0 75 -24.5t43 -63.5t14 -81q0 -44 -16 -82.5t-47.5 -62t-77.5 -23.5q-58 0 -101.5 35t-75.5 83z" />
    <glyph glyph-name="lozenge" unicode="&#x25ca;" horiz-adv-x="449" 
d="M35 343l185 352h8l186 -352l-186 -352h-8zM65 320v46l172 -327l-23 6l175 335v-74l-175 335l23 6z" />
    <glyph glyph-name="radical" unicode="&#x221a;" horiz-adv-x="596" 
d="M112 367l88 -11h-190v10l169 69l140 -358l-28 -15l222 623h39l-245 -690h-41z" />
    <glyph glyph-name="integral" unicode="&#x222b;" horiz-adv-x="468" 
d="M238 61q-12 -99 -49 -155t-114 -56h-94l30 173h14q10 -58 21 -90t23 -45t25 -13q22 0 33.5 31.5t20.5 103.5l56 464q12 99 49.5 155t113.5 56h94l-30 -173h-14q-10 58 -21 90t-23 45t-25 13q-22 0 -33.5 -31.5t-20.5 -103.5z" />
    <glyph glyph-name="partialdiff" unicode="&#x2202;" horiz-adv-x="534" 
d="M479 266q0 -91 -33 -152.5t-87 -92.5t-119 -31q-58 0 -104.5 24.5t-73.5 70.5t-27 111q0 70 30 120.5t78.5 78t103.5 27.5q41 0 76.5 -13.5t56.5 -33.5l-6 -34q-19 19 -42.5 29t-49.5 10q-38 0 -70 -22.5t-51.5 -67t-19.5 -110.5q0 -77 28 -116.5t73 -39.5
q35 0 64.5 24.5t47 78t17.5 139.5q0 50 -7.5 102t-28 104.5t-59 104t-100.5 101.5l11 17q140 -82 216 -188t76 -241z" />
    <glyph glyph-name="product" unicode="&#x220f;" horiz-adv-x="758" 
d="M148 685h438v-37h-438v37zM115 620l-81 57v8h262v-8l-81 -27v-735l81 -57v-8h-262v8l81 57v705zM543 650l-81 27v8h262v-8l-81 -57v-705l81 -57v-8h-262v8l81 57v735z" />
    <glyph glyph-name="summation" unicode="&#x2211;" horiz-adv-x="679" 
d="M43 661v24h537v-195h-10l-101 158h-292l251 -345l-285 -358h382l83 109h10l-23 -204h-558v24l304 382z" />
    <glyph glyph-name="ohm" unicode="&#x2126;" horiz-adv-x="725" 
d="M69 218h10l91 -130h115v97q-67 13 -114 49t-71.5 87.5t-24.5 111.5q0 78 39.5 137t106.5 92t150 33q88 0 150.5 -34.5t95.5 -92.5t33 -127q0 -64 -27 -115.5t-74 -86.5t-109 -50v-101h115l91 130h10l-26 -218h-231v215q68 9 107 62.5t39 137.5q0 64 -23 120t-67 90.5
t-107 34.5q-78 0 -124 -54.5t-46 -146.5q0 -55 17 -104.5t50.5 -85t80.5 -49.5v-220h-231z" />
    <glyph glyph-name="increment" unicode="&#x2206;" horiz-adv-x="606" 
d="M582 0h-558v23l263 672h23l272 -672v-23zM74 37h395l-202 511z" />
    <glyph glyph-name="uni2113" unicode="&#x2113;" horiz-adv-x="434" 
d="M161 333q0 -72 6 -124.5t19 -86t32 -50t44 -16.5q29 0 57 22t47 60l13 -6q-25 -70 -64 -106t-89 -36q-47 0 -83 34.5t-56 105.5t-20 180q0 133 24 224.5t68 138.5t103 47q48 0 83 -33t35 -105q0 -95 -67.5 -188.5t-189.5 -179.5v33q70 56 110.5 110.5t58 110t17.5 112.5
q0 59 -15.5 85.5t-38.5 26.5q-21 0 -38.5 -18.5t-30 -60t-19 -110.5t-6.5 -170zM89 194l-70 -47l-12 20l80 56z" />
    <glyph glyph-name="arrowleft" unicode="&#x2190;" horiz-adv-x="658" 
d="M191 317h270l177 100l-30 -110l30 -110l-177 100h-270v20zM202 317v-20l100 -172l-5 -8l-282 185v10l282 185l5 -8zM313 317l-67 -5l117 143l8 -5zM421 317l-67 -5l117 143l8 -5zM246 302l67 -5l58 -133l-8 -5zM354 302l67 -5l58 -133l-8 -5zM162 336q9 0 14.5 6t5.5 14
t-5.5 14t-14.5 6q-8 0 -14 -6t-6 -14t6 -14t14 -6z" />
    <glyph glyph-name="arrowup" unicode="&#x2191;" horiz-adv-x="478" 
d="M229 443v-270l-100 -178l110 31l110 -31l-100 178v270h-20zM229 432h20l172 -100l8 5l-185 282h-10l-185 -282l8 -5zM229 321l5 67l-143 -117l5 -8zM229 213l5 67l-143 -117l5 -8zM244 388l5 -67l133 -58l5 8zM244 280l5 -67l133 -58l5 8zM210 472q0 -9 -6 -14.5
t-14 -5.5t-14 5.5t-6 14.5q0 8 6 14t14 6t14 -6t6 -14z" />
    <glyph glyph-name="arrowright" unicode="&#x2192;" horiz-adv-x="658" 
d="M465 317h-270l-177 100l30 -110l-30 -110l177 100h270v20zM454 317v-20l-100 -172l5 -8l282 185v10l-282 185l-5 -8zM343 317l67 -5l-117 143l-8 -5zM235 317l67 -5l-117 143l-8 -5zM410 302l-67 -5l-58 -133l8 -5zM302 302l-67 -5l-58 -133l8 -5zM494 336q-9 0 -14.5 6
t-5.5 14t5.5 14t14.5 6q8 0 14 -6t6 -14t-6 -14t-14 -6z" />
    <glyph glyph-name="arrowdown" unicode="&#x2193;" horiz-adv-x="478" 
d="M249 172v270l100 177l-110 -30l-110 30l100 -177v-270h20zM249 183h-20l-172 100l-8 -5l185 -283h10l185 283l-8 5zM249 294l-5 -67l143 117l-5 8zM249 402l-5 -67l143 117l-5 8zM234 227l-5 67l-133 58l-5 -8zM234 335l-5 67l-133 58l-5 -8zM268 143q0 9 6 14.5t14 5.5
t14 -5.5t6 -14.5q0 -8 -6 -14t-14 -6t-14 6t-6 14z" />
    <glyph glyph-name="uni2194" unicode="&#x2194;" horiz-adv-x="903" 
d="M202 317v-20l100 -172l-5 -8l-282 185v10l282 185l5 -8zM666 317l-100 172l5 8l282 -185v-10l-282 -185l-5 8l100 172v20zM191 317h140l103 100l103 -100h140v-20h-140l-103 -100l-103 100h-140v20zM434 397l-33 -90l33 -90l33 90z" />
    <glyph glyph-name="uni2195" unicode="&#x2195;" horiz-adv-x="478" 
d="M229 539h20l172 -100l8 5l-185 282h-10l-185 -282l8 -5zM229 75l-172 100l-8 -5l185 -282h10l185 282l-8 5l-172 -100h-20zM229 550v-140l-100 -103l100 -103v-140h20v140l100 103l-100 103v140h-20zM149 307l90 33l90 -33l-90 -33z" />
    <glyph glyph-name="uni2196" unicode="&#x2196;" horiz-adv-x="658" 
d="M203 447l191 -191l196 -54l-99 -57l-57 -99l-54 196l-191 191zM211 439l-14 -14l-51 -192l-9 -2l-69 330l7 7l330 -69l-2 -9zM289 361l-51 44l184 18l2 -9zM366 284l-51 44l184 19l2 -10zM231 398l44 -51l-53 -135l-9 2zM308 321l44 -51l-53 -135l-10 2zM196 481
q7 -6 15 -6t13 6q6 6 6.5 14t-6.5 14q-5 6 -13.5 6t-14.5 -6q-6 -5 -6 -13.5t6 -14.5z" />
    <glyph glyph-name="uni2197" unicode="&#x2197;" horiz-adv-x="658" 
d="M455 448l15 -15l-191 -191l-55 -195l-56 99l-99 56l195 55zM448 440l-193 51l-1 10l329 67l7 -7l-67 -329l-10 1l-51 193zM369 361l-135 53l2 9l185 -17zM292 286l-135 53l4 9l183 -19zM428 399l17 -185l-9 -2l-53 135zM351 322l19 -183l-9 -4l-53 135zM462 481
q6 6 6.5 15t-6.5 14q-5 6 -13.5 6t-14.5 -6q-14 -15 0 -29q7 -6 15 -5.5t13 5.5z" />
    <glyph glyph-name="uni2198" unicode="&#x2198;" horiz-adv-x="658" 
d="M470 181l-15 -15l-191 191l-195 55l99 56l56 99l55 -195zM462 188l51 193h10l67 -328l-7 -7l-328 67v10l193 51zM383 267l53 135l9 -2l-16 -185zM308 343l53 135l10 -3l-20 -183zM421 207l-185 -16l-2 9l135 53zM344 285l-183 -20l-3 10l135 53zM503 174q6 -6 15 -6.5
t14 6.5q6 5 6 13t-6 15q-15 14 -29 0q-12 -16 0 -28z" />
    <glyph glyph-name="uni2199" unicode="&#x2199;" horiz-adv-x="658" 
d="M189 181l191 191l54 196l57 -99l99 -57l-196 -54l-191 -191zM197 189l14 -14l192 -51l2 -9l-330 -69l-7 7l69 330l9 -2zM275 267l-44 -50l-18 183l9 3zM352 344l-44 -51l-19 184l10 2zM238 209l51 44l135 -53l-2 -9zM315 286l51 44l135 -53l-2 -10zM155 174q7 7 6.5 15
t-6.5 13q-6 6 -14 6.5t-14 -6.5q-6 -5 -6 -13.5t6 -14.5t14 -6t14 6z" />
    <glyph glyph-name="estimated" unicode="&#x212e;" horiz-adv-x="712" 
d="M662 257h-496q-4 0 -4 -3v-150q0 -11 7 -18q36 -36 84.5 -58t103.5 -22q60 0 110.5 24.5t86.5 65.5h44q-41 -48 -104.5 -77.5t-137.5 -29.5q-63 0 -118.5 21.5t-97.5 59t-66 87.5t-24 107t24 107.5t66 88.5t97.5 59.5t118.5 21.5t118.5 -21.5t97.5 -59.5t66 -88.5
t24 -107.5v-7zM550 276v151q0 11 -8 19q-35 36 -82.5 57t-102.5 21t-102.5 -22t-84.5 -59q-8 -8 -8 -19v-148q0 -4 4 -4h381q3 0 3 4z" />
    <glyph glyph-name="at.case" horiz-adv-x="867" 
d="M596 116q37 8 74 32.5t68 63.5t49.5 90.5t18.5 113.5q0 87 -38 157.5t-108 112t-167 41.5q-85 0 -155.5 -32.5t-122.5 -91t-80.5 -138t-28.5 -174.5q0 -116 43.5 -202.5t127.5 -133.5t203 -47q67 0 125 15.5t104 45.5l13 -21q-48 -34 -119 -56t-156 -22
q-128 0 -216.5 51.5t-134.5 143t-46 210.5q0 108 36.5 198t101 155t148.5 101t179 36q83 0 147.5 -27.5t109 -74.5t67.5 -108t23 -129q0 -84 -32 -150.5t-84.5 -112t-114.5 -69.5t-121 -24h-6l11 63l63 199l-6 2q-18 -40 -49 -90.5t-71 -97.5t-86 -76h-88l-12 66
q-23 126 -5 224t71.5 154t137.5 56q41 0 74 -13t61 -34l-7 -40q-22 22 -49.5 35t-60.5 13q-34 0 -65 -18.5t-51.5 -62t-25.5 -116.5t14 -183l11 -64l-25 12q71 54 122.5 123.5t81.5 142.5t35 136l2 26v8l82 30h12l-81 -461z" />
    <glyph glyph-name="questiondown.case" horiz-adv-x="443" 
d="M407 0h-125q-130 0 -191 39.5t-61 115.5q0 48 23 84.5t71 69.5t122 70l-25 -32v128h12l73 -90q-94 -62 -130 -116.5t-36 -114.5q0 -53 24 -86.5t73 -33.5q48 0 89 35t59 102h12zM316 614l-75 -82l-75 82l75 81z" />
    <glyph glyph-name="exclamdown.case" horiz-adv-x="264" 
d="M195 60l-63 -70l-63 70l57 415h12zM207 614l-75 -82l-75 82l75 81z" />
    <glyph glyph-name="parenleft.case" horiz-adv-x="361" 
d="M66 350q0 88 32.5 170t91 151t136.5 119l9 -13q-84 -91 -124 -194.5t-40 -232.5t40 -232t124 -195l-9 -13q-78 50 -136.5 119t-91 151t-32.5 170z" />
    <glyph glyph-name="parenright.case" horiz-adv-x="361" 
d="M295 350q0 -88 -32.5 -170t-90.5 -151t-137 -119l-9 13q84 92 124 195t40 232t-40 232.5t-124 194.5l9 13q79 -50 137 -119t90.5 -151t32.5 -170z" />
    <glyph glyph-name="braceleft.case" horiz-adv-x="374" 
d="M112 43q0 34 11.5 67t23 66.5t11.5 68.5q0 49 -30 70t-91 27v16q61 6 91 27t30 70q0 35 -11.5 68.5t-23 66.5t-11.5 67q0 58 47.5 92t131.5 34q15 0 30 -0.5t28 -2.5l-2 -28q-7 1 -14 1.5t-13 0.5q-41 0 -63 -13t-30 -32.5t-8 -41.5q0 -43 12.5 -90t12.5 -91
q0 -47 -19 -74t-48.5 -40t-62.5 -20v-4q33 -6 62.5 -19.5t48.5 -40t19 -74.5q0 -44 -12.5 -91t-12.5 -90q0 -21 8 -41t30 -33t62 -13q6 0 13.5 0.5t14.5 1.5l2 -28q-13 -1 -28 -2t-30 -1q-84 0 -131.5 34t-47.5 92z" />
    <glyph glyph-name="braceright.case" horiz-adv-x="374" 
d="M262 657q0 -34 -11.5 -67t-23 -66.5t-11.5 -68.5q0 -49 30 -70t91 -27v-16q-61 -6 -91 -27t-30 -70q0 -35 11.5 -68.5t23 -66.5t11.5 -67q0 -58 -47.5 -92t-131.5 -34q-15 0 -30 1t-28 2l2 28q8 -1 15 -1.5t13 -0.5q41 0 62.5 13t29.5 33t8 41q0 43 -12.5 90t-12.5 91
q0 48 19 74.5t49 40t62 19.5v4q-32 7 -62 20t-49 40t-19 74q0 44 12.5 91t12.5 90q0 22 -8 41.5t-29.5 32.5t-62.5 13q-6 0 -13 -0.5t-15 -1.5l-2 28q13 2 28 2.5t30 0.5q84 0 131.5 -34t47.5 -92z" />
    <glyph glyph-name="bracketleft.case" horiz-adv-x="390" 
d="M117 780h268v-31h-173v-798h173v-31h-268v860z" />
    <glyph glyph-name="bracketright.case" horiz-adv-x="390" 
d="M273 -80h-268v31h173v798h-173v31h268v-860z" />
    <glyph glyph-name="hyphen.case" horiz-adv-x="361" 
d="M60 329v8l17 51h224v-8l-17 -51h-224z" />
    <glyph glyph-name="endash.case" horiz-adv-x="500" 
d="M60 381h380v-45h-380v45z" />
    <glyph glyph-name="emdash.case" horiz-adv-x="1000" 
d="M60 381h880v-45h-880v45z" />
    <glyph glyph-name="brokenbar.case" horiz-adv-x="293" 
d="M114 780h65v-355h-65v355zM114 275h65v-355h-65v355z" />
    <glyph glyph-name="bar.case" horiz-adv-x="299" 
d="M117 780h65v-860h-65v860z" />
    <glyph glyph-name="guillemotleft.case" horiz-adv-x="611" 
d="M35 312v8l264 224l10 -12l-218 -233l-24 17h109l136 -217l-13 -11zM293 312v8l264 224l10 -12l-218 -233l-24 17h109l136 -217l-13 -11z" />
    <glyph glyph-name="guillemotright.case" horiz-adv-x="611" 
d="M576 320v-8l-264 -224l-10 12l218 233l24 -17h-109l-136 217l13 11zM318 320v-8l-264 -224l-10 12l218 233l24 -17h-109l-136 217l13 11z" />
    <glyph glyph-name="guilsinglleft.case" horiz-adv-x="353" 
d="M35 312v8l264 224l10 -12l-218 -233l-24 17h109l136 -217l-13 -11z" />
    <glyph glyph-name="guilsinglright.case" horiz-adv-x="353" 
d="M318 320v-8l-264 -224l-10 12l218 233l24 -17h-109l-136 217l13 11z" />
    <glyph glyph-name="arrowleft.alt" horiz-adv-x="658" 
d="M191 317h270q31 53 80.5 84.5t111.5 45.5q-13 -34 -21.5 -69.5t-8.5 -70.5t8.5 -70.5t21.5 -69.5q-59 2 -108 34t-84 96h-270v20zM162 336q9 0 14.5 6t5.5 14t-5.5 14t-14.5 6q-8 0 -14 -6t-6 -14t6 -14t14 -6zM301 189l139 38q-8 -86 18 -169l-7 -7zM191 457l261 161
l16 -10q-64 -75 -57 -180zM462 319v-24q19 -20 23.5 -43t4.5 -40q0 -33 -21.5 -54.5t-56.5 -32t-76 -10.5q-63 0 -122.5 24t-110 66t-88.5 96v12q38 54 88.5 96t110 66t122.5 24q41 0 76 -10.5t56.5 -31.5t21.5 -55q0 -17 -4.5 -40t-23.5 -43zM171 189l220 -29
q-35 -99 9 -188l-18 -6z" />
    <glyph glyph-name="arrowup.alt" horiz-adv-x="658" 
d="M304 435v-270q-53 -31 -84.5 -80.5t-45.5 -111.5q34 14 69.5 22t70.5 8t70.5 -8t69.5 -22q-1 59 -33 108.5t-97 83.5v270h-20zM285 464q0 -9 -6 -14.5t-14 -5.5t-14 5.5t-6 14.5q0 8 6 14t14 6t14 -6t6 -14zM432 325l-38 -139q86 8 169 -18l7 7zM164 435l-161 -261
l10 -16q75 65 180 57zM302 164h24q20 -19 43 -23.5t40 -4.5q34 0 55 21.5t31.5 56.5t10.5 76q0 64 -24 123t-66 109.5t-96 88.5h-12q-54 -38 -96 -88.5t-66 -109.5t-24 -123q0 -41 10.5 -76t32 -56.5t54.5 -21.5q17 0 40 4.5t43 23.5zM432 455l29 -220q99 35 188 -9l6 18z
" />
    <glyph glyph-name="arrowright.alt" horiz-adv-x="658" 
d="M467 317h-270q-31 53 -80.5 85t-111.5 45q14 -34 22 -69.5t8 -70.5t-8 -70.5t-22 -69.5q59 2 108.5 34t83.5 96h270v20zM496 336q-9 0 -14.5 6t-5.5 14t5.5 14t14.5 6q8 0 14 -6t6 -14t-6 -14t-14 -6zM357 189l-139 38q8 -86 -18 -169l7 -7zM467 457l-261 161l-16 -10
q65 -75 57 -180zM196 319v-24q-19 -20 -23.5 -43t-4.5 -40q0 -33 21.5 -54.5t56.5 -32t76 -10.5q64 0 123 24t109.5 66t88.5 96v12q-38 54 -88.5 96t-109.5 66t-123 24q-41 0 -76 -10.5t-56.5 -31.5t-21.5 -55q0 -17 4.5 -40t23.5 -43zM487 189l-220 -29q35 -99 -9 -188
l18 -6z" />
    <glyph glyph-name="arrowdown.alt" horiz-adv-x="658" 
d="M354 149v270q53 32 85 81t45 111q-34 -13 -69.5 -21.5t-70.5 -8.5t-70.5 8.5t-69.5 21.5q2 -59 34 -108t96 -84v-270h20zM373 120q0 9 6 14.5t14 5.5t14 -5.5t6 -14.5q0 -8 -6 -14t-14 -6t-14 6t-6 14zM226 259l38 139q-86 -8 -169 18l-7 -7zM494 149l161 261l-10 16
q-75 -64 -180 -57zM356 420h-24q-20 19 -43 23.5t-40 4.5q-33 0 -54.5 -21.5t-32 -56.5t-10.5 -76q0 -63 24 -122.5t66.5 -110t95.5 -88.5h12q54 38 96 88.5t66 110t24 122.5q0 41 -10.5 76t-31.5 56.5t-55 21.5q-17 0 -40 -4.5t-43 -23.5zM226 129l-29 220q-99 -35 -188 9
l-6 -18z" />
    <glyph glyph-name="uni2194.alt" horiz-adv-x="1006" 
d="M191 317h270q32 53 81 85t111 45q-13 -34 -21.5 -69.5t-8.5 -70.5t8.5 -70.5t21.5 -69.5q-59 2 -108 34t-84 96h-270v20zM162 336q9 0 14.5 6t5.5 14t-5.5 14t-14.5 6q-8 0 -14 -6t-6 -14t6 -14t14 -6zM301 189l139 38q-8 -86 18 -169l-7 -7zM191 457l261 161l16 -10
q-64 -75 -57 -180zM462 319v-24q19 -20 23.5 -43t4.5 -40q0 -33 -21.5 -54.5t-56.5 -32t-76 -10.5q-63 0 -122.5 24t-110 66t-88.5 96v12q38 54 88.5 96t110 66t122.5 24q41 0 76 -10.5t56.5 -31.5t21.5 -55q0 -17 -4.5 -40t-23.5 -43zM171 189l220 -29q-35 -99 9 -188
l-18 -6zM815 317v-20h-270q-34 -64 -83.5 -96t-108.5 -34q14 34 22 69.5t8 70.5t-8 70.5t-22 69.5q62 -13 111.5 -45t80.5 -85h270zM844 336q8 0 14 6t6 14t-6 14t-14 6q-9 0 -14.5 -6t-5.5 -14t5.5 -14t14.5 -6zM705 189l-150 -138l-7 7q26 83 18 169zM815 457l-220 -29
q8 105 -57 180l16 10zM544 319q-19 20 -23.5 43t-4.5 40q0 34 21.5 55t56.5 31.5t76 10.5q64 0 123 -24t109.5 -66t88.5 -96v-12q-38 -54 -88.5 -96t-109.5 -66t-123 -24q-41 0 -76 10.5t-56.5 32t-21.5 54.5q0 17 4.5 40t23.5 43v24zM835 189l-211 -223l-18 6q44 89 9 188z
" />
    <glyph glyph-name="uni2195.alt" horiz-adv-x="658" 
d="M304 604h20v-270q65 -34 97 -83.5t33 -108.5q-34 14 -69.5 22t-70.5 8t-70.5 -8t-69.5 -22q14 62 45.5 111.5t84.5 80.5v270zM285 633q0 8 -6 14t-14 6t-14 -6t-6 -14q0 -9 6 -14.5t14 -5.5t14 5.5t6 14.5zM432 494l138 -150l-7 -7q-83 26 -169 18zM164 604l29 -220
q-105 8 -180 -57l-10 16zM302 333q-20 -19 -43 -23.5t-40 -4.5q-33 0 -54.5 21.5t-32 56.5t-10.5 76q0 64 24 123t66 109.5t96 88.5h12q54 -38 96 -88.5t66 -109.5t24 -123q0 -41 -10.5 -76t-31.5 -56.5t-55 -21.5q-17 0 -40 4.5t-43 23.5h-24zM432 624l223 -211l-6 -18
q-89 44 -188 9zM304 -20v270q-53 32 -84.5 81t-45.5 111q34 -13 69.5 -21.5t70.5 -8.5t70.5 8.5t69.5 21.5q-1 -59 -33 -108t-97 -84v-270h-20zM285 -49q0 9 -6 14.5t-14 5.5t-14 -5.5t-6 -14.5q0 -8 6 -14t14 -6t14 6t6 14zM432 90l-38 139q86 -8 169 18l7 -7zM164 -20
l-161 261l10 16q75 -64 180 -57zM302 251h24q20 19 43 23.5t40 4.5q34 0 55 -21.5t31.5 -56.5t10.5 -76q0 -63 -24 -122.5t-66 -110t-96 -88.5h-12q-54 38 -96 88.5t-66 110t-24 122.5q0 41 10.5 76t32 56.5t54.5 21.5q17 0 40 -4.5t43 -23.5zM432 -40l29 220q99 -35 188 9
l6 -18z" />
    <glyph glyph-name="uni2196.alt" horiz-adv-x="658" 
d="M211 444l191 -191q60 15 117 3t111 -47q-34 -14 -64.5 -33t-55.5 -44t-44.5 -56t-33.5 -65q-41 44 -53 101t9 127l-191 191zM204 478q7 -6 15 -6t13 6q6 6 6.5 14t-6.5 14q-5 6 -13.5 6t-14.5 -6q-6 -5 -6 -13.5t6 -14.5zM198 276l126 -72q-65 -54 -107 -132h-10z
M310 543l299 -71l4 -18q-99 -7 -168 -87zM404 254l-17 -17q-1 -28 -13.5 -47t-25.5 -32q-23 -23 -53.5 -23t-62.5 17.5t-61 46.5q-45 45 -70 104t-31 124.5t5 129.5l9 9q65 11 130.5 5t124.5 -31t103 -70q29 -29 46.5 -61t18 -62t-23.5 -54q-13 -12 -32 -25t-47 -14z
M107 368l135 -176q-96 -47 -127 -140l-17 9z" />
    <glyph glyph-name="uni2197.alt" horiz-adv-x="658" 
d="M447 444l14 -14l-191 -191q21 -70 9 -127t-53 -101q-14 34 -33 65t-45 56q-25 25 -55.5 44t-64.5 33q54 35 111 47t117 -3zM454 478q6 6 6 14.5t-6 13.5q-6 6 -14.5 6t-13.5 -6q-7 -6 -6.5 -14t6.5 -14q5 -6 13 -6t15 6zM460 276l-9 -204h-10q-42 78 -107 132zM348 543
l-135 -176q-69 80 -168 87l4 18zM254 254q-28 1 -47 14t-32 25q-23 24 -23 54t17.5 62t46.5 61q45 45 103.5 70t124.5 31t130 -5l9 -9q11 -64 5 -129.5t-31 -124.5t-70 -104q-29 -29 -61 -46.5t-62 -17.5t-54 23q-13 13 -25.5 32t-13.5 47zM551 368l9 -307l-17 -9
q-31 93 -127 140z" />
    <glyph glyph-name="uni2198.alt" horiz-adv-x="658" 
d="M461 154l-14 -14l-191 191q-70 -21 -127 -9t-101 53q34 14 64.5 33.5t55.5 44.5q26 25 45 55.5t33 64.5q35 -54 47 -111t-3 -117zM495 147q6 -6 14 -6t14 6t6 14.5t-6 13.5q-6 7 -14 6.5t-14 -6.5q-6 -5 -6.5 -13t6.5 -15zM293 141l-204 9v10q78 42 132 107zM560 253
l-176 135q80 69 87 168l18 -4zM271 347q1 28 13.5 47t25.5 32q24 24 54 23.5t62 -18t61 -46.5q45 -44 70 -103t31 -124.5t-5 -130.5l-9 -9q-64 -10 -130 -4t-124.5 30.5t-103.5 69.5q-29 29 -46.5 61t-17.5 62.5t23 53.5q13 13 32 25.5t47 13.5zM385 50l-307 -9l-9 17
q93 32 140 127z" />
    <glyph glyph-name="uni2199.alt" horiz-adv-x="658" 
d="M197 154l191 191q-15 60 -2.5 117t46.5 111q14 -34 33.5 -64.5t44.5 -55.5t55.5 -44.5t64.5 -33.5q-43 -41 -100.5 -53t-127.5 9l-191 -191zM163 147q7 7 6.5 15t-6.5 13q-6 6 -14 6.5t-14 -6.5q-6 -5 -6 -13.5t6 -14.5t14 -6t14 6zM365 141l72 126q54 -65 132 -107v-10z
M98 253l71 299l18 4q8 -99 87 -168zM387 347l17 -17q28 -1 47 -13.5t32 -25.5q24 -23 23.5 -53.5t-18 -62.5t-46.5 -61q-44 -45 -103 -69.5t-124.5 -30.5t-130.5 4l-9 9q-11 65 -5 130.5t31 124.5t70 103q29 29 61 46.5t62.5 18t53.5 -23.5q13 -13 25.5 -32t13.5 -47z
M273 50l176 135q47 -95 140 -127l-9 -17z" />
    <glyph glyph-name="ampersand.alt" horiz-adv-x="752" 
d="M314 334l19 -28q-53 -8 -90.5 -29t-57 -52t-19.5 -69q0 -46 29 -75.5t84 -29.5q47 0 91.5 25t87.5 81l25 -26q-57 -74 -119 -107.5t-132 -33.5q-85 0 -126.5 41.5t-41.5 99.5q0 77 67 130t183 73zM317 412q33 0 60 26t27 85q0 38 -13 69t-36.5 50t-56.5 19
q-32 0 -59.5 -26t-27.5 -85q0 -37 13 -68.5t37 -50.5t56 -19zM298 378q-86 0 -134 44.5t-48 109.5q0 49 26 85.5t71.5 57t103.5 20.5q86 0 134 -44.5t48 -109.5q0 -49 -26 -85.5t-71.5 -57t-103.5 -20.5zM618 389l16 -34l-104 72v8h205v-8l-84 -55l-138 -207l-21 33zM610 65
l88 -57v-8h-176l-33 60l-192 263l-1 -5v81l43 3v-92l-19 23h87z" />
    <glyph glyph-name="r.salt" horiz-adv-x="438" 
d="M32 490h372v-157h-10q-38 72 -69.5 99.5t-63.5 27.5q-31 0 -47.5 -24.5t-16.5 -77.5v-295l110 -55v-8h-275v8l75 50v374l-75 50v8z" />
    <glyph glyph-name="racute.salt" horiz-adv-x="438" 
d="M32 490h372v-157h-10q-38 72 -69.5 99.5t-63.5 27.5q-31 0 -47.5 -24.5t-16.5 -77.5v-295l110 -55v-8h-275v8l75 50v374l-75 50v8zM204 710h126l-164 -158h-15z" />
    <glyph glyph-name="rcaron.salt" horiz-adv-x="438" 
d="M32 490h372v-157h-10q-38 72 -69.5 99.5t-63.5 27.5q-31 0 -47.5 -24.5t-16.5 -77.5v-295l110 -55v-8h-275v8l75 50v374l-75 50v8zM281 552h-126l-73 158h15l144 -131h-44l142 131h15z" />
    <glyph glyph-name="rcommaaccent.salt" horiz-adv-x="438" 
d="M32 490h372v-157h-10q-38 72 -69.5 99.5t-63.5 27.5q-31 0 -47.5 -24.5t-16.5 -77.5v-295l110 -55v-8h-275v8l75 50v374l-75 50v8zM98 -117l45 71q38 -19 57 -42t19 -52q0 -15 -7.5 -33.5t-30 -36.5t-67.5 -34l-6 14q26 12 38 25.5t12 27.5q0 20 -30 40z" />
    </font>
</defs>
</svg>
